<?xml version="1.0" encoding="utf-8"?>
<!-- Generator: Adobe Illustrator 17.0.0, SVG Export Plug-In . SVG Version: 6.00 Build 0)  -->
<!DOCTYPE svg PUBLIC "-//W3C//DTD SVG 1.1//EN" "http://www.w3.org/Graphics/SVG/1.1/DTD/svg11.dtd">
<svg version="1.1" id="Layer_1" xmlns="http://www.w3.org/2000/svg" xmlns:xlink="http://www.w3.org/1999/xlink" x="0px" y="0px"
	 width="140px" height="140px" viewBox="0 0 140 140" enable-background="new 0 0 140 140" xml:space="preserve">
<path fill="none" stroke="#59515F" stroke-miterlimit="10" d="M54.844,5.687c0,0-2.253-2.58-6.411-1.204s-8.49-0.688-15.421,9.804
	s0,4.816-1.733,7.396s-2.486,5.16-1.416,9.288c1.07,4.128,0.203,3.956-1.356,8.084c-1.559,4.128-0.866,7.912,0,12.212
	c0.866,4.3,1.437,4.3-0.928,8.6s-0.408,15.996,0,20.468c0.408,4.472,2.487,10.492,1.794,14.62s-1.04,7.912-1.04,12.212
	c0,4.3-0.338,9.632-1.902,11.868c-1.564,2.236-1.737,4.3-3.123,6.192c-1.386,1.892-7.97,9.632-7.97,9.632s28.243,4.816,53.194,4.644
	s54.754-6.536,56.833-7.396s-3.292-2.236-7.97-6.02s-2.426-4.816-3.639-7.74c-1.213-2.924-2.772-6.02-2.253-9.804
	s-0.52-6.02-2.599-8.772c-2.079-2.752-2.426-17.888-1.733-19.78c0.693-1.892-0.693-6.536-1.559-9.116
	c-0.866-2.58,0.866-6.88,1.559-10.148c0.693-3.268,1.386-14.104,1.213-22.36s0.866-13.244-0.693-14.964
	c-1.559-1.72-3.465-4.816-1.559-7.224c1.906-2.408,0.693-3.096-1.04-3.956c-1.733-0.86-1.386-0.86-3.639-3.784
	c-2.253-2.924-4.678-5.676-8.144-6.364c-3.465-0.688-9.01,1.376-10.396,0c-1.386-1.376-6.931-1.376-7.97-1.376
	c-1.04,0-4.332-0.172-6.238,0c-1.906,0.172-6.584,1.032-7.624,2.236C60.042,4.139,61.255,6.891,54.844,5.687z"/>
<path fill="none" stroke="#59515F" stroke-miterlimit="10" d="M44.796,21.896c0,0-0.047,0.475-1.388-2.105
	c-1.527-2.936-0.347-3.784,0-6.88s0.693-2.408,2.946-4.988c0,0,5.545-1.72,8.49,0s5.545,0.191,8.837-0.764
	c3.292-0.956,3.292-3.364,7.624-3.192c4.332,0.172,9.183,1.032,9.703,1.376c0.52,0.344,4.852,0.86,7.451,0.86
	s4.505,0.344,4.505,1.548s3.292,2.302-5.198,5.193s-11.125,3.579-12.84,5.127s-2.838,2.983-2.838,2.983"/>
<path fill="none" stroke="#59515F" stroke-miterlimit="10" d="M51.032,11.363c-0.47,0.221-5.545,0.86-5.891,6.364
	c-0.347,5.504-1.006,8.428-0.763,12.728c0.243,4.3-2.183,8.428,6.654,10.836s19.06,6.192,16.461,9.632
	c-2.599,3.44,2.079,4.3,5.025-2.58s3.465-21.328,0-26.66S59.178,7.527,51.032,11.363z"/>
<path fill="none" stroke="#59515F" stroke-miterlimit="10" d="M98.681,18.244c0,0,7.451,12.728,3.639,28.036
	c-3.812,15.308-10.177,23.736-1.277,30.445"/>
</svg>
