<?xml version="1.0" encoding="utf-8"?>
<!-- Generator: Adobe Illustrator 17.0.0, SVG Export Plug-In . SVG Version: 6.00 Build 0)  -->
<!DOCTYPE svg PUBLIC "-//W3C//DTD SVG 1.1//EN" "http://www.w3.org/Graphics/SVG/1.1/DTD/svg11.dtd">
<svg version="1.1" id="Layer_1" xmlns="http://www.w3.org/2000/svg" xmlns:xlink="http://www.w3.org/1999/xlink" x="0px" y="0px"
	 width="140px" height="140px" viewBox="0 0 140 140" enable-background="new 0 0 140 140" xml:space="preserve">
<path fill="none" stroke="#59515F" stroke-linecap="round" stroke-linejoin="round" stroke-miterlimit="10" d="M70.922,135.215
	c-5.604,0-2.848,3.359-4.829,3.359c-10.595,1.809-18.09-4.652-24.033-11.371c-5.944-6.719-4.393-10.595-3.101-20.932
	s3.359-24.292,3.876-27.91c2.067-7.236,2.584-19.382,1.728-23.318c0.436-14.532-2.503-14.67-2.503-14.67
	c1.292,7.753-1.551,12.663-1.551,12.663c1.551,9.045-1.292,17.314-1.292,17.314c0,10.595-3.101,18.09-3.101,18.09
	c0.775,6.977-2.067,12.404-2.067,12.404s0,3.876-1.292,7.753c-3.101,2.067-10.854,0.258-12.146-1.809
	c-2.843-4.652-0.775-11.629,0-16.022c2.326-8.786,1.551-12.921,3.618-20.415c0.258-7.236-0.517-9.303,1.034-15.505
	s3.101-21.707,4.135-31.527c1.034-9.82,3.876-12.404,10.337-14.73c6.26-0.722,12.745-3.913,15.901-7.271
	c0.427-0.454,1.064-0.613,1.666-0.454c8.242,2.176,19.007,2.174,27.243,0c0.602-0.159,1.24,0,1.666,0.454
	c3.156,3.359,9.64,6.549,15.9,7.271c6.461,2.326,9.303,4.91,10.337,14.73c1.034,9.82,2.584,25.325,4.135,31.527
	c1.551,6.202,0.775,8.27,1.034,15.505c2.067,7.494,1.292,11.629,3.618,20.415c0.775,4.393,2.843,11.371,0,16.022
	c-1.292,2.067-9.045,3.876-12.146,1.809c-1.292-3.876-1.292-7.753-1.292-7.753s-2.843-5.427-2.067-12.404
	c0,0-3.101-7.494-3.101-18.09c0,0-2.843-8.27-1.292-17.314c0,0-2.843-4.91-1.551-12.663c0,0-2.939,0.138-2.503,14.67
	c-0.856,3.937-0.339,16.083,1.728,23.318c0.517,3.618,2.584,17.573,3.876,27.91c1.292,10.337,2.843,14.213-3.101,20.932
	c-5.944,6.719-13.438,13.18-24.033,11.371C73.931,138.575,76.343,135.215,70.922,135.215z"/>
<path fill="none" stroke="#59515F" stroke-linecap="round" stroke-linejoin="round" stroke-miterlimit="10" d="M40.779,125.645
	c0,0,24.473,9.571,59.005,1.56"/>
<path fill="none" stroke="#59515F" stroke-linecap="round" stroke-linejoin="round" stroke-miterlimit="10" d="M85.393,1.318
	c0,0-0.896,5.204-5.031,8.821c1.551,1.292,2.516,2.843,2.516,2.843H79.07c0,0-4.082,11.371-8.556,31.269
	c-4.474-19.898-8.556-31.269-8.556-31.269H58.15c0,0,0.965-1.551,2.516-2.843c-4.135-3.618-5.031-8.821-5.031-8.821"/>
<path fill="none" stroke="#59515F" stroke-linecap="round" stroke-linejoin="round" stroke-miterlimit="10" d="M35.931,10.271
	c0,0,6.645,20.039,6.128,30.104"/>
<path fill="none" stroke="#59515F" stroke-linecap="round" stroke-linejoin="round" stroke-miterlimit="10" d="M106.177,10.271
	c0,0-6.645,20.039-6.128,30.104"/>
<path fill="none" stroke="#59515F" stroke-linecap="round" stroke-linejoin="round" stroke-miterlimit="10" d="M37.653,15.903
	c0,0,12.713-7.338,20.189-9.135"/>
<path fill="none" stroke="#59515F" stroke-linecap="round" stroke-linejoin="round" stroke-miterlimit="10" d="M44.625,12.17
	c0,0,0.36,8.1-1.274,15.025"/>
<path fill="none" stroke="#59515F" stroke-linecap="round" stroke-linejoin="round" stroke-miterlimit="10" d="M47.747,10.647
	c0,0,1.806,9.829-1.036,16.548"/>
<path fill="none" stroke="#59515F" stroke-linecap="round" stroke-linejoin="round" stroke-miterlimit="10" d="M103.324,15.903
	c0,0-12.713-7.338-20.189-9.135"/>
<path fill="none" stroke="#59515F" stroke-linecap="round" stroke-linejoin="round" stroke-miterlimit="10" d="M96.351,12.17
	c0,0-0.36,8.1,1.274,15.025"/>
<path fill="none" stroke="#59515F" stroke-linecap="round" stroke-linejoin="round" stroke-miterlimit="10" d="M93.229,10.647
	c0,0-1.806,9.829,1.036,16.548"/>
</svg>
