<?xml version="1.0" encoding="utf-8"?>
<!-- Generator: Adobe Illustrator 17.0.0, SVG Export Plug-In . SVG Version: 6.00 Build 0)  -->
<!DOCTYPE svg PUBLIC "-//W3C//DTD SVG 1.1//EN" "http://www.w3.org/Graphics/SVG/1.1/DTD/svg11.dtd">
<svg version="1.1" id="Layer_1" xmlns="http://www.w3.org/2000/svg" xmlns:xlink="http://www.w3.org/1999/xlink" x="0px" y="0px"
	 width="140px" height="140px" viewBox="0 0 140 140" enable-background="new 0 0 140 140" xml:space="preserve">
<path fill="none" stroke="#5A515F" stroke-linecap="round" stroke-linejoin="round" stroke-miterlimit="10" d="M39,11.25
	c0,0,3.755,24.008,1.5,51.5"/>
<path fill="none" stroke="#5A515F" stroke-linecap="round" stroke-linejoin="round" stroke-miterlimit="10" d="M21.109,101.75
	c0,0,10.226,1.249,17.058-1.001"/>
<path fill="none" stroke="#5A515F" stroke-linecap="round" stroke-linejoin="round" stroke-miterlimit="10" d="M83.609,2.5
	c0,0,13.25,6.75,18.5,8.75c3.25,2.75,9.25,11.75,11.75,22.75c0.5,3,4,24.75,4.75,36c0.25,7.25,3,36.75,0,40h-15.75
	c0,0,0.75-37.75-2.25-47.25c-1.25,2.25-1.5,18.5-1.5,26.75l-0.25,14.75c-4.75,0-28.305,0-28.305,0s-23.555,0-28.305,0L42,89.5
	c0-8.25-0.25-24.5-1.5-26.75c-3,9.5-2.25,47.25-2.25,47.25H22.5c-3-3.25-0.25-32.75,0-40c0.75-11.25,4.25-33,4.75-36
	c2.5-11,8.5-20,11.75-22.75c5.25-2,18.5-8.75,18.5-8.75S69.969,11.75,83.609,2.5z"/>
<path fill="none" stroke="#5A515F" stroke-linecap="round" stroke-linejoin="round" stroke-miterlimit="10" d="M102.109,11.25
	c0,0-3.755,24.008-1.5,51.5"/>
<path fill="none" stroke="#5A515F" stroke-linecap="round" stroke-linejoin="round" stroke-miterlimit="10" d="M120,101.75
	c0,0-10.226,1.249-17.058-1.001"/>
<polyline fill="none" stroke="#5A515F" stroke-linecap="round" stroke-linejoin="round" stroke-miterlimit="10" points="
	98.974,97.506 70.555,97.506 42.136,97.506 "/>
<path fill="none" stroke="#5A515F" stroke-linecap="round" stroke-linejoin="round" stroke-miterlimit="10" d="M83.266,2.5
	c0,0,2.574,10.296-6.753,14.459c-3.877,1.731-8.382,1.731-12.259,0C54.926,12.796,57.5,2.5,57.5,2.5"/>
<g>
	<path fill="#E75A41" d="M61.536,120.034c-0.131-1.604-0.683-2.809-1.654-3.616c-0.972-0.808-2.363-1.211-4.175-1.211
		c-1.637,0-2.969,0.32-3.995,0.962c-1.026,0.642-1.539,1.575-1.539,2.801c0,1.088,0.396,1.898,1.187,2.431
		c0.791,0.532,2.306,1.063,4.543,1.589c1.987,0.458,3.607,0.928,4.863,1.409c1.255,0.48,2.33,1.229,3.225,2.242
		s1.343,2.373,1.343,4.08c0,2.164-0.822,3.963-2.464,5.395s-3.785,2.147-6.426,2.147c-3.373,0-5.897-0.79-7.572-2.371
		c-1.675-1.58-2.562-3.631-2.66-6.15l3.012-0.274c0.142,2.016,0.884,3.484,2.227,4.406c1.343,0.922,2.963,1.383,4.863,1.383
		c1.779,0,3.217-0.384,4.314-1.151c1.097-0.767,1.646-1.81,1.646-3.126c0-1.375-0.573-2.377-1.719-3.007s-3.07-1.251-5.771-1.864
		c-2.702-0.612-4.647-1.475-5.837-2.585c-1.189-1.111-1.785-2.555-1.785-4.33c0-2.016,0.753-3.682,2.26-4.999
		c1.506-1.317,3.558-1.976,6.156-1.976c2.663,0,4.805,0.655,6.426,1.967c1.621,1.312,2.48,3.176,2.579,5.592L61.536,120.034z"/>
	<path fill="#E75A41" d="M92.447,137.833h-3.014v-21.08h-0.064l-6.91,21.08h-2.848l-6.877-21.424h-0.098v21.424h-3.013v-25.186
		h4.747l5.682,17.832c0.633,1.982,0.998,3.225,1.098,3.729h0.064c0.295-0.974,0.721-2.319,1.277-4.037l5.73-17.523h4.225V137.833z"
		/>
</g>
</svg>
