<?xml version="1.0" encoding="utf-8"?>
<!-- Generator: Adobe Illustrator 17.0.0, SVG Export Plug-In . SVG Version: 6.00 Build 0)  -->
<!DOCTYPE svg PUBLIC "-//W3C//DTD SVG 1.1//EN" "http://www.w3.org/Graphics/SVG/1.1/DTD/svg11.dtd">
<svg version="1.1" id="Layer_1" xmlns="http://www.w3.org/2000/svg" xmlns:xlink="http://www.w3.org/1999/xlink" x="0px" y="0px"
	 width="140px" height="140px" viewBox="0 0 140 140" enable-background="new 0 0 140 140" xml:space="preserve">
<path fill="none" stroke="#5A515F" stroke-linecap="round" stroke-linejoin="round" stroke-miterlimit="10" d="M39,11.25
	c0,0,3.755,24.008,1.5,51.5"/>
<path fill="none" stroke="#5A515F" stroke-linecap="round" stroke-linejoin="round" stroke-miterlimit="10" d="M21.109,101.75
	c0,0,10.226,1.249,17.058-1.001"/>
<path fill="none" stroke="#5A515F" stroke-linecap="round" stroke-linejoin="round" stroke-miterlimit="10" d="M83.609,2.5
	c0,0,13.25,6.75,18.5,8.75c3.25,2.75,9.25,11.75,11.75,22.75c0.5,3,4,24.75,4.75,36c0.25,7.25,3,36.75,0,40h-15.75
	c0,0,0.75-37.75-2.25-47.25c-1.25,2.25-1.5,18.5-1.5,26.75l-0.25,14.75c-4.75,0-28.305,0-28.305,0s-23.555,0-28.305,0L42,89.5
	c0-8.25-0.25-24.5-1.5-26.75c-3,9.5-2.25,47.25-2.25,47.25H22.5c-3-3.25-0.25-32.75,0-40c0.75-11.25,4.25-33,4.75-36
	c2.5-11,8.5-20,11.75-22.75c5.25-2,18.5-8.75,18.5-8.75S69.969,11.75,83.609,2.5z"/>
<path fill="none" stroke="#5A515F" stroke-linecap="round" stroke-linejoin="round" stroke-miterlimit="10" d="M102.109,11.25
	c0,0-3.755,24.008-1.5,51.5"/>
<path fill="none" stroke="#5A515F" stroke-linecap="round" stroke-linejoin="round" stroke-miterlimit="10" d="M120,101.75
	c0,0-10.226,1.249-17.058-1.001"/>
<polyline fill="none" stroke="#5A515F" stroke-linecap="round" stroke-linejoin="round" stroke-miterlimit="10" points="
	98.974,97.506 70.555,97.506 42.136,97.506 "/>
<path fill="none" stroke="#5A515F" stroke-linecap="round" stroke-linejoin="round" stroke-miterlimit="10" d="M83.266,2.5
	c0,0,2.574,10.296-6.753,14.459c-3.877,1.731-8.382,1.731-12.259,0C54.926,12.796,57.5,2.5,57.5,2.5"/>
<g>
	<path fill="#E75A41" d="M54.599,112.571v21.582h12.169v2.417H51.703v-23.999H54.599z"/>
	<path fill="#E75A41" d="M88.941,118.79l-2.83,0.715c-0.868-3.35-2.858-5.025-5.971-5.025c-2.343,0-4.17,0.976-5.482,2.927
		c-1.193,1.771-1.79,4.161-1.79,7.173c0,3.456,0.743,6.07,2.229,7.841c1.258,1.506,2.928,2.258,5.01,2.258s3.683-0.863,4.8-2.592
		c0.89-1.379,1.377-3.144,1.464-5.297H79.88v-2.306h9.225v12.183H87.07l-0.324-3.849c-0.695,1.442-1.693,2.528-2.994,3.261
		c-1.139,0.636-2.43,0.954-3.872,0.954c-3.231,0-5.765-1.225-7.597-3.674c-1.649-2.206-2.474-5.122-2.474-8.748
		c0-4.124,1.106-7.326,3.319-9.606c1.854-1.908,4.181-2.862,6.979-2.862c2.408,0,4.409,0.684,6.004,2.052
		C87.434,115.338,88.377,116.87,88.941,118.79z"/>
</g>
</svg>
