<?xml version="1.0" encoding="utf-8"?>
<!-- Generator: Adobe Illustrator 17.0.0, SVG Export Plug-In . SVG Version: 6.00 Build 0)  -->
<!DOCTYPE svg PUBLIC "-//W3C//DTD SVG 1.1//EN" "http://www.w3.org/Graphics/SVG/1.1/DTD/svg11.dtd">
<svg version="1.1" id="Layer_1" xmlns="http://www.w3.org/2000/svg" xmlns:xlink="http://www.w3.org/1999/xlink" x="0px" y="0px"
	 width="140px" height="140px" viewBox="0 0 140 140" enable-background="new 0 0 140 140" xml:space="preserve">
<path fill="none" stroke="#5A515F" stroke-linecap="round" stroke-linejoin="round" stroke-miterlimit="10" d="M24.498,14.497
	c2.376,5.114,6.204,13.189,7.851,17.828c2.143,6.033,2.09,13.959,2.302,17.958c0.042,0.8-0.373,1.571-1.101,1.929
	c-6.044,2.971-16.666-0.383-20.725-2.115c-0.806-0.344-1.275-1.167-1.184-2.028C12.927,35.957,21.871,18.38,24.498,14.497
	c4.358-2.953,21.758-9.76,28.612-12.391c1.832-0.703,3.778-1.064,5.744-1.064h10.928H80.71c1.966,0,3.912,0.361,5.744,1.064
	c6.853,2.63,24.253,9.438,28.612,12.391c2.627,3.883,11.571,21.461,12.856,33.572c0.091,0.861-0.378,1.684-1.184,2.028
	c-4.059,1.731-14.681,5.086-20.725,2.115c-0.728-0.358-1.143-1.129-1.101-1.929c0.212-3.998,0.159-11.925,2.302-17.958
	c1.648-4.639,5.476-12.714,7.851-17.828"/>
<path fill="none" stroke="#5A515F" stroke-linecap="round" stroke-linejoin="round" stroke-miterlimit="10" d="M34.398,44.49
	c3.986,17.009-0.341,83.703,0.001,90.431c0,0,29.121,9.418,70.768,0c0.341-6.728-3.986-73.422,0-90.431"/>
<path fill="none" stroke="#5A515F" stroke-linecap="round" stroke-linejoin="round" stroke-miterlimit="10" d="M54.402,1.674
	c0,0-0.716,11.309,15.381,11.561S85.163,1.674,85.163,1.674"/>
<path fill="none" stroke="#5A515F" stroke-linecap="round" stroke-linejoin="round" stroke-miterlimit="10" d="M88.439,3.102
	c0,0-1.545,12.908-18.954,12.908S50.53,3.102,50.53,3.102"/>
<path fill="none" stroke="#5A515F" stroke-linecap="round" stroke-linejoin="round" stroke-miterlimit="10" d="M34.421,131.298
	c0,0,31.697,11.094,70.764,0"/>
</svg>
