<?xml version="1.0" encoding="utf-8"?>
<!-- Generator: Adobe Illustrator 17.0.0, SVG Export Plug-In . SVG Version: 6.00 Build 0)  -->
<!DOCTYPE svg PUBLIC "-//W3C//DTD SVG 1.1//EN" "http://www.w3.org/Graphics/SVG/1.1/DTD/svg11.dtd">
<svg version="1.1" id="Layer_1" xmlns="http://www.w3.org/2000/svg" xmlns:xlink="http://www.w3.org/1999/xlink" x="0px" y="0px"
	 width="140px" height="140px" viewBox="0 0 140 140" enable-background="new 0 0 140 140" xml:space="preserve">
<path fill="none" stroke="#5A515F" stroke-linecap="round" stroke-linejoin="round" stroke-miterlimit="10" d="M16.218,43.113
	c1.193-13.78,15.733-30.034,15.733-30.034c17.288,13.105,7.012,37.434,5.354,39.562c-1.658,2.128,0,6.148-0.474,8.749
	c-7.58-0.473-22.029-5.675-25.109-8.512c1.272-23.488,12.03-35.614,17.672-39.428c0.926-0.626,2.026-0.887,3.144-0.84
	c7.651,0.32,20.393-7.651,25.397-11.005c1.335-0.895,2.984-1.185,4.538-0.776c3.947,1.039,11.88,2.851,17.512,2.337
	c1.237-0.113,2.469,0.207,3.534,0.845c4.909,2.941,18.471,10.921,24.098,12.746c2.361,0.766,5.024,1.331,7.659,3.425
	c5.103,4.054,10.104,13.837,12.618,41.901c-2.6,1.903-11.092,7.093-19.931,5.017c0.149-1.788,3.897-16.147,3.496-23.968
	c-0.124-2.416,0.421-4.809,1.661-6.888c1.694-2.841,3.482-7.349,2.156-16.063"/>
<line fill="none" stroke="#5A515F" stroke-linecap="round" stroke-linejoin="round" stroke-miterlimit="10" x1="36.676" y1="54.073" x2="13.2" y2="41.496"/>
<path fill="none" stroke="#5A515F" stroke-linecap="round" stroke-linejoin="round" stroke-miterlimit="10" d="M109.117,61.389
	c0,0,9.424,0.271,17.653-9.508"/>
<line fill="none" stroke="#5A515F" stroke-linecap="round" stroke-linejoin="round" stroke-miterlimit="10" x1="121.482" y1="29.279" x2="124.738" y2="54.073"/>
<path fill="none" stroke="#5A515F" stroke-linecap="round" stroke-linejoin="round" stroke-miterlimit="10" d="M57.935,1.603
	c0,0,4.794,7.801,18.572,9.358c8.319,0.779,13.746,0.395,9.213-5.641"/>
<path fill="none" stroke="#5A515F" stroke-linecap="round" stroke-linejoin="round" stroke-miterlimit="10" d="M52.85,19.525
	c-5.719,0-11.738,7.794-11.738,7.794s23.981,25.741,15.301,73.489"/>
<path fill="none" stroke="#5A515F" stroke-linecap="round" stroke-linejoin="round" stroke-miterlimit="10" d="M115.007,31.797
	c0,0-4.704-7.333-10.164-8.376"/>
<path fill="none" stroke="#5A515F" stroke-linecap="round" stroke-linejoin="round" stroke-miterlimit="10" d="M83.526,29.279
	c-2.08-11.525-10.877-15.463-10.877-15.463"/>
<path fill="none" stroke="#5A515F" stroke-linecap="round" stroke-linejoin="round" stroke-miterlimit="10" d="M86.126,13.816
	c0,0-5.937,4.935-2.6,15.463"/>
<path fill="none" stroke="#5A515F" stroke-linecap="round" stroke-linejoin="round" stroke-miterlimit="10" d="M36.831,61.389
	l5.36,14.448c0,0,1.82,4.152,0,6.228S43,87.255,43,87.255s1.915,2.991-0.562,7.4c-0.791,1.408-1.31,2.949-1.385,4.561
	c-0.144,3.103-0.574,6.567-1.541,10.85c-0.474,2.102-0.801,4.233-0.941,6.383c-0.421,6.469-0.589,12.924,1.698,16.219
	c2.702,3.893,28.724,11.678,69.657,2.595c1.417-2.076,2.685-24.653-0.808-36.33c-3.493-11.678-2.226-19.982,0-24.653
	c1.186-2.855-1.154-7.18-1.154-7.18"/>
<path fill="none" stroke="#5A515F" stroke-linecap="round" stroke-linejoin="round" stroke-miterlimit="10" d="M39.201,48.54
	c0,0,17.024,11.626,17.212,52.268c3.047-46.467-14.92-61.619-14.92-61.619"/>
<path fill="none" stroke="#5A515F" stroke-linecap="round" stroke-linejoin="round" stroke-miterlimit="10" d="M52.85,8.626
	l-7.799,5.19c0,0,3.64-1.557,7.799,0"/>
</svg>
