<?xml version="1.0" encoding="utf-8"?>
<!-- Generator: Adobe Illustrator 17.0.0, SVG Export Plug-In . SVG Version: 6.00 Build 0)  -->
<!DOCTYPE svg PUBLIC "-//W3C//DTD SVG 1.1//EN" "http://www.w3.org/Graphics/SVG/1.1/DTD/svg11.dtd">
<svg version="1.1" id="Layer_1" xmlns="http://www.w3.org/2000/svg" xmlns:xlink="http://www.w3.org/1999/xlink" x="0px" y="0px"
	 width="140px" height="140px" viewBox="0 0 140 140" enable-background="new 0 0 140 140" xml:space="preserve">
<path fill="none" stroke="#545454" stroke-linecap="round" stroke-linejoin="round" stroke-miterlimit="10" d="M74.15,139.339
	c-8.14,0.523-18.119-0.785-21.27-1.308c-0.788-2.877-1.488-2.18-3.939-1.831c-16.806-1.744-28.36-10.812-28.36-10.812
	S38.788,76.91,43.69,68.191s9.803-20.577,9.803-20.577s0,0,0-3.836C55.944,33.663,47.541,3.67,47.541,3.67l7.703-3.139
	c0,0,15.306,5.842,31.549,0l7.703,3.139c0,0-8.403,29.994-5.952,40.108c0,3.836,0,3.836,0,3.836s4.902,11.858,9.803,20.577
	c4.902,8.719,23.108,57.197,23.108,57.197s-9.979,8.881-26.784,10.625c-1.613-0.878-1.826-1.732-4.414,1.93
	c-3.151,0.523-14.23,1.918-22.37,1.395"/>
<line fill="none" stroke="#545454" stroke-linecap="round" stroke-linejoin="round" stroke-miterlimit="10" x1="53.493" y1="43.778" x2="88.543" y2="43.778"/>
<line fill="none" stroke="#545454" stroke-linecap="round" stroke-linejoin="round" stroke-miterlimit="10" x1="53.493" y1="47.614" x2="88.543" y2="47.614"/>
<ellipse fill="#545454" cx="71.018" cy="45.809" rx="3.562" ry="3.549"/>
<path fill="none" stroke="#545454" stroke-linecap="round" stroke-linejoin="round" stroke-miterlimit="10" d="M59.97,47.614
	c0,0-10.483,80.605-8.655,88.258"/>
<path fill="none" stroke="#545454" stroke-linecap="round" stroke-linejoin="round" stroke-miterlimit="10" d="M81.765,47.614
	c0,0,12.114,77.146,10.521,87.705"/>
</svg>
