<?xml version="1.0" encoding="utf-8"?>
<!-- Generator: Adobe Illustrator 17.0.0, SVG Export Plug-In . SVG Version: 6.00 Build 0)  -->
<!DOCTYPE svg PUBLIC "-//W3C//DTD SVG 1.1//EN" "http://www.w3.org/Graphics/SVG/1.1/DTD/svg11.dtd">
<svg version="1.1" id="Layer_1" xmlns="http://www.w3.org/2000/svg" xmlns:xlink="http://www.w3.org/1999/xlink" x="0px" y="0px"
	 width="140px" height="140px" viewBox="0 0 140 140" enable-background="new 0 0 140 140" xml:space="preserve">
<path fill="none" stroke="#5B515F" stroke-linecap="round" stroke-linejoin="round" stroke-miterlimit="10" d="M53.524,47.946
	c0,0,0.928-17.631-8.352-33.87"/>
<path fill="none" stroke="#5B515F" stroke-linecap="round" stroke-linejoin="round" stroke-miterlimit="10" d="M83.302,7.117
	c0,0,9.511,0.464,10.671,6.96s2.552,48.949,2.552,48.949l-9.047,1.16l-1.856-16.239l-15.737,0.818l-16.361-0.818l-1.856,16.239
	l-9.047-1.16c0,0,1.392-42.454,2.552-48.949s10.671-6.96,10.671-6.96s-2.32-5.568,3.944-6.032s18.327,0,18.327,0
	S84.082,0.621,83.302,7.117z"/>
<path fill="none" stroke="#5B515F" stroke-linecap="round" stroke-linejoin="round" stroke-miterlimit="10" d="M85.622,47.946
	c0,0-0.928-17.631,8.352-33.87"/>
<path fill="none" stroke="#5B515F" stroke-linecap="round" stroke-linejoin="round" stroke-miterlimit="10" d="M94.711,63.238
	c0,0,22.535,50.361,25.783,60.104c-2.784,3.712-16.708,16.007-51,16.007s-48.216-12.295-51-16.007
	c3.248-9.743,25.783-60.104,25.783-60.104"/>
<path fill="none" stroke="#5B515F" stroke-linecap="round" stroke-linejoin="round" stroke-miterlimit="10" d="M56.524,2.228
	c0,0,4.275,6.28,13.049,6.048s13.266-4.803,13.266-4.803"/>
<path fill="none" stroke="#5B515F" stroke-linecap="round" stroke-linejoin="round" stroke-miterlimit="10" d="M58.567,4.402
	c0,0,11.626-3.272,21.869,0.853"/>
<path fill="none" stroke="#5B515F" stroke-linecap="round" stroke-linejoin="round" stroke-miterlimit="10" d="M55.844,7.117
	c0,0,13.39,10.439,27.458,0"/>
<line fill="none" stroke="#5B515F" stroke-linecap="round" stroke-linejoin="round" stroke-miterlimit="10" x1="70.009" y1="11.756" x2="69.885" y2="48.764"/>
<g>
	<g>
		<path fill="#5B515F" d="M66.516,20.912c1.935,0,1.935-3,0-3C64.581,17.912,64.581,20.912,66.516,20.912L66.516,20.912z"/>
	</g>
</g>
<g>
	<g>
		<path fill="#5B515F" d="M66.516,30.655c1.935,0,1.935-3,0-3C64.581,27.655,64.581,30.655,66.516,30.655L66.516,30.655z"/>
	</g>
</g>
<g>
	<g>
		<path fill="#5B515F" d="M66.516,40.399c1.935,0,1.935-3,0-3C64.581,37.399,64.581,40.399,66.516,40.399L66.516,40.399z"/>
	</g>
</g>
<path fill="none" stroke="#5B515F" stroke-linecap="round" stroke-linejoin="round" stroke-miterlimit="10" d="M59.09,48.225
	c0,0-7.653,36.608-17.861,54.935"/>
<path fill="none" stroke="#5B515F" stroke-linecap="round" stroke-linejoin="round" stroke-miterlimit="10" d="M76.26,48.433
	c0,0,4.342,38.023,17.713,54.726"/>
<path fill="none" stroke="#5B515F" stroke-linecap="round" stroke-linejoin="round" stroke-miterlimit="10" d="M67.676,48.764
	c0,0-3.712,50.219-9.975,68.082"/>
<path fill="none" stroke="#5B515F" stroke-linecap="round" stroke-linejoin="round" stroke-miterlimit="10" d="M71.158,48.698
	c0,0-3.483,59.101,2.781,68.148"/>
</svg>
