<?xml version="1.0" encoding="utf-8"?>
<!-- Generator: Adobe Illustrator 17.0.0, SVG Export Plug-In . SVG Version: 6.00 Build 0)  -->
<!DOCTYPE svg PUBLIC "-//W3C//DTD SVG 1.1//EN" "http://www.w3.org/Graphics/SVG/1.1/DTD/svg11.dtd">
<svg version="1.1" id="Layer_1" xmlns="http://www.w3.org/2000/svg" xmlns:xlink="http://www.w3.org/1999/xlink" x="0px" y="0px"
	 width="140px" height="140px" viewBox="0 0 140 140" enable-background="new 0 0 140 140" xml:space="preserve">
<path fill="none" stroke="#5A515F" stroke-linecap="round" stroke-linejoin="round" stroke-miterlimit="10" d="M66.169,3.287
	c0,0,0.825,4.771,5.226,4.771c4.4,0,5.226-4.771,5.226-4.771l1.866,1.407c0.821,0.619,0.992,1.763,0.404,2.603
	c-1.112,1.585-3.387,3.76-7.495,3.76c-4.084,0-6.426-2.42-7.596-4.201c-0.62-0.943-0.288-2.206,0.721-2.723L66.169,3.287z"/>
<path fill="none" stroke="#5A515F" stroke-linecap="round" stroke-linejoin="round" stroke-miterlimit="10" d="M66.169,3.287
	c0,0,5.638-4.771,10.451,0"/>
<path fill="none" stroke="#5A515F" stroke-linecap="round" stroke-linejoin="round" stroke-miterlimit="10" d="M78.25,8.588
	c0,0,4.692,7.649,6.067,9.149c0.275,2.863-3.64,6.816-3.676,12.268c0.101,2.999,0,4.226,0,4.226s1.366,4.089,3.69,10.905
	c2.324,6.816,3.974,20.447,5.074,28.899c1.1,8.452,3.025,27.808,5.501,33.534c1.632,3.768,12.082,2.671,15.436,5.885
	c5.537,5.303,5.109,13.555-1.135,18.107c-10.568,7.702-24.278,7.803-36.829,7.495c-12.797-0.313-27.265,0.41-38.112-7.496
	c-6.244-4.551-6.672-12.803-1.135-18.106c3.355-3.214,13.804-2.117,15.436-5.885c2.475-5.726,4.401-25.083,5.501-33.534
	c1.1-8.452,2.75-22.083,5.074-28.899s3.69-10.905,3.69-10.905s-0.101-1.227,0-4.226c-0.037-5.453-3.951-9.406-3.676-12.268
	c1.375-1.499,6.067-9.149,6.067-9.149"/>
<line fill="none" stroke="#5A515F" stroke-linecap="round" stroke-linejoin="round" stroke-miterlimit="10" x1="62.832" y1="30.005" x2="80.641" y2="30.005"/>
<line fill="none" stroke="#5A515F" stroke-linecap="round" stroke-linejoin="round" stroke-miterlimit="10" x1="62.832" y1="34.231" x2="80.641" y2="34.231"/>
<path fill="none" stroke="#5A515F" stroke-linecap="round" stroke-linejoin="round" stroke-miterlimit="10" d="M71.394,11.057
	c0,0-1.516,11.042,0.342,14.995"/>
<path fill="none" stroke="#5A515F" stroke-linecap="round" stroke-linejoin="round" stroke-miterlimit="10" d="M70.811,34.231
	c0,0-2.783,12.541,0,27.263"/>
<path fill="none" stroke="#5A515F" stroke-linecap="round" stroke-linejoin="round" stroke-miterlimit="10" d="M61.901,37.001
	c0,0,5.368,16.041,4.268,43.85s-3.311,52.448,1.645,58.122"/>
<path fill="none" stroke="#5A515F" stroke-linecap="round" stroke-linejoin="round" stroke-miterlimit="10" d="M81.212,37.001
	c0,0-5.368,16.041-4.268,43.85s3.311,52.448-1.645,58.122"/>
<path fill="none" stroke="#5A515F" stroke-linecap="round" stroke-linejoin="round" stroke-miterlimit="10" d="M48.567,107.569
	c0,0,8.025,16.746-12.81,25.003"/>
<path fill="none" stroke="#5A515F" stroke-linecap="round" stroke-linejoin="round" stroke-miterlimit="10" d="M94.483,107.569
	c0,0-8.025,16.746,12.81,25.003"/>
</svg>
