<?xml version="1.0" encoding="utf-8"?>
<!-- Generator: Adobe Illustrator 17.0.0, SVG Export Plug-In . SVG Version: 6.00 Build 0)  -->
<!DOCTYPE svg PUBLIC "-//W3C//DTD SVG 1.1//EN" "http://www.w3.org/Graphics/SVG/1.1/DTD/svg11.dtd">
<svg version="1.1" id="Layer_1" xmlns="http://www.w3.org/2000/svg" xmlns:xlink="http://www.w3.org/1999/xlink" x="0px" y="0px"
	 width="140px" height="140px" viewBox="0 0 140 140" enable-background="new 0 0 140 140" xml:space="preserve">
<polyline fill="none" stroke="#59515F" stroke-linecap="round" stroke-linejoin="round" stroke-miterlimit="10" points="
	109.62,138.833 31.047,138.833 31.047,18.539 39.752,15.066 "/>
<path fill="none" stroke="#59515F" stroke-linecap="round" stroke-linejoin="round" stroke-miterlimit="10" d="M69.986,52.959
	c-20.513-8.344-30.234-37.893-30.234-37.893s-0.361,27.463,10.417,47.975C56.079,60.608,66.857,54.349,69.986,52.959
	C72.072,53.306,69.986,52.959,69.986,52.959"/>
<path fill="none" stroke="#59515F" stroke-linecap="round" stroke-linejoin="round" stroke-miterlimit="10" d="M69.882,52.959
	c20.513-8.344,30.234-37.893,30.234-37.893s0.361,27.463-10.417,47.975C83.789,60.608,73.011,54.349,69.882,52.959
	C67.796,53.306,69.882,52.959,69.882,52.959"/>
<line fill="none" stroke="#59515F" stroke-linecap="round" stroke-linejoin="round" stroke-miterlimit="10" x1="65.292" y1="138.833" x2="65.292" y2="55.37"/>
<line fill="none" stroke="#59515F" stroke-linecap="round" stroke-linejoin="round" stroke-miterlimit="10" x1="75.983" y1="138.833" x2="75.983" y2="56.469"/>
<polyline fill="none" stroke="#59515F" stroke-linecap="round" stroke-linejoin="round" stroke-miterlimit="10" points="
	31.047,93.723 60.077,93.723 60.077,109.108 50.69,118.495 31.047,118.495 "/>
<polyline fill="none" stroke="#59515F" stroke-linecap="round" stroke-linejoin="round" stroke-miterlimit="10" points="
	55.384,113.801 60.077,117.452 60.077,138.833 "/>
<circle fill="none" stroke="#59515F" stroke-linecap="round" stroke-linejoin="round" stroke-miterlimit="10" cx="39.737" cy="113.801" r="2.174"/>
<circle fill="none" stroke="#59515F" stroke-linecap="round" stroke-linejoin="round" stroke-miterlimit="10" cx="49.778" cy="113.801" r="2.174"/>
<circle fill="none" stroke="#59515F" stroke-linecap="round" stroke-linejoin="round" stroke-miterlimit="10" cx="69.986" cy="113.801" r="2.174"/>
<circle fill="none" stroke="#59515F" stroke-linecap="round" stroke-linejoin="round" stroke-miterlimit="10" cx="69.986" cy="77.757" r="2.174"/>
<circle fill="none" stroke="#59515F" stroke-linecap="round" stroke-linejoin="round" stroke-miterlimit="10" cx="69.986" cy="56.469" r="2.174"/>
<path fill="none" stroke="#59515F" stroke-linecap="round" stroke-linejoin="round" stroke-miterlimit="10" d="M100.581,15.41"/>
<path fill="none" stroke="#59515F" stroke-linecap="round" stroke-linejoin="round" stroke-miterlimit="10" d="M39.752,15.066
	c0,0,3.272-13.649,15.58-13.649s14.654,0,14.654,0"/>
<path fill="none" stroke="#59515F" stroke-linecap="round" stroke-linejoin="round" stroke-miterlimit="10" d="M100.233,15.066
	c0,0-3.272-13.649-15.58-13.649s-14.654,0-14.654,0"/>
<path fill="none" stroke="#59515F" stroke-linecap="round" stroke-linejoin="round" stroke-miterlimit="10" d="M41.661,19.976
	c1.938-4.039,5.982-9.563,14.012-9.563c12.307,0,14.654,0,14.654,0"/>
<path fill="none" stroke="#59515F" stroke-linecap="round" stroke-linejoin="round" stroke-miterlimit="10" d="M98.465,18.95
	c-2.171-3.875-6.278-8.538-13.471-8.538c-12.307,0-14.654,0-14.654,0"/>
<path fill="none" stroke="#59515F" stroke-linecap="round" stroke-linejoin="round" stroke-miterlimit="10" d="M100.116,15.066"/>
<line fill="none" stroke="#59515F" stroke-linecap="round" stroke-linejoin="round" stroke-miterlimit="10" x1="31.047" y1="35.575" x2="40.703" y2="29.662"/>
<polyline fill="none" stroke="#59515F" stroke-linecap="round" stroke-linejoin="round" stroke-miterlimit="10" points="
	31.047,138.833 109.62,138.833 109.62,18.539 100.915,15.066 "/>
<line fill="none" stroke="#59515F" stroke-linecap="round" stroke-linejoin="round" stroke-miterlimit="10" x1="109.62" y1="35.575" x2="99.458" y2="29.208"/>
</svg>
