<?xml version="1.0" encoding="utf-8"?>
<!-- Generator: Adobe Illustrator 17.0.0, SVG Export Plug-In . SVG Version: 6.00 Build 0)  -->
<!DOCTYPE svg PUBLIC "-//W3C//DTD SVG 1.1//EN" "http://www.w3.org/Graphics/SVG/1.1/DTD/svg11.dtd">
<svg version="1.1" id="Layer_1" xmlns="http://www.w3.org/2000/svg" xmlns:xlink="http://www.w3.org/1999/xlink" x="0px" y="0px"
	 width="140px" height="140px" viewBox="0 0 140 140" enable-background="new 0 0 140 140" xml:space="preserve">
<path fill="none" stroke="#5A515F" stroke-linecap="round" stroke-linejoin="round" stroke-miterlimit="10" d="M74.426,4.785
	c0,0-22.183-5.865-31.618-2.805S30.314,14.22,58.617,20.339c13.636-0.593,32.694-4.859,39.168-8.667
	c2.91-1.711,2.854-2.964-0.491-4.259C92.027,5.375,83.855,4.128,74.426,4.785z"/>
<path fill="none" stroke="#5A515F" stroke-linecap="round" stroke-linejoin="round" stroke-miterlimit="10" d="M37.933,11.936
	c0,0,8.19-11.35,31.903-1.218c0,0,26.577-3.388,23.615,2.989"/>
<path fill="none" stroke="#5A515F" stroke-linecap="round" stroke-linejoin="round" stroke-miterlimit="10" d="M36.141,7.845
	c0,0-1.492,2.167-1.62,9.307c-1.026,3.077-3.415,9.289-4.625,12.406c-0.485,1.25-0.728,2.568-0.721,3.909
	c0.033,6.173,0.074,20.955-1.436,30.985c-0.588,3.901-0.783,7.851-0.684,11.795l1.092,43.789c2.677,4.462,4.717,6.63,5.1,6.63
	c3.57,0.51,21.546,0.637,21.546,0.637c2.677-0.637,7.267-0.382,8.032-7.012c0.765-6.63,1.785-10.327,2.422-13.132
	c0.637-2.805,1.673-8.545,1.53-12.749c-0.146-4.288,1.402-4.08,2.295,0.127c0.892,4.207,8.542,21.546,7.012,36.59
	c1.637,1.728,6.715,5.274,9.49,7.164c1.206,0.821,2.653,1.193,4.106,1.056c4.411-0.416,13.996-1.498,16.62-3.248
	c3.442-2.295,9.052-6.247,9.052-6.247s-5.907-43.644-5.907-65.063s-2.89-40.797-7.989-45.557c-0.349-1.511-0.618-6.279-0.753-9.145
	c-0.062-1.304-1.049-2.369-2.343-2.538"/>
<path fill="none" stroke="#5A515F" stroke-linecap="round" stroke-linejoin="round" stroke-miterlimit="10" d="M34.521,17.152
	c0,0,11.857,11.772,22.566,12.452c10.709,0.68,39.947-2.38,44.367-10.369"/>
<line fill="none" stroke="#5A515F" stroke-linecap="round" stroke-linejoin="round" stroke-miterlimit="10" x1="51.614" y1="18.588" x2="51.614" y2="28.411"/>
<polyline fill="none" stroke="#5A515F" stroke-linecap="round" stroke-linejoin="round" stroke-miterlimit="10" points="
	51.614,21.274 62.357,22.294 62.357,28.411 51.614,27.054 "/>
<line fill="none" stroke="#5A515F" stroke-linecap="round" stroke-linejoin="round" stroke-miterlimit="10" x1="40.087" y1="13.707" x2="40.087" y2="21.88"/>
<line fill="none" stroke="#5A515F" stroke-linecap="round" stroke-linejoin="round" stroke-miterlimit="10" x1="76.121" y1="18.186" x2="77.043" y2="28.411"/>
<path fill="none" stroke="#5A515F" stroke-linecap="round" stroke-linejoin="round" stroke-miterlimit="10" d="M57.087,29.604
	l-1.122,37.057c0,0,8.873,1.87,9.077-7.139c0.204-9.009,0-29.826,0-29.826v-9.857"/>
<path fill="none" stroke="#5A515F" stroke-linecap="round" stroke-linejoin="round" stroke-miterlimit="10" d="M55.966,66.661
	c0,0,5.111,19.184,12.211,25.231"/>
<line fill="none" stroke="#5A515F" stroke-linecap="round" stroke-linejoin="round" stroke-miterlimit="10" x1="60.55" y1="25.354" x2="51.614" y2="24.419"/>
</svg>
