<?xml version="1.0" encoding="utf-8"?>
<!-- Generator: Adobe Illustrator 17.0.0, SVG Export Plug-In . SVG Version: 6.00 Build 0)  -->
<!DOCTYPE svg PUBLIC "-//W3C//DTD SVG 1.1//EN" "http://www.w3.org/Graphics/SVG/1.1/DTD/svg11.dtd">
<svg version="1.1" id="Layer_1" xmlns="http://www.w3.org/2000/svg" xmlns:xlink="http://www.w3.org/1999/xlink" x="0px" y="0px"
	 width="140px" height="140px" viewBox="0 0 140 140" enable-background="new 0 0 140 140" xml:space="preserve">
<path fill="none" stroke="#5A515F" stroke-linecap="round" stroke-linejoin="round" stroke-miterlimit="10" d="M69.866,1.052
	c-3.462,0.402-12.199,2.788-15.685,9.759c-4.183,0.697-11.502-0.697-16.033,2.44c-2.788,2.527-6.187,3.311-7.755,3.573
	c-1.568,0.261-9.672,3.137,0,10.718c2.353,1.568,2.353,2.353,1.046,5.228s-3.66,8.365,2.091,7.581s10.493-7.581,14.265-8.365
	s7.171-11.502,5.864-14.116c0,0-3.66-3.137,0.523-2.876c4.183,0.261,11.763,2.091,10.979-1.307c-0.784-3.398-3.137-3.66-2.353-5.751
	c0.784-2.091,4.183-5.228,9.672-3.137s11.241,3.137,6.797,7.581c-4.444,4.444,5.49,2.614,8.365,2.091
	c0.523,2.353-3.398,13.332,3.398,20.39s9.672,11.502,13.855,7.058s4.705-10.456,10.456-8.104c3.137,1.307,5.49-2.875,0-8.365
	s-7.581-6.012-12.809-8.365c-5.228-2.353-8.104-0.784-13.07-8.627c-3.137-3.921-4.967-2.614-8.365-5.228
	C77.708,0.616,72.079,0.795,69.866,1.052z"/>
<path fill="none" stroke="#5A515F" stroke-linecap="round" stroke-linejoin="round" stroke-miterlimit="10" d="M65.161,13.687
	c0,0,5.639,4.553,13.145,0.969"/>
<path fill="none" stroke="#5A515F" stroke-linecap="round" stroke-linejoin="round" stroke-miterlimit="10" d="M56.568,15.232
	c0,0,3.103,7.865,7.286,9.434c1.307,1.046,8.104-8.382,11.241-8.635"/>
<path fill="none" stroke="#5A515F" stroke-linecap="round" stroke-linejoin="round" stroke-miterlimit="10" d="M79.809,15.232"/>
<polyline fill="none" stroke="#5A515F" stroke-linecap="round" stroke-linejoin="round" stroke-miterlimit="10" points="
	87.008,22.307 78.306,31.201 75.094,31.201 75.094,27.28 80.453,21.137 79.146,19.99 71.733,27.019 68.559,26.932 69.082,23.228 
	79.029,15.078 "/>
<path fill="none" stroke="#5A515F" stroke-linecap="round" stroke-linejoin="round" stroke-miterlimit="10" d="M30.151,39.381
	c0,0-11.521,18.484-13.612,82.617c0,0,10.108,3.834,17.079,0c0-4.531-2.44-31.369,2.44-45.659
	c2.788-11.502,4.531-19.519,5.228-21.958c0.697-2.44,1.743-3.137,1.743,1.046s0.697,11.502,0,19.17
	c-0.697,7.668-5.228,16.382-1.743,23.004c1.525,3.05,1.715,6.366-0.362,9.716c-0.757,1.221-1.108,2.648-1.137,4.085
	c-0.111,5.521,0.013,14.944-2.335,21.402c0.697,4.531,13.835,5.925,19.116,4.531c4.933,2.091,36.999,3.126,46.062,0.517
	c0.782-2.245-1.632-20.936-2.091-24.916c-1.046-9.062,0.349-11.153,0.697-16.73c0.349-5.577,1.028-15.822-0.697-19.519
	c-1.22-2.614,1.22-4.008,2.511,0.349c0,0,4.566,35.721,1.323,48.448c2.266,0.523,16.556,1.917,18.996,0.523
	c0-2.091,1.957-56.899-12.005-92.321"/>
<path fill="none" stroke="#5A515F" stroke-linecap="round" stroke-linejoin="round" stroke-miterlimit="10" d="M59.033,19.99
	c0,0-4.785,103.75-2.465,117.344"/>
<line fill="none" stroke="#5A515F" stroke-linecap="round" stroke-linejoin="round" stroke-miterlimit="10" x1="105.502" y1="108.603" x2="123.348" y2="108.603"/>
<line fill="none" stroke="#5A515F" stroke-linecap="round" stroke-linejoin="round" stroke-miterlimit="10" x1="105.502" y1="114.671" x2="123.348" y2="114.671"/>
<line fill="none" stroke="#5A515F" stroke-linecap="round" stroke-linejoin="round" stroke-miterlimit="10" x1="17.446" y1="103.864" x2="33.011" y2="103.864"/>
<line fill="none" stroke="#5A515F" stroke-linecap="round" stroke-linejoin="round" stroke-miterlimit="10" x1="17" y1="111.189" x2="33.011" y2="111.189"/>
<polyline fill="none" stroke="#5A515F" stroke-linecap="round" stroke-linejoin="round" stroke-miterlimit="10" points="
	43.337,67.537 54.181,69.89 54.181,99.952 41.285,97.599 "/>
<line fill="none" stroke="#5A515F" stroke-linecap="round" stroke-linejoin="round" stroke-miterlimit="10" x1="54.181" y1="75.902" x2="43.151" y2="73.024"/>
<polyline fill="none" stroke="#5A515F" stroke-linecap="round" stroke-linejoin="round" stroke-miterlimit="10" points="
	99.369,75.054 87.293,77.217 87.293,102.043 100.189,100.1 "/>
<line fill="none" stroke="#5A515F" stroke-linecap="round" stroke-linejoin="round" stroke-miterlimit="10" x1="87.293" y1="83.495" x2="101.337" y2="79.83"/>
<path fill="none" stroke="#5A515F" stroke-linecap="round" stroke-linejoin="round" stroke-miterlimit="10" d="M100.824,99.952"/>
<circle fill="#5A515F" cx="119.519" cy="111.637" r="2.106"/>
<circle fill="#5A515F" cx="20.793" cy="107.526" r="2.106"/>
<circle fill="#5A515F" cx="63.054" cy="97.846" r="2.564"/>
<circle fill="#5A515F" cx="63.592" cy="74.463" r="2.564"/>
<circle fill="#5A515F" cx="64.115" cy="51.08" r="2.564"/>
<circle fill="#5A515F" cx="80.845" cy="51.08" r="2.564"/>
<circle fill="#5A515F" cx="79.748" cy="75.054" r="2.564"/>
<circle fill="#5A515F" cx="78.964" cy="97.846" r="2.564"/>
</svg>
