<?xml version="1.0" encoding="utf-8"?>
<!-- Generator: Adobe Illustrator 17.0.0, SVG Export Plug-In . SVG Version: 6.00 Build 0)  -->
<!DOCTYPE svg PUBLIC "-//W3C//DTD SVG 1.1//EN" "http://www.w3.org/Graphics/SVG/1.1/DTD/svg11.dtd">
<svg version="1.1" id="Layer_1" xmlns="http://www.w3.org/2000/svg" xmlns:xlink="http://www.w3.org/1999/xlink" x="0px" y="0px"
	 width="140px" height="140px" viewBox="0 0 140 140" enable-background="new 0 0 140 140" xml:space="preserve">
<path fill="none" stroke="#5A515F" stroke-linecap="round" stroke-linejoin="round" stroke-miterlimit="10" d="M63.737,12.664
	c-21.164,0.476,9.036,27.584,9.036,27.584s21.402-27.584,6.183-27.584S63.737,12.664,63.737,12.664z"/>
<path fill="none" stroke="#5A515F" stroke-linecap="round" stroke-linejoin="round" stroke-miterlimit="10" d="M67.025,34.593
	c0,0,0.21,3.991-10.813,7.083c0,0-9.121-14.88,0.081-25.085"/>
<path fill="none" stroke="#5A515F" stroke-linecap="round" stroke-linejoin="round" stroke-miterlimit="10" d="M79.102,30.92
	c0,0,8.177,6.238,12.219,7.427V25.238c0-1.543-0.553-3.03-1.565-4.193c-1.53-1.758-3.887-4.346-5.707-5.801"/>
<path fill="none" stroke="#5A515F" stroke-linecap="round" stroke-linejoin="round" stroke-miterlimit="10" d="M52.859,22.73
	c0,0-7.842,6.62-18.032,8.655c-3.201,0.639-6.189,2.066-8.747,4.093C18.744,41.293,5.603,51.975,2.861,53.803
	c-0.427,0.582-0.848,1.627-1.191,3.048c-0.08,0.329-0.155,0.679-0.225,1.047C0.141,64.739,0.582,78.16,8.45,91.243
	c1.952,3.247,5.297,5.455,9.067,5.828c2.706,0.268,5.743,0.765,9.354,2.152c6.428,1.665,11.898,1.427,16.416,1.427
	c2.14-4.994,6.896-17.597,6.896-17.597S32.585,75.376,20.22,69.94S4.048,61.131,1.67,56.851"/>
<path fill="none" stroke="#5A515F" stroke-linecap="round" stroke-linejoin="round" stroke-miterlimit="10" d="M33.019,100.333
	v16.095c0,2.057,1.225,3.935,3.135,4.702c4.316,1.733,13.596,3.825,30.872,1.159c0,0,7.947,4.614,39.819-3.687
	c2.337-0.609,3.976-2.708,4.012-5.123c0.081-5.286,0.337-14.375,1.152-18.775c0-3.805,0.951-2.616,1.427,1.189
	s0.713,8.323,2.616,13.317c1.902,4.994,3.329,10.167,3.805,14.358c4.518-0.09,19.262-1.516,19.262-1.516s-1.189-26.158-1.902-42.09
	c-0.713-15.932-3.805-43.123-45.895-57.231"/>
<path fill="none" stroke="#5A515F" stroke-linecap="round" stroke-linejoin="round" stroke-miterlimit="10" d="M105.827,63.315
	c0,0,6.849,7.47,6.754,29.179"/>
<path fill="none" stroke="#5A515F" stroke-linecap="round" stroke-linejoin="round" stroke-miterlimit="10" d="M72.773,40.249
	c0,0-6.025,4.28-5.747,11.176c0.278,6.896,0,70.863,0,70.863"/>
<path fill="none" stroke="#5A515F" stroke-linecap="round" stroke-linejoin="round" stroke-miterlimit="10" d="M72.773,123.457
	c0,0-0.238-70.605,0-73.696c1.902-3.091,10.337-15.971,10.337-15.971"/>
<path fill="none" stroke="#5A515F" stroke-linecap="round" stroke-linejoin="round" stroke-miterlimit="10" d="M80.145,69.94h19.262
	v11.329c0,2.692-2.183,4.875-4.875,4.875H85.02c-2.692,0-4.875-2.183-4.875-4.875V69.94z"/>
<rect x="85.212" y="74.016" fill="none" stroke="#5A515F" stroke-linecap="round" stroke-linejoin="round" stroke-miterlimit="10" width="6.11" height="6.11"/>
<path fill="none" stroke="#5A515F" stroke-linecap="round" stroke-linejoin="round" stroke-miterlimit="10" d="M57.855,22.73
	c0,0,14.902-5.629,25.254,0"/>
<path fill="none" stroke="#5A515F" stroke-linecap="round" stroke-linejoin="round" stroke-miterlimit="10" d="M38.53,53.803
	c0,0,5.823,14.436-10.999,19.345"/>
</svg>
