<?xml version="1.0" encoding="utf-8"?>
<!-- Generator: Adobe Illustrator 17.0.0, SVG Export Plug-In . SVG Version: 6.00 Build 0)  -->
<!DOCTYPE svg PUBLIC "-//W3C//DTD SVG 1.1//EN" "http://www.w3.org/Graphics/SVG/1.1/DTD/svg11.dtd">
<svg version="1.1" id="Layer_1" xmlns="http://www.w3.org/2000/svg" xmlns:xlink="http://www.w3.org/1999/xlink" x="0px" y="0px"
	 width="140px" height="140px" viewBox="0 0 140 140" enable-background="new 0 0 140 140" xml:space="preserve">
<path fill="none" stroke="#5A515F" stroke-linecap="round" stroke-linejoin="round" stroke-miterlimit="10" d="M61.674,0.61
	l-1.69,16.219c-5.744-0.845-13.516,3.379-13.516,3.379l3.21-11.489L61.674,0.61c0,0,9.461,2.196,17.402,0l11.996,8.785l2.365,10.137
	c0,0-7.096-3.548-13.685-2.872L79.076,0.61"/>
<line fill="none" stroke="#5A515F" stroke-linecap="round" stroke-linejoin="round" stroke-miterlimit="10" x1="61.256" y1="4.621" x2="79.245" y2="4.621"/>
<path fill="none" stroke="#5A515F" stroke-linecap="round" stroke-linejoin="round" stroke-miterlimit="10" d="M48.517,12.875
	c0,0-7.793,0.237-9.483,8.516s-14.868,80.928-14.868,80.928s3.379,6.082,13.009,2.365c0.845-3.379,7.603-45.955,9.292-47.813
	c0.709,0,1.418,4.641,2.626,6.633c0.436,0.719,0.656,1.543,0.561,2.379c-0.352,3.07-0.822,7.884-0.822,7.884
	s-6.42,18.754-6.927,28.891c-1.69,9.292-5.575,22.133-4.9,28.384c2.272,1.46,23.559,9.623,40.358,8.02
	c0.944-0.09,1.843-0.562,2.331-1.375c0.432-0.719,1.499-1.501,4.11-1.408c4.731,0.169,17.909-3.379,19.598-5.744
	c0.163-3.579-5.314-42.717-11.151-56.627c-0.485-1.155-0.311-2.478,0.427-3.489l0.041-0.057c1.507-2.037,4.77-1.112,5.16,1.392
	c1.225,7.862,4.65,31.342,5.526,33.1c3.038,1.183,8.782,3.041,13.006-2.872c-0.154-2.61-12.726-69.688-15.018-81.901
	c-0.277-1.475-1.074-2.794-2.266-3.706c-1.439-1.101-3.768-2.485-7.246-3.498"/>
<path fill="none" stroke="#5A515F" stroke-linecap="round" stroke-linejoin="round" stroke-miterlimit="10" d="M49.655,65.882
	l15.229,0.957c0,0,0.887-6.082,2.577-7.096c1.858,0.676,8.067,4.562,10.095,7.096c1.858,0.169,6.589,0,6.589,0
	s7.434-6.42,11.151-5.575c2.027,1.352,4.362,7.254,1.758,8.865"/>
<polyline fill="none" stroke="#5A515F" stroke-linecap="round" stroke-linejoin="round" stroke-miterlimit="10" points="
	48.914,72.946 76.542,72.946 92.008,72.946 "/>
<path fill="none" stroke="#5A515F" stroke-linecap="round" stroke-linejoin="round" stroke-miterlimit="10" d="M84.144,66.839v6.107
	c0,0-0.169,32.076,1.183,33.428c1.352,1.352,6.681,2.514,6.681,2.514s-0.261-20.253-1.274-23.632
	c-1.014-3.379-3.21-10.594-4.9-12.309"/>
<path fill="none" stroke="#5A515F" stroke-linecap="round" stroke-linejoin="round" stroke-miterlimit="10" d="M64.884,66.839
	c0,0,3.21,6.107,11.658,6.107c0,0-3.886,4.537-4.224,11.126c-0.338,6.589-3.207,23.822-1.857,24.667s7.094-2.196,7.094-2.196V72.946
	v-6.107"/>
<polyline fill="none" stroke="#5A515F" stroke-linecap="round" stroke-linejoin="round" stroke-miterlimit="10" points="
	43.523,92.41 47.82,99.109 54.916,92.41 57.957,77.652 48.294,75.39 "/>
<path fill="none" stroke="#5A515F" stroke-linecap="round" stroke-linejoin="round" stroke-miterlimit="10" d="M42.083,15.655
	c0,0,6.243,17.731,2.695,37.837c0.169,2.703,1.69,3.379,1.69,3.379"/>
<path fill="none" stroke="#5A515F" stroke-linecap="round" stroke-linejoin="round" stroke-miterlimit="10" d="M97.433,15.237
	c0,0-4.335,26.766-2.645,39.1c-0.845,2.872-3.365,4.391-2.781,7.433"/>
<path fill="none" stroke="#5A515F" stroke-linecap="round" stroke-linejoin="round" stroke-miterlimit="10" d="M94.788,54.337
	c0,0,1.183,3.21,0.507,6.927"/>
<path fill="none" stroke="#5A515F" stroke-linecap="round" stroke-linejoin="round" stroke-miterlimit="10" d="M44.887,54.337
	c0,0,9.353-2.872,17.97,0"/>
<path fill="none" stroke="#5A515F" stroke-linecap="round" stroke-linejoin="round" stroke-miterlimit="10" d="M94.677,53.404
	c0,0-13.405-1.696-15.432,0.294"/>
<polyline fill="none" stroke="#5A515F" stroke-linecap="round" stroke-linejoin="round" stroke-miterlimit="10" points="
	59.984,16.829 79.245,55.181 53.226,34.147 62.55,21.938 "/>
<polyline fill="none" stroke="#5A515F" stroke-linecap="round" stroke-linejoin="round" stroke-miterlimit="10" points="
	61.256,19.362 50.74,29.839 53.873,32.997 "/>
<path fill="none" stroke="#5A515F" stroke-linecap="round" stroke-linejoin="round" stroke-miterlimit="10" d="M70.25,37.271
	C70.24,37.241,70.239,37.301,70.25,37.271c1.384-3.62,8.603-19.054,8.603-19.054"/>
<path fill="none" stroke="#5A515F" stroke-linecap="round" stroke-linejoin="round" stroke-miterlimit="10" d="M79.752,16.66
	c0,0-6.406,5.575,12.256,16.05l-13.994,20.02"/>
<circle fill="#5A515F" cx="64.208" cy="90.83" r="2.027"/>
<circle fill="#5A515F" cx="28.559" cy="98.264" r="2.027"/>
<circle fill="#5A515F" cx="112.021" cy="98.264" r="2.027"/>
<path fill="none" stroke="#5A515F" stroke-miterlimit="10" d="M24.535,100.291c0,0,5.319,3.169,13.204,1.5"/>
<path fill="none" stroke="#5A515F" stroke-miterlimit="10" d="M25.676,94.007c0,0,3.763,2.736,13.038,2.229"/>
<path fill="none" stroke="#5A515F" stroke-miterlimit="10" d="M101.691,96.237c0,0,8.845-0.066,13.389-2.229"/>
<path fill="none" stroke="#5A515F" stroke-miterlimit="10" d="M102.769,102.277c0,0,7.917,0.549,13.4-1.986"/>
<path fill="none" stroke="#5A515F" stroke-linecap="round" stroke-miterlimit="10" d="M80.258,97.25c0,0-0.879,32.495,0.996,39.309"
	/>
</svg>
