<?xml version="1.0" encoding="utf-8"?>
<!-- Generator: Adobe Illustrator 17.0.0, SVG Export Plug-In . SVG Version: 6.00 Build 0)  -->
<!DOCTYPE svg PUBLIC "-//W3C//DTD SVG 1.1//EN" "http://www.w3.org/Graphics/SVG/1.1/DTD/svg11.dtd">
<svg version="1.1" id="Layer_1" xmlns="http://www.w3.org/2000/svg" xmlns:xlink="http://www.w3.org/1999/xlink" x="0px" y="0px"
	 width="140px" height="140px" viewBox="0 0 140 140" enable-background="new 0 0 140 140" xml:space="preserve">
<path fill="none" stroke="#5A515F" stroke-linecap="round" stroke-linejoin="round" stroke-miterlimit="10" d="M82.641,0.813H59.231
	c0,0-11.792,8.497,10.752,20.636c1.561-1.04,5.549-8.497,9.364-5.029C82.641,12.258,87.844,4.454,82.641,0.813z"/>
<path fill="none" stroke="#5A515F" stroke-linecap="round" stroke-linejoin="round" stroke-miterlimit="10" d="M57.149,3.215
	c0,0-10.751,12.511-4.508,18.927c3.988,0.173,9.7-1.125,10.399-5.071"/>
<path fill="none" stroke="#5A515F" stroke-linecap="round" stroke-linejoin="round" stroke-miterlimit="10" d="M79.346,16.42
	c0,0,2.775,6.936,10.752,5.029c0.867-4.856,3.12-10.978-6.157-19.362"/>
<path fill="none" stroke="#5A515F" stroke-linecap="round" stroke-linejoin="round" stroke-miterlimit="10" d="M56.382,8.632
	c0,0,14.608-6.573,27.717,0"/>
<path fill="none" stroke="#5A515F" stroke-linecap="round" stroke-linejoin="round" stroke-miterlimit="10" d="M52.466,9.939
	L33.913,18.5c0,0-7.457,1.04-10.058,13.7s-4.682,18.555-3.815,22.89c1.908,0.52,20.636,5.549,20.636,5.549s0.694-12.486-8.15-33.295
	"/>
<path fill="none" stroke="#5A515F" stroke-linecap="round" stroke-linejoin="round" stroke-miterlimit="10" d="M90.979,11.13
	l12.265,5.298c1.835,0.793,3.702,1.523,5.631,2.045c2.089,0.564,5.859,2.499,7.148,9.132c1.821,9.364,5.609,19.509,4.942,30.174
	c-3.382,0.52-17.948,4.422-20.289,2.861c0.52-4.682,1.561-21.59,9.364-30.174"/>
<path fill="none" stroke="#5A515F" stroke-linecap="round" stroke-linejoin="round" stroke-miterlimit="10" d="M40.359,54.972
	c0,0,5.493,24.916,0,45.986s-6.561,31.214-4.206,33.815c5.476,2.601,43.974,8.064,71.286,0c1.561-3.121-2.601-22.37-5.462-34.596
	s-5.089-35.364-0.984-42.653"/>
<circle fill="#5A515F" cx="69.805" cy="43.537" r="2.211"/>
<circle fill="#5A515F" cx="69.977" cy="34.744" r="2.211"/>
<circle fill="#5A515F" cx="69.982" cy="25.669" r="2.211"/>
</svg>
