<?xml version="1.0" encoding="utf-8"?>
<!-- Generator: Adobe Illustrator 17.0.0, SVG Export Plug-In . SVG Version: 6.00 Build 0)  -->
<!DOCTYPE svg PUBLIC "-//W3C//DTD SVG 1.1//EN" "http://www.w3.org/Graphics/SVG/1.1/DTD/svg11.dtd">
<svg version="1.1" id="Layer_1" xmlns="http://www.w3.org/2000/svg" xmlns:xlink="http://www.w3.org/1999/xlink" x="0px" y="0px"
	 width="140px" height="140px" viewBox="0 0 140 140" enable-background="new 0 0 140 140" xml:space="preserve">
<path fill="none" stroke="#5A515F" stroke-linecap="round" stroke-linejoin="round" stroke-miterlimit="10" d="M82.748,0.635
	l4.38,3.126c0,0-2.118,9.237,0.237,15.273c0.602,1.543,1.003,3.149,1.067,4.803c0.248,6.435,0.871,18.247-1.654,23.694
	c-0.35,2.258-0.35,5.037-0.35,5.037s5.081,5.037,4.906,9.727c-0.158,4.234,0.683,22.056-2.374,33.789
	c-0.778,2.985-1.174,6.055-1.256,9.137c-0.188,7.014-0.562,14.442-1.801,19.082c0.175,6.774,2.103,13.548-0.876,14.938
	c-3.154,0.174-9.812,0.868-10.688-1.911c-0.876-2.779,0-33.523-1.402-42.033c0,0,0.06-7.945-0.521-11.116
	c-0.815-4.443-2.453-5.384-2.453-2.084c0,3.3,0,4.69-1.402,13.201c-1.402,8.511-0.526,39.254-1.402,42.033
	c-0.876,2.779-7.534,2.084-10.688,1.911c-2.979-1.39-1.051-8.164-0.876-14.938c-1.239-4.64-1.613-12.068-1.801-19.082
	c-0.083-3.082-0.478-6.152-1.256-9.137c-3.058-11.732-2.216-29.555-2.374-33.789c-0.175-4.69,4.906-9.727,4.906-9.727
	s0-2.779-0.35-5.037c-2.525-5.447-1.902-17.26-1.654-23.694c0.064-1.653,0.465-3.26,1.067-4.803
	c2.354-6.037,0.237-15.273,0.237-15.273l4.38-3.126c0,0,4.551,8.337,12,8.337S82.748,0.635,82.748,0.635z"/>
<path fill="none" stroke="#5A515F" stroke-linecap="round" stroke-linejoin="round" stroke-miterlimit="10" d="M61.261,4.068
	c0,0,3.969,8.726,10.277,8.726c6.308,0,9.27-9.393,9.27-9.393"/>
<line fill="none" stroke="#5A515F" stroke-linecap="round" stroke-linejoin="round" stroke-miterlimit="10" x1="54.718" y1="47.532" x2="86.778" y2="47.532"/>
<line fill="none" stroke="#5A515F" stroke-linecap="round" stroke-linejoin="round" stroke-miterlimit="10" x1="55.068" y1="52.569" x2="86.428" y2="52.569"/>
<path fill="none" stroke="#5A515F" stroke-linecap="round" stroke-linejoin="round" stroke-miterlimit="10" d="M59.449,52.569
	c0,0,0.35,10.074-9.287,9.727"/>
<path fill="none" stroke="#5A515F" stroke-linecap="round" stroke-linejoin="round" stroke-miterlimit="10" d="M81.703,52.569
	c0,0-0.35,10.074,9.287,9.727"/>
<path fill="none" stroke="#5A515F" stroke-linecap="round" stroke-linejoin="round" stroke-miterlimit="10" d="M75.218,52.569
	c0,0-0.35,20.322,2.628,27.096"/>
<path fill="none" stroke="#5A515F" stroke-linecap="round" stroke-linejoin="round" stroke-miterlimit="10" d="M64.88,52.569
	c0,0,0.35,17.196-2.453,24.317"/>
<path fill="none" stroke="#5A515F" stroke-linecap="round" stroke-linejoin="round" stroke-miterlimit="10" d="M68.385,52.569
	c0,0,0,18.932-1.227,24.317"/>
<path fill="none" stroke="#5A515F" stroke-linecap="round" stroke-linejoin="round" stroke-miterlimit="10" d="M71.881,52.569
	c0,0,1.756,23.407-1.133,27.596"/>
<path fill="none" stroke="#5A515F" stroke-linecap="round" stroke-linejoin="round" stroke-miterlimit="10" d="M66.107,47.532
	c0,0-4.191-13.027-2.446-22.233"/>
<path fill="none" stroke="#5A515F" stroke-linecap="round" stroke-linejoin="round" stroke-miterlimit="10" d="M75.205,47.532
	c0,0,6.145-12.506,4.568-20.496"/>
<path fill="none" stroke="#5A515F" stroke-linecap="round" stroke-linejoin="round" stroke-miterlimit="10" d="M72.409,12.726
	c0,0-0.356,21.258,0,28.032"/>
</svg>
