<?xml version="1.0" encoding="utf-8"?>
<!-- Generator: Adobe Illustrator 17.0.0, SVG Export Plug-In . SVG Version: 6.00 Build 0)  -->
<!DOCTYPE svg PUBLIC "-//W3C//DTD SVG 1.1//EN" "http://www.w3.org/Graphics/SVG/1.1/DTD/svg11.dtd">
<svg version="1.1" id="Layer_1" xmlns="http://www.w3.org/2000/svg" xmlns:xlink="http://www.w3.org/1999/xlink" x="0px" y="0px"
	 width="140px" height="140px" viewBox="0 0 140 140" enable-background="new 0 0 140 140" xml:space="preserve">
<path fill="none" stroke="#5A515F" stroke-linecap="round" stroke-linejoin="round" stroke-miterlimit="10" d="M114.279,130.8
	c3.983-14.318-15.428-52.482-19.251-59.375C91.205,64.533,87.05,57.64,87.05,57.64l0.667-3.603l1.362-0.699
	c0,0,4.927-15.702,7.536-23.981c0-11.134,5.797-14.274,6.377-17.415S87.05,4.805,87.05,4.805s-4.572,4.218-16.214,4.218
	S54.622,4.805,54.622,4.805s-16.521,3.997-15.941,7.137s6.377,6.281,6.377,17.415c2.609,8.279,7.536,23.981,7.536,23.981
	l1.362,0.699l0.667,3.603c0,0-4.155,6.893-7.978,13.786c-3.823,6.893-21.159,44.649-19.251,59.375c0,0,9.066,8.564,17.125,5.431
	c2.996-1.291,4.173-3.461,6.889-0.688c1.395,1.424,3.153,2.466,5.123,2.854c3.101,0.611,7.471,0.831,12.006,0.535
	c1.754-0.115,3.446-0.65,4.991-1.475c0.787-0.42,1.436-0.56,3.225,0.028c3.181,1.044,11.664,3.133,17.602,0.209
	c2.068-1.41,2.227-2.232,3.161-2.027c1.114,0.245,2.224,0.486,3.366,0.498C104.994,136.205,112.704,136.462,114.279,130.8z"/>
<line fill="none" stroke="#5A515F" stroke-linecap="round" stroke-linejoin="round" stroke-miterlimit="10" x1="53.955" y1="54.036" x2="87.717" y2="54.036"/>
<line fill="none" stroke="#5A515F" stroke-linecap="round" stroke-linejoin="round" stroke-miterlimit="10" x1="54.622" y1="57.64" x2="87.05" y2="57.64"/>
<path fill="none" stroke="#5A515F" stroke-linecap="round" stroke-linejoin="round" stroke-miterlimit="10" d="M54.622,4.805
	c0,0,15.157-8.186,32.428,0"/>
<path fill="none" stroke="#5A515F" stroke-linecap="round" stroke-linejoin="round" stroke-miterlimit="10" d="M58.726,57.64
	c0,0-11.745,51.364-28.458,75.422"/>
<path fill="none" stroke="#5A515F" stroke-linecap="round" stroke-linejoin="round" stroke-miterlimit="10" d="M51.407,135.543
	c0,0,13.682-58.948,12.409-77.904"/>
<path fill="none" stroke="#5A515F" stroke-linecap="round" stroke-linejoin="round" stroke-miterlimit="10" d="M82.266,57.64
	c0,0,24.812,55.074,22.267,77.904"/>
<path fill="none" stroke="#5A515F" stroke-linecap="round" stroke-linejoin="round" stroke-miterlimit="10" d="M76.54,57.64
	c0,0,23.54,72.534,17.814,80.054"/>
<path fill="none" stroke="#5A515F" stroke-linecap="round" stroke-linejoin="round" stroke-miterlimit="10" d="M70.836,57.64
	c0,0-4.14,60.782,2.691,79.818"/>
</svg>
