<?xml version="1.0" encoding="utf-8"?>
<!-- Generator: Adobe Illustrator 17.0.0, SVG Export Plug-In . SVG Version: 6.00 Build 0)  -->
<!DOCTYPE svg PUBLIC "-//W3C//DTD SVG 1.1//EN" "http://www.w3.org/Graphics/SVG/1.1/DTD/svg11.dtd">
<svg version="1.1" id="Layer_1" xmlns="http://www.w3.org/2000/svg" xmlns:xlink="http://www.w3.org/1999/xlink" x="0px" y="0px"
	 width="140px" height="140px" viewBox="0 0 140 140" enable-background="new 0 0 140 140" xml:space="preserve">
<path fill="none" stroke="#5A515F" stroke-linecap="round" stroke-linejoin="round" stroke-miterlimit="10" d="M112.331,42.121
	c1.559,9.616,8.836,40.283,8.576,61.854c0.52,18.192,2.079,34.046,2.079,34.046s-7.537,2.079-12.995,0
	c-0.26-3.898-2.859-25.469-2.599-34.306c0.26-8.836-1.559-24.285-4.678-32.284c-3.119-7.999-3.119-11.897-3.119-11.897
	s-6.757,13.774-3.119,31.447c1.559,2.599,6.497,5.977,3.379,13.774c0.52,2.079,0.78,3.638,0.78,3.638s-4.678,3.898-27.289,3.638
	c-22.611,0.26-32.746-3.638-32.746-3.638s0.26-1.559,0.78-3.638c-3.119-7.797,1.819-11.175,3.379-13.774
	c3.638-17.673-3.119-31.447-3.119-31.447s0,3.898-3.119,11.897c-3.119,7.999-4.938,23.448-4.678,32.284
	c0.26,8.836-2.339,30.407-2.599,34.306c-5.458,2.079-12.995,0-12.995,0s1.559-15.853,2.079-34.046
	c-0.26-21.571,7.017-52.238,8.576-61.854c1.559-9.616,2.339-20.531,7.537-22.87C50.736,15.352,56.454,3.917,56.454,3.917
	s9.616-1.04,15.593-2.599c5.978-1.559,6.497,3.119,6.497,3.119s9.559,7.647,22.49,11.713c1.35,0.424,2.509,1.323,3.161,2.578
	C107.416,24.92,112.331,42.121,112.331,42.121z"/>
<path fill="none" stroke="#5A515F" stroke-linecap="round" stroke-linejoin="round" stroke-miterlimit="10" d="M78.545,4.437
	c-1.183,7.573-3.013,9.112-11.179,11.877c-2.376,0.805-4.957,0.968-7.376,0.303c-9.13-2.512-3.536-12.7-3.536-12.7"/>
<path fill="none" stroke="#5A515F" stroke-linecap="round" stroke-linejoin="round" stroke-miterlimit="10" d="M54.764,10.474
	c0,0,14.715,3.016,23.781-6.037"/>
<path fill="none" stroke="#5A515F" stroke-linecap="round" stroke-linejoin="round" stroke-miterlimit="10" d="M99.596,59.534
	c0,0-7.233-16.356-2.339-29.628c4.893-13.271,4.893-13.271,4.893-13.271"/>
<path fill="none" stroke="#5A515F" stroke-linecap="round" stroke-linejoin="round" stroke-miterlimit="10" d="M41.64,59.534
	c0,0,0.997-26.031-8.208-37.315"/>
<path fill="none" stroke="#5A515F" stroke-linecap="round" stroke-linejoin="round" stroke-miterlimit="10" d="M62.431,24.449
	c0,0-6.497,22.524-1.819,47.473c1.559,15.247,1.819,39.897,1.819,39.897"/>
<path fill="none" stroke="#5A515F" stroke-linecap="round" stroke-linejoin="round" stroke-miterlimit="10" d="M48.311,70.709
	c0,0-1.733,11.955,0,19.752"/>
<path fill="none" stroke="#5A515F" stroke-linecap="round" stroke-linejoin="round" stroke-miterlimit="10" d="M87.987,70.709
	c0,0,3.812,13.514,1.386,19.752"/>
<path fill="none" stroke="#5A515F" stroke-linecap="round" stroke-linejoin="round" stroke-miterlimit="10" d="M95.558,36.923
	c0,0,9.644,15.132,18.363,13.63"/>
<path fill="none" stroke="#5A515F" stroke-linecap="round" stroke-linejoin="round" stroke-miterlimit="10" d="M27.463,49.804
	c0,0,9.972-9.274,10.089-20.094"/>
<line fill="none" stroke="#5A515F" stroke-linecap="round" stroke-linejoin="round" stroke-miterlimit="10" x1="20.164" y1="108.803" x2="33.77" y2="108.803"/>
<line fill="none" stroke="#5A515F" stroke-linecap="round" stroke-linejoin="round" stroke-miterlimit="10" x1="19.811" y1="116.473" x2="33.278" y2="116.473"/>
<line fill="none" stroke="#5A515F" stroke-linecap="round" stroke-linejoin="round" stroke-miterlimit="10" x1="19.412" y1="123.215" x2="32.693" y2="123.215"/>
<line fill="none" stroke="#5A515F" stroke-linecap="round" stroke-linejoin="round" stroke-miterlimit="10" x1="18.984" y1="129.311" x2="32.096" y2="129.311"/>
<line fill="none" stroke="#5A515F" stroke-linecap="round" stroke-linejoin="round" stroke-miterlimit="10" x1="18.555" y1="134.642" x2="31.555" y2="134.642"/>
<line fill="none" stroke="#5A515F" stroke-linecap="round" stroke-linejoin="round" stroke-miterlimit="10" x1="121.07" y1="108.803" x2="107.958" y2="108.803"/>
<line fill="none" stroke="#5A515F" stroke-linecap="round" stroke-linejoin="round" stroke-miterlimit="10" x1="121.425" y1="116.473" x2="108.027" y2="116.473"/>
<line fill="none" stroke="#5A515F" stroke-linecap="round" stroke-linejoin="round" stroke-miterlimit="10" x1="121.824" y1="123.215" x2="109.035" y2="123.215"/>
<line fill="none" stroke="#5A515F" stroke-linecap="round" stroke-linejoin="round" stroke-miterlimit="10" x1="122.252" y1="129.311" x2="109.631" y2="129.311"/>
<line fill="none" stroke="#5A515F" stroke-linecap="round" stroke-linejoin="round" stroke-miterlimit="10" x1="122.681" y1="134.642" x2="110.172" y2="134.642"/>
</svg>
