<?xml version="1.0" encoding="utf-8"?>
<!-- Generator: Adobe Illustrator 17.0.0, SVG Export Plug-In . SVG Version: 6.00 Build 0)  -->
<!DOCTYPE svg PUBLIC "-//W3C//DTD SVG 1.1//EN" "http://www.w3.org/Graphics/SVG/1.1/DTD/svg11.dtd">
<svg version="1.1" id="Layer_1" xmlns="http://www.w3.org/2000/svg" xmlns:xlink="http://www.w3.org/1999/xlink" x="0px" y="0px"
	 width="140px" height="140px" viewBox="0 0 140 140" enable-background="new 0 0 140 140" xml:space="preserve">
<path fill="none" stroke="#59515F" stroke-linecap="round" stroke-linejoin="round" stroke-miterlimit="10" d="M82.175,5.268
	c0,5.349-11.813,9.703-11.813,9.703l9.628,7.488c0,0,2.853-5.705,4.457-11.589c1.21-4.437-3.969-6.948-6.588-7.914
	c-0.853-0.315-1.756-0.466-2.666-0.466h-5.187H64.82c-0.91,0-1.813,0.151-2.666,0.466c-2.619,0.966-7.798,3.477-6.588,7.914
	c1.605,5.884,4.457,11.589,4.457,11.589l9.628-7.488c0,0-11.813-4.354-11.813-9.703"/>
<g>
	<path fill="none" stroke="#59515F" stroke-linecap="round" stroke-linejoin="round" stroke-miterlimit="10" d="M55.567,10.87
		L31.943,20.32c0,0-7.221,12.035-10.697,44.662c-0.267,16.046,0,52.685,0,52.685h14.442l-0.535-9.36l0.021-0.05
		c0.858-2.059,1.291-4.261,1.272-6.491c-0.072-8.578,0-31.686,2.594-45.119c0.672-3.479,0.726-7.034,0.175-10.534
		c-1.121-7.123-2.545-19.907-7.271-25.792"/>
	
		<line fill="none" stroke="#59515F" stroke-linecap="round" stroke-linejoin="round" stroke-miterlimit="10" x1="21.193" y1="108.842" x2="35.152" y2="108.842"/>
	
		<line fill="none" stroke="#59515F" stroke-linecap="round" stroke-linejoin="round" stroke-miterlimit="10" x1="34.694" y1="25.272" x2="57.178" y2="15.807"/>
	
		<circle fill="none" stroke="#59515F" stroke-linecap="round" stroke-linejoin="round" stroke-miterlimit="10" cx="25.381" cy="112.804" r="1.917"/>
</g>
<circle fill="none" stroke="#59515F" stroke-linecap="round" stroke-linejoin="round" stroke-miterlimit="10" cx="69.512" cy="102.913" r="1.917"/>
<circle fill="none" stroke="#59515F" stroke-linecap="round" stroke-linejoin="round" stroke-miterlimit="10" cx="69.512" cy="88.454" r="1.917"/>
<circle fill="none" stroke="#59515F" stroke-linecap="round" stroke-linejoin="round" stroke-miterlimit="10" cx="69.512" cy="73.996" r="1.917"/>
<circle fill="none" stroke="#59515F" stroke-linecap="round" stroke-linejoin="round" stroke-miterlimit="10" cx="69.512" cy="59.538" r="1.917"/>
<circle fill="none" stroke="#59515F" stroke-linecap="round" stroke-linejoin="round" stroke-miterlimit="10" cx="69.512" cy="45.08" r="1.917"/>
<circle fill="none" stroke="#59515F" stroke-linecap="round" stroke-linejoin="round" stroke-miterlimit="10" cx="69.512" cy="30.621" r="1.917"/>
<circle fill="none" stroke="#59515F" stroke-linecap="round" stroke-linejoin="round" stroke-miterlimit="10" cx="69.512" cy="18.08" r="1.917"/>
<g>
	<path fill="none" stroke="#59515F" stroke-linecap="round" stroke-linejoin="round" stroke-miterlimit="10" d="M84.784,10.87
		l23.623,9.449c0,0,7.221,12.035,10.697,44.662c0.267,16.046,0,52.685,0,52.685h-14.442l0.535-9.36l-0.021-0.05
		c-0.858-2.059-1.291-4.261-1.272-6.491c0.072-8.578,0-31.686-2.594-45.119c-0.672-3.479-0.726-7.034-0.175-10.534
		c1.121-7.123,2.545-19.907,7.271-25.792"/>
	
		<line fill="none" stroke="#59515F" stroke-linecap="round" stroke-linejoin="round" stroke-miterlimit="10" x1="119.158" y1="108.842" x2="105.198" y2="108.842"/>
	
		<line fill="none" stroke="#59515F" stroke-linecap="round" stroke-linejoin="round" stroke-miterlimit="10" x1="105.657" y1="25.272" x2="83.172" y2="15.807"/>
	
		<circle fill="none" stroke="#59515F" stroke-linecap="round" stroke-linejoin="round" stroke-miterlimit="10" cx="114.969" cy="112.804" r="1.917"/>
</g>
<path fill="none" stroke="#59515F" stroke-linecap="round" stroke-linejoin="round" stroke-miterlimit="10" d="M101.016,53.729
	c0,0-1.123,41.78,0.678,58.842c0.232,2.202-0.347,4.405-1.643,6.201c-1.697,2.351-3.539,5.016-4.152,8.052
	c-0.345,1.709-1.323,3.221-2.735,4.243c-4.571,3.31-13.601,7.141-22.93,6.924c-9.329,0.217-18.359-3.614-22.93-6.924
	c-1.412-1.023-2.39-2.534-2.735-4.243c-0.613-3.036-2.455-5.701-4.152-8.052c-1.296-1.796-1.876-3.998-1.643-6.201
	c1.801-17.063,0.678-58.842,0.678-58.842"/>
<path fill="none" stroke="#59515F" stroke-linecap="round" stroke-linejoin="round" stroke-miterlimit="10" d="M70.816,129.433"/>
<path fill="none" stroke="#59515F" stroke-linecap="round" stroke-linejoin="round" stroke-miterlimit="10" d="M101.365,116.081"/>
<path fill="none" stroke="#59515F" stroke-linecap="round" stroke-linejoin="round" stroke-miterlimit="10" d="M38.723,114.721
	c0,0,9.979,11.771,16.843,13.375s15.249,1.337,15.249,1.337"/>
<path fill="none" stroke="#59515F" stroke-linecap="round" stroke-linejoin="round" stroke-miterlimit="10" d="M101.365,115.265
	c0,0-9.506,11.227-16.37,12.831s-15.249,1.337-15.249,1.337"/>
<path fill="none" stroke="#59515F" stroke-linecap="round" stroke-linejoin="round" stroke-miterlimit="10" d="M61.828,10.87
	c0,0,6.885-4.992,16.358,0"/>
<line fill="none" stroke="#59515F" stroke-linecap="round" stroke-linejoin="round" stroke-miterlimit="10" x1="65.986" y1="17.822" x2="65.986" y2="128.875"/>
<line fill="none" stroke="#59515F" stroke-linecap="round" stroke-linejoin="round" stroke-miterlimit="10" x1="73.039" y1="17.822" x2="73.039" y2="128.875"/>
</svg>
