<?xml version="1.0" encoding="utf-8"?>
<!-- Generator: Adobe Illustrator 17.0.0, SVG Export Plug-In . SVG Version: 6.00 Build 0)  -->
<!DOCTYPE svg PUBLIC "-//W3C//DTD SVG 1.1//EN" "http://www.w3.org/Graphics/SVG/1.1/DTD/svg11.dtd">
<svg version="1.1" id="Layer_1" xmlns="http://www.w3.org/2000/svg" xmlns:xlink="http://www.w3.org/1999/xlink" x="0px" y="0px"
	 width="140px" height="140px" viewBox="0 0 140 140" enable-background="new 0 0 140 140" xml:space="preserve">
<path fill="none" stroke="#5A515F" stroke-linecap="round" stroke-linejoin="round" stroke-miterlimit="10" d="M91.093,20.845
	c0,0,4.147,3.443,7.807,5.675c2.739,1.671,4.968,4.077,6.273,7.007c4.346,9.756,7.011,24.302,9.861,41.618
	c1.561,18.736-14.833,51.785-17.695,55.688c-2.862,3.903-3.903,8.848-3.903,8.848s-2.862-1.822-6.766-3.643
	c-33.309,7.286-47.101-5.725-47.101-5.725l-0.52-16.915c0,0-3.218,3.409-3.552,7.546c-0.573,7.109,0,9.368,0,9.368
	s-8.419-1.301-11.021-2.602c-1.301-1.301,1.561-21.338,1.822-30.446c1.301-16.134,4.164-53.086,4.164-63.495
	s16.394-15.613,16.394-15.613l0.194-8.711c0.05-2.24,1.266-4.31,3.239-5.371c3.168-1.704,9.084-3.713,19.35-3.353
	c13.687,0.481,20.154-1.041,21.715,11.45C91.874,18.677,91.093,20.845,91.093,20.845z"/>
<path fill="none" stroke="#5A515F" stroke-linecap="round" stroke-linejoin="round" stroke-miterlimit="10" d="M93.549,100.422
	c0,0-2.976-29.96-2.196-36.726c0.52-3.643,1.041-1.041,1.561,2.082c0.52,3.123,7.807,12.491,0,36.692s-11.45,31.227-11.45,31.227
	l5.204,2.342"/>
<path fill="none" stroke="#5A515F" stroke-linecap="round" stroke-linejoin="round" stroke-miterlimit="10" d="M92.108,62.147
	c-4.326-5.567-1.259-11.518,1.155-17.131c2.304-5.358,5.074-11.252,9.646-15.063"/>
<path fill="none" stroke="#5A515F" stroke-linecap="round" stroke-linejoin="round" stroke-miterlimit="10" d="M30.799,31.251
	c0,0,6.427,5.121,6.687,16.311s0,58.811,1.561,65.837"/>
<path fill="none" stroke="#5A515F" stroke-linecap="round" stroke-linejoin="round" stroke-miterlimit="10" d="M90.105,110.983
	c0,0-13.325-17.882-14.886-21.265c-8.848,0.52-32.788-3.123-32.788-3.123l-4.384,10.682"/>
<path fill="none" stroke="#5A515F" stroke-linecap="round" stroke-linejoin="round" stroke-miterlimit="10" d="M71.842,89.748
	c0,0,14.252,20.701,17.141,24.518"/>
<line fill="none" stroke="#5A515F" stroke-linecap="round" stroke-linejoin="round" stroke-miterlimit="10" x1="45.308" y1="87.015" x2="38.047" y2="102.007"/>
<path fill="none" stroke="#5A515F" stroke-linecap="round" stroke-linejoin="round" stroke-miterlimit="10" d="M47.493,7.269
	c0,0,5.087,14.79,11.332,19.995c0,0,27.008-14.414,30.159-22.43"/>
<path fill="none" stroke="#5A515F" stroke-linecap="round" stroke-linejoin="round" stroke-miterlimit="10" d="M50.453,14.534
	c0,0,0.565-9.49,15.658-9.7c2.127,0.056,16.134-0.73,13.011,2.653C76,10.87,62.521,22.673,62.495,25.229"/>
<path fill="none" stroke="#5A515F" stroke-linecap="round" stroke-linejoin="round" stroke-miterlimit="10" d="M46.855,18.157
	c0,0,2.082,7.286,11.97,9.108c0,0,15.613-1.301,25.762-5.725c4.396-1.301,6.506-0.694,6.506-0.694"/>
<path fill="none" stroke="#5A515F" stroke-linecap="round" stroke-linejoin="round" stroke-miterlimit="10" d="M65.014,26.517
	c0,0-2.546,11.157-2.025,20.785c0.52,9.628,0.978,22.879,0.978,22.879"/>
<path fill="none" stroke="#5A515F" stroke-linecap="round" stroke-linejoin="round" stroke-miterlimit="10" d="M50.453,69.681
	c0,0-4.379-16.394-1.257-25.242s5.385-15.261,3.864-19.21"/>
</svg>
