<?xml version="1.0" encoding="utf-8"?>
<!-- Generator: Adobe Illustrator 17.0.0, SVG Export Plug-In . SVG Version: 6.00 Build 0)  -->
<!DOCTYPE svg PUBLIC "-//W3C//DTD SVG 1.1//EN" "http://www.w3.org/Graphics/SVG/1.1/DTD/svg11.dtd">
<svg version="1.1" id="Layer_1" xmlns="http://www.w3.org/2000/svg" xmlns:xlink="http://www.w3.org/1999/xlink" x="0px" y="0px"
	 width="140px" height="140px" viewBox="0 0 140 140" enable-background="new 0 0 140 140" xml:space="preserve">
<path fill="none" stroke="#5A515F" stroke-linecap="round" stroke-linejoin="round" stroke-miterlimit="10" d="M31,60.25
	c0,0,4-27.5,2.5-36.5"/>
<path fill="none" stroke="#5A515F" stroke-linecap="round" stroke-linejoin="round" stroke-miterlimit="10" d="M110.994,60.25
	c0,0-4-27.5-2.5-36.5"/>
<path fill="none" stroke="#5A515F" stroke-linecap="round" stroke-linejoin="round" stroke-miterlimit="10" d="M58.64,2.571
	c0,0-0.134,9.429,13.86,11.679c0,0-0.351,5.238,2.074,6.619"/>
<path fill="none" stroke="#5A515F" stroke-linecap="round" stroke-linejoin="round" stroke-miterlimit="10" d="M55.691,16.094
	c0,0,3.304,9.906,15.306,10.656"/>
<path fill="none" stroke="#5A515F" stroke-linecap="round" stroke-linejoin="round" stroke-miterlimit="10" d="M56.813,12.132
	c0,0,5.186,10.368,14.812,11.618"/>
<path fill="none" stroke="#5A515F" stroke-linecap="round" stroke-linejoin="round" stroke-miterlimit="10" d="M57.072,7.711
	c0,0,6.358,11.539,16.393,13.914"/>
<path fill="none" stroke="#5A515F" stroke-linecap="round" stroke-linejoin="round" stroke-miterlimit="10" d="M59.719,6.515
	c0,0,12.731-4.183,26.756,3.526"/>
<path fill="none" stroke="#5A515F" stroke-linecap="round" stroke-linejoin="round" stroke-miterlimit="10" d="M62.477,10.041
	c0,0,14.395-2.573,22.584,3.943"/>
<path fill="none" stroke="#5A515F" stroke-linecap="round" stroke-linejoin="round" stroke-miterlimit="10" d="M86.291,11.343
	l0.153,3.861c0.031,0.786,0.532,1.474,1.271,1.744c3.782,1.381,15.384,5.557,20.781,6.802c2.5,3,5.5,16.75,2.5,36.5
	s-9,40.25-3.25,68c1,6,0.75,10.5,0.75,10.5l-36.706-1.224c-0.527-0.018-1.055-0.018-1.582,0L33.5,138.75c0,0-0.25-4.5,0.75-10.5
	C40,100.5,34,80,31,60.25s0-33.5,2.5-36.5c6.5-1.5,22-7.25,22-7.25s2-3.75,1.5-9.5s4.25-5.25,7.5-5.25S79,2,82,3
	s8.75,8.25-0.75,14.5c-2.75,2.25-10.506,3-10.253,9.25s0,110.768,0,110.768"/>
<line fill="none" stroke="#5A515F" stroke-linecap="round" stroke-linejoin="round" stroke-miterlimit="10" x1="42.333" y1="97.667" x2="42.333" y2="121.333"/>
<line fill="none" stroke="#5A515F" stroke-linecap="round" stroke-linejoin="round" stroke-miterlimit="10" x1="98.894" y1="97.667" x2="98.894" y2="121.333"/>
<line fill="none" stroke="#5A515F" stroke-width="2" stroke-linecap="round" stroke-linejoin="round" stroke-miterlimit="10" x1="77.625" y1="45.125" x2="98.875" y2="45.125"/>
<path fill="none" stroke="#5A515F" stroke-linecap="round" stroke-linejoin="round" stroke-miterlimit="10" d="M88.25,17.143
	c0,0-4.625,9.607-16.626,9.607"/>
<path fill="none" stroke="#5A515F" stroke-linecap="round" stroke-linejoin="round" stroke-miterlimit="10" d="M71.624,23.75
	c0,0,12.387-2.218,14.819-8.546"/>
<line fill="none" stroke="#5A515F" stroke-linecap="round" stroke-linejoin="round" stroke-miterlimit="10" x1="36" y1="134.333" x2="66.607" y2="133"/>
<line fill="none" stroke="#5A515F" stroke-linecap="round" stroke-linejoin="round" stroke-miterlimit="10" x1="105" y1="133.667" x2="74.574" y2="133.667"/>
<line fill="none" stroke="#5A515F" stroke-linecap="round" stroke-linejoin="round" stroke-miterlimit="10" x1="46" y1="121.333" x2="66.607" y2="121.333"/>
<line fill="none" stroke="#5A515F" stroke-linecap="round" stroke-linejoin="round" stroke-miterlimit="10" x1="95.667" y1="121.333" x2="74.574" y2="121.333"/>
<line fill="none" stroke="#5A515F" stroke-linecap="round" stroke-linejoin="round" stroke-miterlimit="10" x1="46" y1="106.667" x2="66.607" y2="106.667"/>
<line fill="none" stroke="#5A515F" stroke-linecap="round" stroke-linejoin="round" stroke-miterlimit="10" x1="74.574" y1="106.667" x2="95.667" y2="106.667"/>
<line fill="none" stroke="#5A515F" stroke-linecap="round" stroke-linejoin="round" stroke-miterlimit="10" x1="46" y1="93" x2="66.607" y2="93"/>
<line fill="none" stroke="#5A515F" stroke-linecap="round" stroke-linejoin="round" stroke-miterlimit="10" x1="74.574" y1="93" x2="95.667" y2="93"/>
<line fill="none" stroke="#5A515F" stroke-linecap="round" stroke-linejoin="round" stroke-miterlimit="10" x1="37.667" y1="80" x2="66.607" y2="78.667"/>
<line fill="none" stroke="#5A515F" stroke-linecap="round" stroke-linejoin="round" stroke-miterlimit="10" x1="74.574" y1="78.667" x2="103.333" y2="79.333"/>
<line fill="none" stroke="#5A515F" stroke-linecap="round" stroke-linejoin="round" stroke-miterlimit="10" x1="37.667" y1="67.333" x2="66.607" y2="64.333"/>
<line fill="none" stroke="#5A515F" stroke-linecap="round" stroke-linejoin="round" stroke-miterlimit="10" x1="74.574" y1="64.333" x2="105" y2="67.333"/>
<line fill="none" stroke="#5A515F" stroke-linecap="round" stroke-linejoin="round" stroke-miterlimit="10" x1="36" y1="53" x2="66.607" y2="51"/>
<line fill="none" stroke="#5A515F" stroke-linecap="round" stroke-linejoin="round" stroke-miterlimit="10" x1="74.574" y1="51" x2="106.333" y2="53"/>
<line fill="none" stroke="#5A515F" stroke-linecap="round" stroke-linejoin="round" stroke-miterlimit="10" x1="36" y1="37" x2="66.607" y2="37"/>
<line fill="none" stroke="#5A515F" stroke-linecap="round" stroke-linejoin="round" stroke-miterlimit="10" x1="74.574" y1="37" x2="105" y2="37"/>
<line fill="none" stroke="#5A515F" stroke-linecap="round" stroke-linejoin="round" stroke-miterlimit="10" x1="37.667" y1="26.75" x2="59.719" y2="26.75"/>
<line fill="none" stroke="#5A515F" stroke-linecap="round" stroke-linejoin="round" stroke-miterlimit="10" x1="82.333" y1="26.75" x2="103.333" y2="26.75"/>
<line fill="none" stroke="#5A515F" stroke-linecap="round" stroke-linejoin="round" stroke-miterlimit="10" x1="44.669" y1="52.434" x2="44.669" y2="138.378"/>
<line fill="none" stroke="#5A515F" stroke-linecap="round" stroke-linejoin="round" stroke-miterlimit="10" x1="44.669" y1="20.341" x2="44.669" y2="37"/>
<line fill="none" stroke="#5A515F" stroke-linecap="round" stroke-linejoin="round" stroke-miterlimit="10" x1="98.451" y1="37" x2="98.894" y2="20.869"/>
<line fill="none" stroke="#5A515F" stroke-linecap="round" stroke-linejoin="round" stroke-miterlimit="10" x1="95.667" y1="138.322" x2="98.026" y2="52.477"/>
<line fill="none" stroke="#5A515F" stroke-linecap="round" stroke-linejoin="round" stroke-miterlimit="10" x1="84.951" y1="51.654" x2="86.443" y2="138.015"/>
<line fill="none" stroke="#5A515F" stroke-linecap="round" stroke-linejoin="round" stroke-miterlimit="10" x1="84.437" y1="21.947" x2="84.698" y2="37"/>
<line fill="none" stroke="#5A515F" stroke-linecap="round" stroke-linejoin="round" stroke-miterlimit="10" x1="57.326" y1="51.606" x2="56.813" y2="137.973"/>
<line fill="none" stroke="#5A515F" stroke-linecap="round" stroke-linejoin="round" stroke-miterlimit="10" x1="57.517" y1="19.477" x2="57.412" y2="36.999"/>
</svg>
