<?xml version="1.0" encoding="utf-8"?>
<!-- Generator: Adobe Illustrator 17.0.0, SVG Export Plug-In . SVG Version: 6.00 Build 0)  -->
<!DOCTYPE svg PUBLIC "-//W3C//DTD SVG 1.1//EN" "http://www.w3.org/Graphics/SVG/1.1/DTD/svg11.dtd">
<svg version="1.1" id="Layer_1" xmlns="http://www.w3.org/2000/svg" xmlns:xlink="http://www.w3.org/1999/xlink" x="0px" y="0px"
	 width="140px" height="140px" viewBox="0 0 140 140" enable-background="new 0 0 140 140" xml:space="preserve">
<path fill="none" stroke="#5A515F" stroke-linecap="round" stroke-linejoin="round" stroke-miterlimit="10" d="M133.34,105.118
	l-41.411,22.528c-1.72,0.935-3.579,1.587-5.509,1.912c-5.845,0.986-18.918,2.584-29.211-0.583
	c-4.812-1.605-8.924-2.917-10.913-6.631c-1.57-2.932-1.124-6.547,0.846-9.226c3.174-4.315,7.085-7.999,7.085-7.999H24.305
	c-4.525,0-9.042-0.625-13.35-2.009c-5.957-1.914-12.248-5.429-9.88-11.498c1.842-2.894,3.684-2.631,4.999-5.789
	c1.316-3.158,5.789-6.052,12.104-8.157c6.315-2.105,27.365-12.893,35.259-15.261c0.263-2.631-2.368-47.1-2.368-47.1
	s3.158,3.158,12.893,2.894c9.736-0.263,15.788,9.209,15.788,9.209s6.841-4.21,8.157-6.052c0,0,2.368,4.21,9.473,3.158
	s28.418-2.105,30.523,6.315c0,0,2.894-6.052,7.104-6.315c4.21-0.263,4.21-0.263,4.21-0.263s-7.368,36.048-8.946,45.784
	c0,0-0.789,6.052,1.053,11.051c1.842,4.999-0.263,11.841,0.263,13.419l2.105,1.053L133.34,105.118z"/>
<path fill="none" stroke="#5A515F" stroke-linecap="round" stroke-linejoin="round" stroke-miterlimit="10" d="M133.691,95.558
	l-41.632,26.47c-0.836,0.532-1.712,0.997-2.629,1.373c-4.49,1.843-17.879,6.1-35.73,0.575c-5.789-2.105-8.348-5.524-8.348-5.524"/>
<line fill="none" stroke="#5A515F" stroke-linecap="round" stroke-linejoin="round" stroke-miterlimit="10" x1="79.75" y1="27.408" x2="78.171" y2="82.928"/>
<polyline fill="none" stroke="#5A515F" stroke-linecap="round" stroke-linejoin="round" stroke-miterlimit="10" points="
	54.227,105.118 87.381,74.508 87.907,21.357 "/>
<path fill="none" stroke="#5A515F" stroke-linecap="round" stroke-linejoin="round" stroke-miterlimit="10" d="M87.381,74.508
	c0,0,22.366,9.999,31.575,9.736c2.368-1.316,10.436-9.226,11.314-14.209"/>
<path fill="none" stroke="#5A515F" stroke-linecap="round" stroke-linejoin="round" stroke-miterlimit="10" d="M118.956,84.244
	c0,0,2.664,11.001,1.179,19.933"/>
<path fill="none" stroke="#5A515F" stroke-linecap="round" stroke-linejoin="round" stroke-miterlimit="10" d="M127.902,30.829
	c0,0,5.263,12.63,0,26.576c0,0-3.321,13.951-1.266,19.343"/>
<path fill="none" stroke="#5A515F" stroke-linecap="round" stroke-linejoin="round" stroke-miterlimit="10" d="M53.437,62.404
	c0,0,9.209,12.396,24.734,10.671c0,0,7.368-0.146,9.209-1.725"/>
<path fill="none" stroke="#5A515F" stroke-linecap="round" stroke-linejoin="round" stroke-miterlimit="10" d="M64.581,95.558
	c0,0-16.407,6.578-44.035,4.473c-13.683-1.316-19.734-3.421-19.471-8.42"/>
<path fill="none" stroke="#5A515F" stroke-linecap="round" stroke-linejoin="round" stroke-miterlimit="10" d="M51.069,15.305
	c0,0,0.526-6.052,10.525-4.473c8.677,1.37,13.775,2.001,18.077,5.364c1.226,0.958,2.731,1.481,4.285,1.432
	c3.128-0.098,8.36-0.013,11.055-2.323c3.309-2.836,11.502-6.31,13.42,0.833c0.534,1.988,2.184,3.473,4.228,3.715
	c4.738,0.562,12.138,0.478,15.444-0.865c4.535-1.842,6.903,5.526,6.903,5.526"/>
<circle fill="#5A515F" cx="120.585" cy="57.209" r="5.195"/>
</svg>
