<?xml version="1.0" encoding="utf-8"?>
<!-- Generator: Adobe Illustrator 17.0.0, SVG Export Plug-In . SVG Version: 6.00 Build 0)  -->
<!DOCTYPE svg PUBLIC "-//W3C//DTD SVG 1.1//EN" "http://www.w3.org/Graphics/SVG/1.1/DTD/svg11.dtd">
<svg version="1.1" id="Layer_1" xmlns="http://www.w3.org/2000/svg" xmlns:xlink="http://www.w3.org/1999/xlink" x="0px" y="0px"
	 width="140px" height="140px" viewBox="0 0 140 140" enable-background="new 0 0 140 140" xml:space="preserve">
<path fill="none" stroke="#5B515F" stroke-linecap="round" stroke-linejoin="round" stroke-miterlimit="10" d="M47.539,38.698
	l-6.518,3.096l-3.578,1.7c0,0-14.641,34.834-14.893,44.174s7.573,31.048,17.165,34.077l1.01,1.262l0.252,14.641
	c0,0,16.277,2.195,25.169,0.98c2.406-0.329,4.342-2.167,4.738-4.563c0.293-1.77,0.384-3.232,0.384-3.232l8.582,0.505
	c0,0-1.01,7.236,1.767,7.657c2.777,0.421,15.65,0,15.65,0s1.262-17.501,0-30.375c-1.262-12.874-3.534-29.533-0.505-32.815
	c1.767,1.01,4.291,19.941,4.039,30.038c-0.23,9.21-0.881,20.52,2.647,25.309c0.552,0.75,1.412,1.21,2.342,1.262l6.422,0.357
	c1.021,0.057,1.999-0.397,2.617-1.212c0.702-0.926,1.488-2.268,1.624-3.755c0.252-2.777,1.01-59.824-14.136-83.552
	c0,0-0.505-4.291,2.272-8.582c0,0-7.32-2.019-8.33-7.068c-2.019-5.553-8.33-15.903-27.767-13.883
	c-8.669,0.901-13.973,2.655-17.19,4.322c-2.543,1.318-4.46,3.617-5.26,6.368c-0.794,2.733-2.818,7.072-7.841,8.747
	c-1.767,1.01-2.524,2.019-0.757,3.786s3.578,3.854,3.578,3.854"/>
<path fill="none" stroke="#5B515F" stroke-linecap="round" stroke-linejoin="round" stroke-miterlimit="10" d="M48.491,20.835
	c0,0,6.873-12.68,10.154-16.466c3.281-3.786,6.311-3.281,9.592-3.281h3.16c3.281,0,6.311-0.505,9.592,3.281
	c3.281,3.786,10.154,16.466,10.154,16.466"/>
<path fill="none" stroke="#5B515F" stroke-linecap="round" stroke-linejoin="round" stroke-miterlimit="10" d="M80.513,138.265
	c0,0,10.19-2.762,14.228-7.179c4.039-4.417-8.835-19.815-14.136-24.485s-5.427-9.087-2.019-15.272
	c5.048-9.213,1.641-18.806-2.146-22.844c-3.786-4.039-4.796-8.835-1.515-14.262c3.282-5.427,10.476-4.67,16.786-6.184
	s5.301-3.408,3.913-5.175c-5.553-3.281-8.456-16.534-13.505-22.592c-5.048-6.058-19.857-4.671-25.242-0.631
	S45.772,44.125,45.772,44.125s16.912,4.417,21.961,17.417c5.048,13,2.398,65.756,3.534,69.29"/>
<path fill="none" stroke="#5B515F" stroke-linecap="round" stroke-linejoin="round" stroke-miterlimit="10" d="M92.517,39.749
	c1.594,2.589,9.798,4.502,9.798,4.502s-7.068,13.126-5.553,31.553"/>
<path fill="none" stroke="#5B515F" stroke-linecap="round" stroke-linejoin="round" stroke-miterlimit="10" d="M51.165,28.783
	c0,0,13.286,2.847,12.529,15.468c0.031,9.213,1.981,13.321,1.981,13.321"/>
<path fill="none" stroke="#5B515F" stroke-linecap="round" stroke-linejoin="round" stroke-miterlimit="10" d="M86.69,28.22
	c0,0-11.323,5.321-9.271,23.36"/>
<path fill="none" stroke="#5B515F" stroke-linecap="round" stroke-linejoin="round" stroke-miterlimit="10" d="M57.835,31.874
	c0,0,11.41-13.261,24.095,0"/>
<line fill="none" stroke="#5B515F" stroke-linecap="round" stroke-linejoin="round" stroke-miterlimit="10" x1="102.561" y1="129.64" x2="115.963" y2="129.64"/>
<path fill="none" stroke="#5B515F" stroke-linecap="round" stroke-linejoin="round" stroke-miterlimit="10" d="M39.714,121.745
	l8.835-6.689c0,0-0.126-3.786-6.689-10.602c-6.563-6.815-7.825-23.097-0.505-31.048c1.01,0.252,1.893,21.708,0.505,31.048"/>
<line fill="none" stroke="#5B515F" stroke-linecap="round" stroke-linejoin="round" stroke-miterlimit="10" x1="37.153" y1="120.482" x2="47.652" y2="112.286"/>
<path fill="none" stroke="#5B515F" stroke-linecap="round" stroke-linejoin="round" stroke-miterlimit="10" d="M42.464,100.163
	h15.676v27.451c0,2.335-1.893,4.228-4.228,4.228H40.876"/>
<path fill="none" stroke="#5B515F" stroke-linecap="round" stroke-linejoin="round" stroke-miterlimit="10" d="M58.141,107.988
	c0,0-8.835,3.92-12.369,1.139"/>
<path fill="none" stroke="#5B515F" stroke-linecap="round" stroke-linejoin="round" stroke-miterlimit="10" d="M37.442,43.494
	c0,0,5.217,21.54,3.913,29.912"/>
<line fill="none" stroke="#5B515F" stroke-linecap="round" stroke-linejoin="round" stroke-miterlimit="10" x1="76.351" y1="99.672" x2="95.752" y2="99.672"/>
<path fill="none" stroke="#5B515F" stroke-linecap="round" stroke-linejoin="round" stroke-miterlimit="10" d="M86.161,112.405
	c0,0,10.222,0.632,11.105-3.785"/>
<circle fill="#5B515F" cx="89.582" cy="107.988" r="2.496"/>
<circle fill="#5B515F" cx="67.047" cy="119.249" r="2.496"/>
<circle fill="#5B515F" cx="39.503" cy="36.553" r="1.248"/>
<circle fill="#5B515F" cx="41.564" cy="38.652" r="1.248"/>
<circle fill="#5B515F" cx="100.98" cy="36.933" r="1.248"/>
<circle fill="#5B515F" cx="99.694" cy="39.58" r="1.248"/>
<path fill="#5B515F" d="M42.252,104.43c0.975-0.975,2.555-0.975,3.53,0s0.975,2.555,0,3.53"/>
<circle fill="#5B515F" cx="67.047" cy="131.842" r="2.496"/>
<path fill="none" stroke="#5B515F" stroke-miterlimit="10" d="M79.849,131.338c0,0-6.815-14.136-6.058-30.038
	C74.5,86.407,78.092,83.87,72.49,69.136c-1.418-3.73-2.049-7.754-1.563-11.714c0.56-4.568,2.364-8.627,6.243-7.87"/>
</svg>
