<?xml version="1.0" encoding="utf-8"?>
<!-- Generator: Adobe Illustrator 17.0.0, SVG Export Plug-In . SVG Version: 6.00 Build 0)  -->
<!DOCTYPE svg PUBLIC "-//W3C//DTD SVG 1.1//EN" "http://www.w3.org/Graphics/SVG/1.1/DTD/svg11.dtd">
<svg version="1.1" id="Layer_1" xmlns="http://www.w3.org/2000/svg" xmlns:xlink="http://www.w3.org/1999/xlink" x="0px" y="0px"
	 width="140px" height="140px" viewBox="0 0 140 140" enable-background="new 0 0 140 140" xml:space="preserve">
<path fill="none" stroke="#5B515F" stroke-linecap="round" stroke-linejoin="round" stroke-miterlimit="10" d="M41.591,23.179
	c0,0,5.373,21.235,37.354-2.558c0,0,12.281,29.934,27.12,19.7c0,0-8.187,27.632-8.955,31.725
	c-0.768,4.094-3.838,16.886,1.279,31.981c5.117,15.095,6.652,22.003,7.675,26.352c1.023,4.349-1.279,8.187-12.281,8.699
	c-11.001,0.512-15.863,1.279-23.794-3.07c-7.931-4.349-28.655-3.326-30.958-6.652c-1.023-3.838-1.535-20.212,0-26.608
	s4.459-20.98-0.969-40.168c-2.75-9.321-6.626-15.114-1.982-23.693c0.498-0.92,0.814-1.926,0.978-2.959
	C37.856,30.894,38.422,23.632,41.591,23.179z"/>
<path fill="none" stroke="#5B515F" stroke-linecap="round" stroke-linejoin="round" stroke-miterlimit="10" d="M80.955,24.866
	c0,0,11.806-1.175,17.946-8.339c0,0,3.838,3.838,6.14,12.025c2.303,8.187,2.293,7.462,1.023,11.769"/>
<path fill="none" stroke="#5B515F" stroke-linecap="round" stroke-linejoin="round" stroke-miterlimit="10" d="M44.761,28.424
	c0,0,5.273-0.128,8.343-4.477c0,0,12.316,5.745,18.345,1.746"/>
<path fill="none" stroke="#5B515F" stroke-linecap="round" stroke-linejoin="round" stroke-miterlimit="10" d="M41.591,23.179
	c0,0-2.558-18.933,6.652-19.189s4.861,19.956,4.861,19.956"/>
<path fill="none" stroke="#5B515F" stroke-linecap="round" stroke-linejoin="round" stroke-miterlimit="10" d="M98.901,16.527
	c0.616-4.004,3.307-9.731,1.113-13.62c-2.45-4.343-7.105-1.748-9.556,1.081C83.806,11.666,78.945,20.62,78.945,20.62"/>
<path fill="none" stroke="#5B515F" stroke-linecap="round" stroke-linejoin="round" stroke-miterlimit="10" d="M80.955,67.185
	c0,0,2.316,22.311,16.911,35.205"/>
</svg>
