<?xml version="1.0" encoding="utf-8"?>
<!-- Generator: Adobe Illustrator 17.0.0, SVG Export Plug-In . SVG Version: 6.00 Build 0)  -->
<!DOCTYPE svg PUBLIC "-//W3C//DTD SVG 1.1//EN" "http://www.w3.org/Graphics/SVG/1.1/DTD/svg11.dtd">
<svg version="1.1" id="Layer_1" xmlns="http://www.w3.org/2000/svg" xmlns:xlink="http://www.w3.org/1999/xlink" x="0px" y="0px"
	 width="140px" height="140px" viewBox="0 0 140 140" enable-background="new 0 0 140 140" xml:space="preserve">
<path fill="none" stroke="#5B515F" stroke-linecap="round" stroke-linejoin="round" stroke-miterlimit="10" d="M42.505,139.067
	c0,0-6.261-16-6.609-19.826c0,0,41.391-89.565,43.478-94.782s5.739-7.13,7.827-8.696c0.933-1.018,1.416-2.297,1.188-3.684
	c-0.206-1.256-0.942-2.242-1.504-3.346c-0.561-1.102-1.028-2.255-1.473-3.407c-0.552-1.431-1.059-2.881-1.516-4.345
	c0,0,14.261-2.522,21,8.407c-1.185,0.703-2.399,1.36-3.625,1.988c-2.086,1.068-4.464,1.644-6.489,2.762
	c-1.507,0.832-2.275,2.282-2.266,3.978c0.494,2.562,1.913,6.432-0.047,11.699c-1.96,5.266-31.49,99.41-31.49,99.41
	c-2.829,2.6-18.216,10.242-18.216,10.242"/>
<path fill="none" stroke="#5B515F" stroke-linecap="round" stroke-linejoin="round" stroke-miterlimit="10" d="M83.15,58.822v21.636
	c1.615,2.087,6.485,6.783,6.485,6.783c2.087-1.391,7.478-7.304,7.478-7.304l-3.679-56.659"/>
<path fill="none" stroke="#5B515F" stroke-linecap="round" stroke-linejoin="round" stroke-miterlimit="10" d="M88.327,11.795
	c0,0,2.171,3.338,5.891,2.709"/>
<path fill="none" stroke="#5B515F" stroke-linecap="round" stroke-linejoin="round" stroke-miterlimit="10" d="M86.579,16.211
	c0,0,2.952,3.269,5.937,1.904"/>
</svg>
