<?xml version="1.0" encoding="utf-8"?>
<!-- Generator: Adobe Illustrator 17.0.0, SVG Export Plug-In . SVG Version: 6.00 Build 0)  -->
<!DOCTYPE svg PUBLIC "-//W3C//DTD SVG 1.1//EN" "http://www.w3.org/Graphics/SVG/1.1/DTD/svg11.dtd">
<svg version="1.1" id="Layer_1" xmlns="http://www.w3.org/2000/svg" xmlns:xlink="http://www.w3.org/1999/xlink" x="0px" y="0px"
	 width="140px" height="140px" viewBox="0 0 140 140" enable-background="new 0 0 140 140" xml:space="preserve">
<path fill="none" stroke="#5B515F" stroke-linecap="round" stroke-linejoin="round" stroke-miterlimit="10" d="M48.113,18.166
	c0,0-8.751,0.673-9.761,10.097s-4.375,62.939-4.375,62.939s-1.01,19.185,0,22.55h6.844v13.126c0,0,14.024,14.136,29.17,12.453
	v-1.683c0,0,15.819,2.019,26.589-7.741v-14.809c0,0,0.21-6.599,1.01-10.434c1.178,0.673,1.01,10.77,1.01,10.77
	s5.049,2.356,9.929-2.356c-0.337-3.534-7.994-77.412-7.994-81.703s-2.019-14.052-9.34-13.211c0,0,1.01-6.731-0.505-10.013
	c-1.515-3.282-8.583-7.331-23.224-7.32c-12.963,0.01-23.728,3.534-19.437,14.641L48.113,18.166z"/>
<path fill="none" stroke="#5B515F" stroke-linecap="round" stroke-linejoin="round" stroke-miterlimit="10" d="M97.534,21.072
	c0,0-6.592,11.315-4.825,28.48s3.927,33.501,4.825,43.166c0.675,7.262,0.055,11.948,0.055,11.948"/>
<path fill="none" stroke="#5B515F" stroke-linecap="round" stroke-linejoin="round" stroke-miterlimit="10" d="M47.108,11.721
	c0,0,11.775,9.648,21.62,9.351C83.372,20.63,90.689,8.153,90.689,8.153"/>
<path fill="none" stroke="#5B515F" stroke-linecap="round" stroke-linejoin="round" stroke-miterlimit="10" d="M48.113,18.166
	c0,0,10.013,3.708,20.615,2.906"/>
<path fill="none" stroke="#5B515F" stroke-linecap="round" stroke-linejoin="round" stroke-miterlimit="10" d="M91.194,18.166
	c0,0-14.135,3.931-21.204,3.019"/>
<path fill="none" stroke="#5B515F" stroke-linecap="round" stroke-linejoin="round" stroke-miterlimit="10" d="M52.435,15.442
	c0,0,14.757-6.733,32.564-0.827"/>
<line fill="none" stroke="#5B515F" stroke-linecap="round" stroke-linejoin="round" stroke-miterlimit="10" x1="66.204" y1="21.323" x2="63.641" y2="139.17"/>
<line fill="none" stroke="#5B515F" stroke-linecap="round" stroke-linejoin="round" stroke-miterlimit="10" x1="69.99" y1="139.333" x2="73.02" y2="21.315"/>
<path fill="none" stroke="#5B515F" stroke-linecap="round" stroke-linejoin="round" stroke-miterlimit="10" d="M96.102,113.753
	l-4.655,3.45c-2.767,1.134-5.998,1.045-8.389,0.723c-1.926-0.26-3.322-1.941-3.214-3.881c0.41-7.405,0.049-19.449-0.15-24.856
	c-0.064-1.731-0.111-2.782-0.111-2.782l16.519-4.586l0.623,4.937"/>
<path fill="none" stroke="#5B515F" stroke-linecap="round" stroke-linejoin="round" stroke-miterlimit="10" d="M82.983,94.598
	l12.346-4.963c0.981-0.394,1.573-1.4,1.442-2.449l-0.67-5.365l-16.519,4.586l0.205,6.108C79.841,94.13,81.484,95.2,82.983,94.598z"
	/>
<path fill="none" stroke="#5B515F" stroke-linecap="round" stroke-linejoin="round" stroke-miterlimit="10" d="M43.614,81.821
	l15.521,2.819l-2.675,31.436c-0.174,2.05-2.3,3.332-4.195,2.529l-11.445-4.851c-2.16-4.46,1.907-27.852,2.794-37.191
	s2.395-14.641,3.405-30.292S40.12,22.993,40.12,22.993"/>
<path fill="none" stroke="#5B515F" stroke-linecap="round" stroke-linejoin="round" stroke-miterlimit="10" d="M45.811,90.659
	l7.908,1.932c2.44,0.596,4.836-1.126,5.049-3.629l0.368-4.323l-15.521-2.819l-0.839,4.029
	C42.326,88.009,43.668,90.136,45.811,90.659z"/>
<circle fill="#5B515F" cx="69.376" cy="25.122" r="2.129"/>
<circle fill="#5B515F" cx="68.899" cy="46.649" r="2.129"/>
<circle fill="#5B515F" cx="68.421" cy="68.176" r="2.129"/>
<circle fill="#5B515F" cx="67.944" cy="89.702" r="2.129"/>
<circle fill="#5B515F" cx="67.466" cy="111.229" r="2.129"/>
</svg>
