<?xml version="1.0" encoding="utf-8"?>
<!-- Generator: Adobe Illustrator 17.0.0, SVG Export Plug-In . SVG Version: 6.00 Build 0)  -->
<!DOCTYPE svg PUBLIC "-//W3C//DTD SVG 1.1//EN" "http://www.w3.org/Graphics/SVG/1.1/DTD/svg11.dtd">
<svg version="1.1" id="Layer_1" xmlns="http://www.w3.org/2000/svg" xmlns:xlink="http://www.w3.org/1999/xlink" x="0px" y="0px"
	 width="140px" height="140px" viewBox="0 0 140 140" enable-background="new 0 0 140 140" xml:space="preserve">
<path fill="none" stroke="#5B515F" stroke-linecap="round" stroke-linejoin="round" stroke-miterlimit="10" d="M12.222,45.877
	c-1.313,1.464-1.947,3.408-1.778,5.367c0.493,5.698,1.414,19.155,0.888,35.635c-0.701,9.117-2.805,17.299,2.805,16.831
	c5.61-0.468,120.392,0.019,120.392,0.019s5.844-7.266,4.909-19.188c-0.935-11.922-5.642-18.702,0.101-22.909
	c0.132-2.571-2.205-1.169-2.439-4.675c-0.167-2.505,0.262-8.587-4.079-13.563c-3.181-3.645-8.046-5.366-12.864-4.921
	c-9.086,0.84-25.801,3.349-32.382,0.717c-4.306-2.871-8.613-5.202-19.389-3.522c-2.388,0.372-4.695,1.127-6.926,2.058
	c-1.58,0.66-4.029,1.277-7.115,0.762c-4.896-0.816-17.802-1.098-24.117-0.069c-1.453,0.237-2.958,0.073-4.3-0.534
	c-2.478-1.12-5.428-1.423-8.519,2.941C15.385,42.494,13.542,44.404,12.222,45.877z"/>
<path fill="none" stroke="#5B515F" stroke-linecap="round" stroke-linejoin="round" stroke-miterlimit="10" d="M10.36,49.242
	c0,0-10.483,10.052-9.782,14.961c0.701,3.507,10.882,8.423,10.882,8.423"/>
<path fill="none" stroke="#5B515F" stroke-linecap="round" stroke-linejoin="round" stroke-miterlimit="10" d="M11.401,69.417
	c0,0-10.148-3.929-9.785-9.246"/>
<path fill="none" stroke="#5B515F" stroke-linecap="round" stroke-linejoin="round" stroke-miterlimit="10" d="M11.053,60.17
	c0,0,5.794,6.907,0.348,24.172"/>
<polyline fill="none" stroke="#5B515F" stroke-linecap="round" stroke-linejoin="round" stroke-miterlimit="10" points="
	137.272,58.036 134.762,58.036 134.528,103.73 "/>
<line fill="none" stroke="#5B515F" stroke-width="2" stroke-linecap="round" stroke-linejoin="round" stroke-miterlimit="10" x1="23.254" y1="102.565" x2="33.072" y2="102.565"/>
<line fill="none" stroke="#5B515F" stroke-width="2" stroke-linecap="round" stroke-linejoin="round" stroke-miterlimit="10" x1="104.138" y1="102.87" x2="113.957" y2="102.87"/>
<path fill="none" stroke="#5B515F" stroke-linecap="round" stroke-linejoin="round" stroke-miterlimit="10" d="M58.572,38.53
	c0,0-15.592,4.974-15.763,9.763s0,17.617,0,17.617H52.9c0,0-0.17-15.503-0.171-15.565c-0.067-6.076,5.881-8.525,10.845-9.848
	c8.32-2.218,26.502-2.387,26.955,9.848c0.171,4.618-0.684,15.565-0.684,15.565h11.46V48.464c0,0-0.24-5.777-10.725-8.533"/>
<line fill="none" stroke="#5B515F" stroke-linecap="round" stroke-linejoin="round" stroke-miterlimit="10" x1="52.729" y1="50.345" x2="90.53" y2="50.345"/>
<line fill="none" stroke="#5B515F" stroke-linecap="round" stroke-linejoin="round" stroke-miterlimit="10" x1="17.409" y1="40.827" x2="53.506" y2="40.407"/>
<line fill="none" stroke="#5B515F" stroke-linecap="round" stroke-linejoin="round" stroke-miterlimit="10" x1="101.305" y1="40.233" x2="131.502" y2="41.886"/>
<rect x="21.087" y="54.279" fill="none" stroke="#5B515F" stroke-miterlimit="10" width="11.985" height="7.526"/>
<rect x="117.212" y="93.277" fill="none" stroke="#5B515F" stroke-linecap="round" stroke-linejoin="round" stroke-miterlimit="10" width="9.065" height="3.25"/>
</svg>
