<?xml version="1.0" encoding="utf-8"?>
<!-- Generator: Adobe Illustrator 17.0.0, SVG Export Plug-In . SVG Version: 6.00 Build 0)  -->
<!DOCTYPE svg PUBLIC "-//W3C//DTD SVG 1.1//EN" "http://www.w3.org/Graphics/SVG/1.1/DTD/svg11.dtd">
<svg version="1.1" id="Layer_1" xmlns="http://www.w3.org/2000/svg" xmlns:xlink="http://www.w3.org/1999/xlink" x="0px" y="0px"
	 width="140px" height="140px" viewBox="0 0 140 140" enable-background="new 0 0 140 140" xml:space="preserve">
<path fill="none" stroke="#5B515F" stroke-linecap="round" stroke-linejoin="round" stroke-miterlimit="10" d="M71.366,1.141
	c-2.39,0.113-4.762,0.508-6.818,0.883c-2.501,0.456-3.521,0.948-4.667,3.334c-0.201,0.418-1.019,4.218-1.258,4.289
	c-0.001,0-16.573,4.902-19.374,10.037c-2.801,5.135-23.109,81.465-23.109,81.465s13.539,3.268,15.873,3.268
	c1.634-2.334,12.605-32.712,12.605-32.712c0.467,3.301-2.568,58.856-0.934,62.357c4.902,3.968,26.624,5.135,26.624,5.135h2.192
	c0,0,21.723-1.167,26.624-5.135c1.634-3.501-1.401-59.057-0.934-62.357c0,0,10.971,30.378,12.605,32.712
	c2.334,0,15.873-3.268,15.873-3.268s-20.308-76.33-23.109-81.465c-2.8-5.133-19.36-10.033-19.374-10.037
	c-0.202-0.06-1.962-5.301-2.861-6.031C78.65,1.444,74.987,0.969,71.366,1.141z"/>
<path fill="none" stroke="#5B515F" stroke-linecap="round" stroke-linejoin="round" stroke-miterlimit="10" d="M39.899,18.76
	c0,0,7.986,11.595,4.718,52.944"/>
<polyline fill="none" stroke="#5B515F" stroke-linecap="round" stroke-linejoin="round" stroke-miterlimit="10" points="
	44.495,80.603 59.323,80.603 59.323,103.249 44.495,103.249 "/>
<path fill="none" stroke="#5B515F" stroke-linecap="round" stroke-linejoin="round" stroke-miterlimit="10" d="M102.908,18.76
	c0,0-7.986,11.595-4.718,52.944"/>
<polyline fill="none" stroke="#5B515F" stroke-linecap="round" stroke-linejoin="round" stroke-miterlimit="10" points="
	98.311,80.603 83.484,80.603 83.484,103.249 98.311,103.249 "/>
<polyline fill="none" stroke="#5B515F" stroke-linecap="round" stroke-linejoin="round" stroke-miterlimit="10" points="
	97.405,44.193 83.484,44.193 83.484,63.8 97.681,63.8 "/>
<path fill="none" stroke="#5B515F" stroke-linecap="round" stroke-linejoin="round" stroke-miterlimit="10" d="M58.622,9.646
	c0,0,0.739,10.014,2.294,14.021L65,23.833l-1.583,4.583l9.084,8.608C66.865,27.29,61.706,2.966,61.706,2.966"/>
<path fill="none" stroke="#5B515F" stroke-linecap="round" stroke-linejoin="round" stroke-miterlimit="10" d="M81.323,3.615
	c0,0-5.892,31.199-11.016,37.347l10.76-12.468l-1.025-4.441h5.124c0,0-0.079-12.302-0.982-14.408"/>
<line fill="none" stroke="#5B515F" stroke-linecap="round" stroke-linejoin="round" stroke-miterlimit="10" x1="70.307" y1="40.962" x2="70.307" y2="139.197"/>
<path fill="none" stroke="#5B515F" stroke-linecap="round" stroke-linejoin="round" stroke-miterlimit="10" d="M63.975,10.362
	c0,0,8.957-8.056,15.971,0"/>
<g>
	<g>
		<path fill="#5B515F" d="M73.061,45.792c1.935,0,1.935-3,0-3C71.127,42.792,71.127,45.792,73.061,45.792L73.061,45.792z"/>
	</g>
</g>
<g>
	<g>
		<path fill="#5B515F" d="M73.061,62.188c1.935,0,1.935-3,0-3C71.127,59.188,71.127,62.188,73.061,62.188L73.061,62.188z"/>
	</g>
</g>
<g>
	<g>
		<path fill="#5B515F" d="M73.061,78.584c1.935,0,1.935-3,0-3C71.127,75.584,71.127,78.584,73.061,78.584L73.061,78.584z"/>
	</g>
</g>
<g>
	<g>
		<path fill="#5B515F" d="M73.061,94.98c1.935,0,1.935-3,0-3C71.127,91.98,71.127,94.98,73.061,94.98L73.061,94.98z"/>
	</g>
</g>
<g>
	<g>
		<path fill="#5B515F" d="M73.061,111.376c1.935,0,1.935-3,0-3C71.127,108.376,71.127,111.376,73.061,111.376L73.061,111.376z"/>
	</g>
</g>
<g>
	<g>
		<path fill="#5B515F" d="M73.061,127.771c1.935,0,1.935-3,0-3C71.127,124.771,71.127,127.771,73.061,127.771L73.061,127.771z"/>
	</g>
</g>
</svg>
