<?xml version="1.0" encoding="utf-8"?>
<!-- Generator: Adobe Illustrator 17.0.0, SVG Export Plug-In . SVG Version: 6.00 Build 0)  -->
<!DOCTYPE svg PUBLIC "-//W3C//DTD SVG 1.1//EN" "http://www.w3.org/Graphics/SVG/1.1/DTD/svg11.dtd">
<svg version="1.1" id="Layer_1" xmlns="http://www.w3.org/2000/svg" xmlns:xlink="http://www.w3.org/1999/xlink" x="0px" y="0px"
	 width="140px" height="140px" viewBox="0 0 140 140" enable-background="new 0 0 140 140" xml:space="preserve">
<g>
	<g>
		<path fill="none" stroke="#59515F" stroke-linecap="round" stroke-linejoin="round" stroke-miterlimit="10" d="M70,2.333H47.667
			c0,0-0.305,9.448-2.08,15.522c-0.162,0.553-0.274,1.11-0.307,1.685c-0.4,6.828-1.533,33.43,0.054,46.127
			c0.333,7.333,0.667,19.333,1,29c0.333,9.667,0.667,38.667,1.333,40.667c0.626,1.879,8.02,5.524,14.165,0.981
			c0.751-0.555,1.19-1.437,1.218-2.371C63.366,123.255,63.667,79,63.667,79S65.333,55,70,39.333V5.444"/>
		<path fill="none" stroke="#59515F" stroke-linecap="round" stroke-linejoin="round" stroke-miterlimit="10" d="M45.333,18.667
			c0,0,5.115-5.435,6.615-15.102"/>
	</g>
	<g>
		<path fill="none" stroke="#59515F" stroke-linecap="round" stroke-linejoin="round" stroke-miterlimit="10" d="M70,2.333h22.333
			c0,0,0.311,9.642,2.135,15.706c0.128,0.425,0.214,0.852,0.24,1.295c0.388,6.482,1.562,33.504-0.042,46.332
			C94.333,73,94,85,93.667,94.667c-0.333,9.667-0.667,38.667-1.333,40.667c-0.626,1.879-8.02,5.524-14.165,0.981
			c-0.751-0.555-1.19-1.437-1.218-2.371C76.634,123.255,76.333,79,76.333,79S74.667,55,70,39.333V6.167"/>
		<path fill="none" stroke="#59515F" stroke-linecap="round" stroke-linejoin="round" stroke-miterlimit="10" d="M94.667,18.667
			c0,0-5.116-5.435-6.616-15.102"/>
	</g>
	<path fill="none" stroke="#59515F" stroke-linecap="round" stroke-linejoin="round" stroke-miterlimit="10" d="M47.667,2.333
		c0,0,19.833,7,44.667,0"/>
	<path fill="none" stroke="#59515F" stroke-linecap="round" stroke-linejoin="round" stroke-miterlimit="10" d="M74.658,8.923
		c5.306-0.336,11.143-1.211,17.286-2.943"/>
	<path fill="none" stroke="#59515F" stroke-linecap="round" stroke-linejoin="round" stroke-miterlimit="10" d="M47.277,5.98
		c0,0,9.115,3.217,22.723,3.108"/>
	<path fill="none" stroke="#59515F" stroke-linecap="round" stroke-linejoin="round" stroke-miterlimit="10" d="M70,33.5
		c0,0,4.5,0.375,4.5-4.75s0-23.306,0-23.306"/>
	
		<circle fill="none" stroke="#59515F" stroke-linecap="round" stroke-linejoin="round" stroke-miterlimit="10" cx="72.25" cy="7.803" r="1.08"/>
</g>
</svg>
