<?xml version="1.0" encoding="utf-8"?>
<!-- Generator: Adobe Illustrator 17.0.0, SVG Export Plug-In . SVG Version: 6.00 Build 0)  -->
<!DOCTYPE svg PUBLIC "-//W3C//DTD SVG 1.1//EN" "http://www.w3.org/Graphics/SVG/1.1/DTD/svg11.dtd">
<svg version="1.1" id="Layer_1" xmlns="http://www.w3.org/2000/svg" xmlns:xlink="http://www.w3.org/1999/xlink" x="0px" y="0px"
	 width="140px" height="140px" viewBox="0 0 140 140" enable-background="new 0 0 140 140" xml:space="preserve">
<path fill="none" stroke="#5B515F" stroke-width="1.5" stroke-linecap="round" stroke-linejoin="round" stroke-miterlimit="10" d="
	M57.5,11.333c0,0-14.667,9-18.5,10.167s-5.167,7.833-6.667,17.5c-1.5,9.667-5.667,28.5-5.167,35.5s-2,17-3.833,22.667
	C21.5,102.833,21.167,108,21.167,108l11.333,1.833l0.833-8c0,0,0.5-3.333,2.667-5.667c2.167-2.333,8.333-13.833,8.333-13.833
	c0.667,2.333,3.5,45.5,2.667,50c2.833,4,13.667,7.5,25.5,4.833c11.833-2.667,27.667-11.667,28.5-15.333c0.333-5,0-13.333,0-13.333
	s6.833,2.167,8.5-0.333c0.5-2.833,0-5.5,0-5.5s1.167-3.833,3.5-4.833s0.833-3.167,1.333-5c0.5-1.833,4.833-12.667,7.333-15
	c2.5-2.333-8.5-47.667-12.667-55.167s-29.167-14-29.167-14l-2.535-5.07c-0.618-1.235-1.856-2.033-3.236-2.084
	C68.83,1.318,56.446,1.846,57.5,11.333z"/>
<path fill="none" stroke="#5B515F" stroke-width="1.5" stroke-linecap="round" stroke-linejoin="round" stroke-miterlimit="10" d="
	M57.696,8.176c0,0,3.638,7.991,6.138,9.157c0,0,10.125-4.638,12.729-14.736"/>
<path fill="none" stroke="#5B515F" stroke-width="1.5" stroke-linecap="round" stroke-linejoin="round" stroke-miterlimit="10" d="
	M57.5,11.333l-0.667,14.333c0,0,3.755-8.249,5.794-9.291"/>
<path fill="none" stroke="#5B515F" stroke-width="1.5" stroke-linecap="round" stroke-linejoin="round" stroke-miterlimit="10" d="
	M63.833,17.333l9,11c0,0,1.625-7.333,3.729-11s2.871-9.467,2.871-9.467"/>
<path fill="none" stroke="#5B515F" stroke-width="1.5" stroke-linecap="round" stroke-linejoin="round" stroke-miterlimit="10" d="
	M58.978,10.764c0,0,7.851-6.876,15.982-4.027"/>
<path fill="none" stroke="#5B515F" stroke-width="1.5" stroke-linecap="round" stroke-linejoin="round" stroke-miterlimit="10" d="
	M101.115,84.899c0,0-1.282-11.065-0.282-17.565C102.5,68,104.889,69.667,100.611,87c-1.444,5.5-3.778,16.5-3.778,16.5
	s-0.833,3.167,4.167,5"/>
<path fill="none" stroke="#5B515F" stroke-width="1.5" stroke-linecap="round" stroke-linejoin="round" stroke-miterlimit="10" d="
	M109.666,106.847c0,0-9.603-7.014-12.885-2.347"/>
<line fill="none" stroke="#5B515F" stroke-width="1.5" stroke-linecap="round" stroke-linejoin="round" stroke-miterlimit="10" x1="22.377" y1="100.589" x2="33.333" y2="101.833"/>
<path fill="none" stroke="#5B515F" stroke-width="1.5" stroke-linecap="round" stroke-linejoin="round" stroke-miterlimit="10" d="
	M98.507,95.852c0,0,8.056-0.377,12.524,3.719"/>
<polyline fill="none" stroke="#5B515F" stroke-width="1.5" stroke-linecap="round" stroke-linejoin="round" stroke-miterlimit="10" points="
	93.09,13.44 92.56,15.949 82.352,12.4 83.038,9.692 "/>
<polyline fill="none" stroke="#5B515F" stroke-width="1.5" stroke-linecap="round" stroke-linejoin="round" stroke-miterlimit="10" points="
	45.218,18.5 46.667,20.667 54.667,16 53.287,13.869 "/>
<path fill="none" stroke="#5B515F" stroke-width="1.5" stroke-linecap="round" stroke-linejoin="round" stroke-miterlimit="10" d="
	M104.769,18.595c0,0-13.936,18.905-10.103,30.571c3.833,11.667,6.167,18.167,6.167,18.167"/>
<path fill="none" stroke="#5B515F" stroke-width="1.5" stroke-linecap="round" stroke-linejoin="round" stroke-miterlimit="10" d="
	M38.108,21.9c0,0,0.608,17.267,0,22.6c-0.608,5.333,3.225,8.833,3.392,15s2.833,22.833,2.833,22.833"/>
<polyline fill="none" stroke="#5B515F" stroke-width="1.5" stroke-linecap="round" stroke-linejoin="round" stroke-miterlimit="10" points="
	38.233,42.964 53.333,42.964 53.333,51 39.249,51 "/>
<polyline fill="none" stroke="#5B515F" stroke-width="1.5" stroke-linecap="round" stroke-linejoin="round" stroke-miterlimit="10" points="
	41.891,64.546 51.833,64.546 51.833,51 "/>
<line fill="none" stroke="#5B515F" stroke-width="1.5" stroke-linecap="round" stroke-linejoin="round" stroke-miterlimit="10" x1="44.333" y1="51" x2="44.333" y2="64.546"/>
<line fill="none" stroke="#5B515F" stroke-width="1.5" stroke-linecap="round" stroke-linejoin="round" stroke-miterlimit="10" x1="47.833" y1="51" x2="47.833" y2="64.546"/>
<polygon fill="none" stroke="#5B515F" stroke-width="1.5" stroke-linecap="round" stroke-linejoin="round" stroke-miterlimit="10" points="
	69,42.964 69,52.117 91.333,54.5 91.333,46 "/>
<polyline fill="none" stroke="#5B515F" stroke-width="1.5" stroke-linecap="round" stroke-linejoin="round" stroke-miterlimit="10" points="
	70,52.223 70,72.25 90.25,75 90.25,54.384 "/>
<line fill="none" stroke="#5B515F" stroke-width="1.5" stroke-linecap="round" stroke-linejoin="round" stroke-miterlimit="10" x1="77.745" y1="53.05" x2="77.745" y2="73.302"/>
<line fill="none" stroke="#5B515F" stroke-width="1.5" stroke-linecap="round" stroke-linejoin="round" stroke-miterlimit="10" x1="83.535" y1="53.668" x2="83.535" y2="74.088"/>
<path fill="none" stroke="#5B515F" stroke-width="1.5" stroke-linecap="round" stroke-linejoin="round" stroke-miterlimit="10" d="
	M60.981,18.1c0,0-3.814,62.067-4.148,83.733c-0.333,21.667-0.015,35.512-0.015,35.512"/>
<path fill="none" stroke="#5B515F" stroke-width="1.5" stroke-linecap="round" stroke-linejoin="round" stroke-miterlimit="10" d="
	M64.866,18.595c0,0-3.654,57.818-3.885,79.111s0,40.258,0,40.258"/>
<circle fill="#5B515F" cx="62.872" cy="19.662" r="1.562"/>
<circle fill="#5B515F" cx="61.955" cy="36.037" r="1.562"/>
<circle fill="#5B515F" cx="80.995" cy="50.294" r="1.562"/>
<circle fill="#5B515F" cx="45.218" cy="47.727" r="1.562"/>
<circle fill="#5B515F" cx="61.039" cy="52.412" r="1.562"/>
<circle fill="#5B515F" cx="60.122" cy="68.787" r="1.562"/>
<circle fill="#5B515F" cx="59.205" cy="85.162" r="1.562"/>
<circle fill="#5B515F" cx="58.831" cy="101.211" r="1.562"/>
<circle fill="#5B515F" cx="58.831" cy="117.912" r="1.562"/>
<g>
	<defs>
		<path id="SVGID_1_" d="M108.497,21.9c0,0,5.499,10.225,5.876,16.725l-11.353,2.125l-2.521-8l0.969-7.75L108.497,21.9z"/>
	</defs>
	<clipPath id="SVGID_2_">
		<use xlink:href="#SVGID_1_"  overflow="visible"/>
	</clipPath>
	
		<ellipse clip-path="url(#SVGID_2_)" fill="none" stroke="#5B515F" stroke-miterlimit="10" cx="108.859" cy="30.859" rx="7.391" ry="7.766"/>
</g>
</svg>
