<?xml version="1.0" encoding="utf-8"?>
<!-- Generator: Adobe Illustrator 17.0.0, SVG Export Plug-In . SVG Version: 6.00 Build 0)  -->
<!DOCTYPE svg PUBLIC "-//W3C//DTD SVG 1.1//EN" "http://www.w3.org/Graphics/SVG/1.1/DTD/svg11.dtd">
<svg version="1.1" id="Layer_1" xmlns="http://www.w3.org/2000/svg" xmlns:xlink="http://www.w3.org/1999/xlink" x="0px" y="0px"
	 width="140px" height="140px" viewBox="0 0 140 140" enable-background="new 0 0 140 140" xml:space="preserve">
<path fill="none" stroke="#5B515F" stroke-linecap="round" stroke-linejoin="round" stroke-miterlimit="10" d="M84.453,3.399
	c11.008,4.503,10.651,14.202,10.651,14.202s22.63,5.681,28.074,37.872c1.42,5.917,8.521,23.433,5.207,35.031
	c-2.13,6.864-0.237,26.747-7.574,34.321c-0.71,2.604,2.13,10.415-3.077,13.018c-4.971,1.183-12.308,2.84-13.965,0
	c-1.183-4.497,0-25.09,3.55-38.345c3.55-13.255,0.473-17.042-1.183-23.197c-1.657-6.154-1.183-12.782-3.55-11.835
	c-1.894,2.604-3.55,24.853,2.13,38.819c1.229,2.277-2.13,19.173-2.604,27.457c-0.315,5.501-10.346,5.366-14.142,5.497
	c-11.564,0.399-23.2,0.107-34.77,0.128c-4.15,0.007-16.439,0.639-16.797-5.625c-0.473-8.284-3.832-25.18-2.604-27.457
	c5.681-13.965,4.024-36.215,2.13-38.819c-2.367-0.947-1.894,5.681-3.55,11.835c-1.657,6.154-4.734,9.941-1.183,23.197
	s4.734,33.848,3.55,38.345c-1.657,2.84-8.995,1.183-13.965,0c-5.207-2.604-2.367-10.415-3.077-13.018
	c-7.338-7.574-5.444-27.457-7.574-34.321c-3.314-11.598,3.787-29.114,5.207-35.031c5.444-32.191,25.327-36.452,25.327-36.452
	S39.007,7.659,50.369,3.399C50.369,3.399,68.831-2.992,84.453,3.399z"/>
<path fill="none" stroke="#5B515F" stroke-linecap="round" stroke-linejoin="round" stroke-miterlimit="10" d="M36.283,129.096
	c0,0,28.106-13.993,65.951,0"/>
<path fill="none" stroke="#5B515F" stroke-linecap="round" stroke-linejoin="round" stroke-miterlimit="10" d="M40.664,19.021
	c0,0,8.521,9.231,10.651,14.912c4.261,0.71,11.598-4.024,15.622,0c1.42,4.497,2.32,8.995,2.32,8.995v79.949"/>
<path fill="none" stroke="#5B515F" stroke-linecap="round" stroke-linejoin="round" stroke-miterlimit="10" d="M68.15,38.186
	c0,0,6.125-11.828,5.415-20.349c3.077,0.71,15.622,4.497,21.54-0.237c0,0-11.125,13.729-24.241,14.316"/>
<path fill="none" stroke="#5B515F" stroke-linecap="round" stroke-linejoin="round" stroke-miterlimit="10" d="M65.866,33.107
	c0,0-16.444-11.482-15.023-17.636s9.468,4.734,16.096,3.55c3.091,0,7.052-7.339,12.782,0"/>
<path fill="none" stroke="#5B515F" stroke-linecap="round" stroke-linejoin="round" stroke-miterlimit="10" d="M17.704,124.825
	c0,0,14.442-1.4,16.926-4.251"/>
<path fill="none" stroke="#5B515F" stroke-linecap="round" stroke-linejoin="round" stroke-miterlimit="10" d="M12.203,109.447
	c0,0,17.265-1.269,20.377-3.833"/>
<path fill="none" stroke="#5B515F" stroke-linecap="round" stroke-linejoin="round" stroke-miterlimit="10" d="M10.855,94.349
	c0,0,14.704-6.094,18.943-1.774"/>
<path fill="none" stroke="#5B515F" stroke-linecap="round" stroke-linejoin="round" stroke-miterlimit="10" d="M9.489,79.311
	c0,0,16.157,0.189,20.47,5.218"/>
<path fill="none" stroke="#5B515F" stroke-linecap="round" stroke-linejoin="round" stroke-miterlimit="10" d="M12.833,63.882
	c0,0,14.452,4.069,20.668,6.47"/>
<line fill="none" stroke="#5B515F" stroke-linecap="round" stroke-linejoin="round" stroke-miterlimit="10" x1="16.991" y1="47.963" x2="35.985" y2="55.59"/>
<path fill="none" stroke="#5B515F" stroke-linecap="round" stroke-linejoin="round" stroke-miterlimit="10" d="M23.398,33.107
	c0,0,14.425,2.483,12.532,31.36"/>
<path fill="none" stroke="#5B515F" stroke-linecap="round" stroke-linejoin="round" stroke-miterlimit="10" d="M112.811,30.47
	c0,0-12.211,7.723-10.225,33.997"/>
<path fill="none" stroke="#5B515F" stroke-linecap="round" stroke-linejoin="round" stroke-miterlimit="10" d="M35.985,59.97
	c0,0,32.244,21.066,66.393,0"/>
<path fill="none" stroke="#5B515F" stroke-linecap="round" stroke-linejoin="round" stroke-miterlimit="10" d="M37.586,98.407
	c0,0,29.995-23.197,63.607,0"/>
<line fill="none" stroke="#5B515F" stroke-width="2" stroke-linecap="round" stroke-linejoin="round" stroke-miterlimit="10" x1="74.656" y1="38.186" x2="74.656" y2="62.337"/>
<path fill="none" stroke="#5B515F" stroke-linecap="round" stroke-linejoin="round" stroke-miterlimit="10" d="M78.063,50.261
	l26.116-5.677c0,0-14.829-18.781-14.031-21.934"/>
<polyline fill="none" stroke="#5B515F" stroke-linecap="round" stroke-linejoin="round" stroke-miterlimit="10" points="
	46.711,26.32 33.501,43.464 66.228,51.776 "/>
<path fill="none" stroke="#5B515F" stroke-linecap="round" stroke-linejoin="round" stroke-miterlimit="10" d="M98.787,19.021
	c0,0-12.44,13.018-9.837,82.845c0.473,11.125,0.754,23.478,0.754,23.478"/>
<path fill="none" stroke="#5B515F" stroke-linecap="round" stroke-linejoin="round" stroke-miterlimit="10" d="M36.283,20.781
	c0,0,12.841-1.51,13.582,88.666c0,12.065,0,15.378,0,15.378"/>
<polyline fill="none" stroke="#5B515F" stroke-linecap="round" stroke-linejoin="round" stroke-miterlimit="10" points="
	101.146,86.782 101.259,114.884 69.258,101.155 38.442,114.884 37.112,89.293 "/>
<path fill="none" stroke="#5B515F" stroke-linecap="round" stroke-linejoin="round" stroke-miterlimit="10" d="M102.411,56.639
	c0,0,14.471-5.508,18.139-11.622"/>
<path fill="none" stroke="#5B515F" stroke-linecap="round" stroke-linejoin="round" stroke-miterlimit="10" d="M105.39,72.802
	c0,0,15.146-6.205,19.828-10.466"/>
<path fill="none" stroke="#5B515F" stroke-linecap="round" stroke-linejoin="round" stroke-miterlimit="10" d="M108.551,84.528
	c0,0,11.5-9.91,20.566-4.216"/>
<path fill="none" stroke="#5B515F" stroke-linecap="round" stroke-linejoin="round" stroke-miterlimit="10" d="M108.874,91.027
	c0,0,14.917-0.889,18.681,4.265"/>
<path fill="none" stroke="#5B515F" stroke-linecap="round" stroke-linejoin="round" stroke-miterlimit="10" d="M104.179,120.575
	c0,0,9.913,5.671,16.633,4.251"/>
<path fill="none" stroke="#5B515F" stroke-linecap="round" stroke-linejoin="round" stroke-miterlimit="10" d="M105.765,106.515
	c0,0,15.712,6.116,20.397,4.047"/>
</svg>
