<?xml version="1.0" encoding="utf-8"?>
<!-- Generator: Adobe Illustrator 17.0.0, SVG Export Plug-In . SVG Version: 6.00 Build 0)  -->
<!DOCTYPE svg PUBLIC "-//W3C//DTD SVG 1.1//EN" "http://www.w3.org/Graphics/SVG/1.1/DTD/svg11.dtd">
<svg version="1.1" id="Layer_1" xmlns="http://www.w3.org/2000/svg" xmlns:xlink="http://www.w3.org/1999/xlink" x="0px" y="0px"
	 width="140px" height="140px" viewBox="0 0 140 140" enable-background="new 0 0 140 140" xml:space="preserve">
<path fill="none" stroke="#5B515F" stroke-linecap="round" stroke-linejoin="round" stroke-miterlimit="10" d="M71.515,138.64
	c28.183,1.521,29.665-3.822,29.665-3.822C96.304,112.527,93.982,70,93.982,70h-3.483c-1.393-3.516-3.019-29.69-3.019-29.69h-6.966
	l3.019-13.7L83.3,37.059l5.109-0.232l3.019-35.76h-4.644L75.869,40.078H69.68H63.49L52.577,1.067h-4.644l3.019,35.76l5.109,0.232
	L55.828,26.61l3.019,13.7H51.88c0,0-1.625,26.174-3.019,29.69h-3.483c0,0-2.322,42.526-7.198,64.818c0,0,1.482,5.343,29.665,3.822
	C69.067,138.574,70.293,138.574,71.515,138.64z"/>
<line fill="none" stroke="#5B515F" stroke-linecap="round" stroke-linejoin="round" stroke-miterlimit="10" x1="53.926" y1="5.891" x2="55.828" y2="26.61"/>
<line fill="none" stroke="#5B515F" stroke-linecap="round" stroke-linejoin="round" stroke-miterlimit="10" x1="83.532" y1="26.61" x2="85.434" y2="5.891"/>
<line fill="none" stroke="#5B515F" stroke-linecap="round" stroke-linejoin="round" stroke-miterlimit="10" x1="49.618" y1="21.032" x2="55.316" y2="21.032"/>
<line fill="none" stroke="#5B515F" stroke-linecap="round" stroke-linejoin="round" stroke-miterlimit="10" x1="50.638" y1="24.752" x2="55.657" y2="24.752"/>
<line fill="none" stroke="#5B515F" stroke-linecap="round" stroke-linejoin="round" stroke-miterlimit="10" x1="89.297" y1="21.032" x2="84.483" y2="21.032"/>
<line fill="none" stroke="#5B515F" stroke-linecap="round" stroke-linejoin="round" stroke-miterlimit="10" x1="89.297" y1="24.752" x2="84.15" y2="24.752"/>
<line fill="none" stroke="#5B515F" stroke-linecap="round" stroke-linejoin="round" stroke-miterlimit="10" x1="53.148" y1="36.927" x2="54.877" y2="40.31"/>
<line fill="none" stroke="#5B515F" stroke-linecap="round" stroke-linejoin="round" stroke-miterlimit="10" x1="86.478" y1="36.927" x2="84.749" y2="40.31"/>
<circle fill="#5B515F" cx="54.877" cy="42.986" r="1.274"/>
<g>
	<circle fill="#5B515F" cx="70.112" cy="44.006" r="1.274"/>
	<circle fill="#5B515F" cx="70.112" cy="57.13" r="1.274"/>
	<circle fill="#5B515F" cx="70.112" cy="67.707" r="1.274"/>
	<circle fill="#5B515F" cx="70.112" cy="79.302" r="1.274"/>
	<circle fill="#5B515F" cx="70.112" cy="86.82" r="1.274"/>
	<circle fill="#5B515F" cx="70.112" cy="97.396" r="1.274"/>
	<circle fill="#5B515F" cx="70.112" cy="129.507" r="1.274"/>
	<circle fill="#5B515F" cx="70.112" cy="118.803" r="1.274"/>
	<circle fill="#5B515F" cx="70.112" cy="108.482" r="1.274"/>
</g>
<circle fill="#5B515F" cx="83.532" cy="42.986" r="1.274"/>
<line fill="none" stroke="#5B515F" stroke-miterlimit="10" x1="66.099" y1="40.078" x2="66.781" y2="138.695"/>
<line fill="none" stroke="#5B515F" stroke-miterlimit="10" x1="73.744" y1="40.078" x2="75.103" y2="138.695"/>
</svg>
