<?xml version="1.0" encoding="utf-8"?>
<!-- Generator: Adobe Illustrator 17.0.0, SVG Export Plug-In . SVG Version: 6.00 Build 0)  -->
<!DOCTYPE svg PUBLIC "-//W3C//DTD SVG 1.1//EN" "http://www.w3.org/Graphics/SVG/1.1/DTD/svg11.dtd">
<svg version="1.1" id="Layer_1" xmlns="http://www.w3.org/2000/svg" xmlns:xlink="http://www.w3.org/1999/xlink" x="0px" y="0px"
	 width="140px" height="140px" viewBox="0 0 140 140" enable-background="new 0 0 140 140" xml:space="preserve">
<polyline fill="none" stroke="#5B515F" stroke-linecap="round" stroke-linejoin="round" stroke-miterlimit="10" points="
	42.174,49.42 48.125,49.42 48.125,76.716 42.174,82.381 "/>
<polyline fill="none" stroke="#5B515F" stroke-linecap="round" stroke-linejoin="round" stroke-miterlimit="10" points="
	48.125,54.57 45.15,58.433 42.073,58.433 "/>
<path fill="none" stroke="#5B515F" stroke-linecap="round" stroke-linejoin="round" stroke-miterlimit="10" d="M92.823,0.752v9.27
	c0,0,3.09,1.803,3.863,24.978s0.515,96.563-1.931,101.198c-3.225,3.344-11.878,3.808-18.869,2.624
	c-0.94-0.159-1.636-0.95-1.666-1.902c-0.258-8.384-0.762-42.195-2.154-54.956c-0.214-1.959-0.339-3.915-0.352-5.886
	c-0.035-5.268-0.636-15.477-2.141-18.676c-1.505,3.199-2.106,13.408-2.141,18.676c-0.013,1.971-0.139,3.927-0.352,5.886
	c-1.392,12.761-1.895,46.572-2.154,54.956c-0.029,0.953-0.726,1.743-1.666,1.902c-6.991,1.184-15.644,0.72-18.869-2.624
	C41.945,131.564,41.688,58.176,42.46,35s3.863-24.978,3.863-24.978v-9.27C46.323,0.752,77.523,2.812,92.823,0.752z"/>
<polyline fill="none" stroke="#5B515F" stroke-linecap="round" stroke-linejoin="round" stroke-miterlimit="10" points="
	96.972,49.42 91.021,49.42 91.021,76.716 96.972,82.381 "/>
<polyline fill="none" stroke="#5B515F" stroke-linecap="round" stroke-linejoin="round" stroke-miterlimit="10" points="
	91.021,54.57 93.996,58.433 97.073,58.433 "/>
<path fill="none" stroke="#5B515F" stroke-linecap="round" stroke-linejoin="round" stroke-miterlimit="10" d="M46.323,10.023
	c0,0,28.883,3.863,46.5,0"/>
<line fill="none" stroke="#5B515F" stroke-linecap="round" stroke-linejoin="round" stroke-miterlimit="10" x1="54.555" y1="1.191" x2="54.555" y2="10.888"/>
<line fill="none" stroke="#5B515F" stroke-linecap="round" stroke-linejoin="round" stroke-miterlimit="10" x1="59.455" y1="1.642" x2="59.455" y2="11.264"/>
<line fill="none" stroke="#5B515F" stroke-linecap="round" stroke-linejoin="round" stroke-miterlimit="10" x1="77.74" y1="1.642" x2="77.74" y2="11.664"/>
<line fill="none" stroke="#5B515F" stroke-linecap="round" stroke-linejoin="round" stroke-miterlimit="10" x1="82.631" y1="1.525" x2="82.631" y2="11.264"/>
<path fill="none" stroke="#5B515F" stroke-linecap="round" stroke-linejoin="round" stroke-miterlimit="10" d="M67.862,11.664
	v25.911c0,0,3.953-0.258,4.211-6.953c0.258-6.695,0-18.959,0-18.959"/>
<path fill="none" stroke="#5B515F" stroke-linecap="round" stroke-linejoin="round" stroke-miterlimit="10" d="M67.862,37.575
	c0,0-1.562,12.103,1.711,19.828"/>
<circle fill="#5B515F" cx="70.025" cy="6.04" r="2.586"/>
</svg>
