<?xml version="1.0" encoding="utf-8"?>
<!-- Generator: Adobe Illustrator 17.0.0, SVG Export Plug-In . SVG Version: 6.00 Build 0)  -->
<!DOCTYPE svg PUBLIC "-//W3C//DTD SVG 1.1//EN" "http://www.w3.org/Graphics/SVG/1.1/DTD/svg11.dtd">
<svg version="1.1" id="Layer_1" xmlns="http://www.w3.org/2000/svg" xmlns:xlink="http://www.w3.org/1999/xlink" x="0px" y="0px"
	 width="140px" height="140px" viewBox="0 0 140 140" enable-background="new 0 0 140 140" xml:space="preserve">
<path fill="none" stroke="#5B515F" stroke-linecap="round" stroke-linejoin="round" stroke-miterlimit="10" d="M44.993,11.81
	c-5.314,2.657-24.974,0-24.974,7.439s0,120.088,0,120.088h50.5h50.5c0,0,0-112.649,0-120.088s-19.66-4.782-24.974-7.439"/>
<path fill="none" stroke="#5B515F" stroke-linecap="round" stroke-linejoin="round" stroke-miterlimit="10" d="M101.942,12.873
	c0-12.31-15.689-12.31-15.689-12.31H70.539H54.826c0,0-15.689,0-15.689,12.31"/>
<path fill="none" stroke="#5B515F" stroke-linecap="round" stroke-linejoin="round" stroke-miterlimit="10" d="M96.292,11.81
	c0,0-6.786,28.428-25.649,28.428S44.993,11.81,44.993,11.81S66.823,1.714,96.292,11.81z"/>
<path fill="none" stroke="#5B515F" stroke-linecap="round" stroke-linejoin="round" stroke-miterlimit="10" d="M53.658,40.757
	C43.396,30.556,39.362,13.659,39.362,13.659"/>
<path fill="none" stroke="#5B515F" stroke-linecap="round" stroke-linejoin="round" stroke-miterlimit="10" d="M101.923,13.659
	c0,0-4.01,16.797-14.205,27.008"/>
<path fill="none" stroke="#5B515F" stroke-linecap="round" stroke-linejoin="round" stroke-miterlimit="10" d="M81.737,36.772
	c0,0,6.211-0.519,5.945,5.06c0.008,2.125,0.814,4.517,0.008,6.111c-0.805,1.594-0.008,6.376-2.798,8.502s-5.712-7.705-7.838-8.502
	s-6.201-1.191-6.201-1.191s-4.075,0.394-6.201,1.191c-2.125,0.797-5.048,10.627-7.838,8.502c-2.79-2.125-1.993-6.908-2.798-8.502
	s0-3.985,0.008-6.111c-0.266-5.579,5.945-5.06,5.945-5.06s0.166,4.529,9.996,4.529S81.737,36.772,81.737,36.772z"/>
<path fill="none" stroke="#5B515F" stroke-linecap="round" stroke-linejoin="round" stroke-miterlimit="10" d="M53.947,43.072
	c0,0,4.064-1.682,8.315,0"/>
<path fill="none" stroke="#5B515F" stroke-linecap="round" stroke-linejoin="round" stroke-miterlimit="10" d="M54.018,47.942
	c0,0,3.728,0.541,8.244-1.191"/>
<path fill="none" stroke="#5B515F" stroke-linecap="round" stroke-linejoin="round" stroke-miterlimit="10" d="M87.789,43.072
	c0,0-4.064-1.682-8.315,0"/>
<path fill="none" stroke="#5B515F" stroke-linecap="round" stroke-linejoin="round" stroke-miterlimit="10" d="M87.718,47.942
	c0,0-3.728,0.541-8.244-1.191"/>
<line fill="none" stroke="#5B515F" stroke-linecap="round" stroke-linejoin="round" stroke-miterlimit="10" x1="64.654" y1="47.942" x2="64.654" y2="139.337"/>
<line fill="none" stroke="#5B515F" stroke-linecap="round" stroke-linejoin="round" stroke-miterlimit="10" x1="76.094" y1="47.665" x2="76.094" y2="139.337"/>
<polyline fill="none" stroke="#5B515F" stroke-linecap="round" stroke-linejoin="round" stroke-miterlimit="10" points="
	20.019,88.326 49.776,88.326 49.776,133.758 20.019,133.758 "/>
<line fill="none" stroke="#5B515F" stroke-linecap="round" stroke-linejoin="round" stroke-miterlimit="10" x1="25.599" y1="88.326" x2="25.599" y2="133.758"/>
<g>
	<circle fill="#5B515F" cx="40.742" cy="124.193" r="3.188"/>
	<circle fill="#5B515F" cx="70.854" cy="70.26" r="2.811"/>
	<circle fill="#5B515F" cx="70.854" cy="99.352" r="2.811"/>
	<circle fill="#5B515F" cx="70.854" cy="128.444" r="2.811"/>
</g>
</svg>
