<?xml version="1.0" encoding="utf-8"?>
<!-- Generator: Adobe Illustrator 17.0.0, SVG Export Plug-In . SVG Version: 6.00 Build 0)  -->
<!DOCTYPE svg PUBLIC "-//W3C//DTD SVG 1.1//EN" "http://www.w3.org/Graphics/SVG/1.1/DTD/svg11.dtd">
<svg version="1.1" id="Layer_1" xmlns="http://www.w3.org/2000/svg" xmlns:xlink="http://www.w3.org/1999/xlink" x="0px" y="0px"
	 width="140px" height="140px" viewBox="0 0 140 140" enable-background="new 0 0 140 140" xml:space="preserve">
<path fill="none" stroke="#5C515F" stroke-linecap="round" stroke-linejoin="round" stroke-miterlimit="10" d="M101.515,85.949
	c-0.625-19.138-3.559-50.675-3.559-50.675s-1.206-19.906-3.82-21.917C79.924,11.373,75.083,6.81,73.809,5.247
	c-0.137-0.168-0.405-0.075-0.415,0.142c-0.258,5.555-2.251,43.69-8.956,57.657c0,0,11.968-15.349,12.169-55.363"/>
<path fill="none" stroke="#5C515F" stroke-linecap="round" stroke-linejoin="round" stroke-miterlimit="10" d="M86.949,84.169
	c-4.46-22.567-1.762-36.529-0.857-39.244c1.005-3.016,1.206-4.826,2.413-2.011c1.617,4.312,2.06,27.316,2.176,42.023"/>
<path fill="none" stroke="#5C515F" stroke-linecap="round" stroke-linejoin="round" stroke-miterlimit="10" d="M71.032,100.132
	c-4.309-3.348-6.342-11.372-6.342-11.372s-2.701,15.282-12.956,12.467c-10.255-2.815-11.461-6.635-11.059-9.249
	c6.837-27.145,3.619-44.036,2.614-47.052c-1.005-3.016-1.206-4.826-2.413-2.011c-2.413,6.434-2.212,54.492-2.212,54.492
	s-4.223,0.201-10.657,0.804c-1.408-11.059,3.418-62.937,3.418-62.937s1.206-19.906,3.82-21.917
	C52.539,10.943,55.957,4.71,55.957,4.71s1.243,43.255,8.481,58.336c0,0-11.463-15.349-11.665-55.363"/>
<path fill="none" stroke="#5C515F" stroke-linecap="round" stroke-linejoin="round" stroke-miterlimit="10" d="M42.114,41.681
	c0,0,0.975-18.673-6.867-28.325"/>
<path fill="none" stroke="#5C515F" stroke-linecap="round" stroke-linejoin="round" stroke-miterlimit="10" d="M87.204,41.681
	c0,0-0.975-18.673,6.867-28.325"/>
<path fill="none" stroke="#5C515F" stroke-linecap="round" stroke-linejoin="round" stroke-miterlimit="10" d="M73.451,82.526
	c0,0-4.022,32.172-3.619,43.633c3.619,0.603,13.145,1.408,13.145,1.408v11.461h25.662v-7.641l5.429,0.603l1.609-43.231
	L73.451,82.526z"/>
<line fill="none" stroke="#5C515F" stroke-linecap="round" stroke-linejoin="round" stroke-miterlimit="10" x1="82.977" y1="113.09" x2="70.329" y2="113.09"/>
<line fill="none" stroke="#5C515F" stroke-linecap="round" stroke-linejoin="round" stroke-miterlimit="10" x1="69.819" y1="122.939" x2="114.18" y2="128.986"/>
<line fill="none" stroke="#5C515F" stroke-linecap="round" stroke-linejoin="round" stroke-miterlimit="10" x1="82.977" y1="127.567" x2="108.639" y2="131.388"/>
<path fill="none" stroke="#5C515F" stroke-linecap="round" stroke-linejoin="round" stroke-miterlimit="10" d="M73.063,4.71
	c0,0-3.849,2.413-8.639,3.217c-4.79-0.804-8.467-3.217-8.467-3.217S63.936-3.839,73.063,4.71z"/>
<path fill="none" stroke="#5C515F" stroke-linecap="round" stroke-linejoin="round" stroke-miterlimit="10" d="M65.807,9.134
	c0,0,4.445,1.609,3.239,4.223c-1.005,1.206-2.413,0.402-2.413,1.609c0,0.845,0.099,1.886,0.709,2.918
	c0.782,1.32,1.358,2.744,1.481,4.274c0.65,8.05-0.514,30.475-4.4,38.453c-3.886-7.978-3.667-30.403-3.017-38.453
	c0.124-1.53,0.7-2.953,1.481-4.274c0.611-1.032,0.709-2.073,0.709-2.918c0-1.206-1.408-0.402-2.413-1.609
	c-1.206-2.614,3.239-4.223,3.239-4.223"/>
<line fill="none" stroke="#5C515F" stroke-linecap="round" stroke-linejoin="round" stroke-miterlimit="10" x1="55.957" y1="7.927" x2="61.185" y2="13.356"/>
<line fill="none" stroke="#5C515F" stroke-linecap="round" stroke-linejoin="round" stroke-miterlimit="10" x1="73.305" y1="9.134" x2="69.239" y2="13.356"/>
</svg>
