<?xml version="1.0" encoding="utf-8"?>
<!-- Generator: Adobe Illustrator 17.0.0, SVG Export Plug-In . SVG Version: 6.00 Build 0)  -->
<!DOCTYPE svg PUBLIC "-//W3C//DTD SVG 1.1//EN" "http://www.w3.org/Graphics/SVG/1.1/DTD/svg11.dtd">
<svg version="1.1" id="Layer_1" xmlns="http://www.w3.org/2000/svg" xmlns:xlink="http://www.w3.org/1999/xlink" x="0px" y="0px"
	 width="140px" height="140px" viewBox="0 0 140 140" enable-background="new 0 0 140 140" xml:space="preserve">
<path fill="none" stroke="#5C515F" stroke-linecap="round" stroke-linejoin="round" stroke-miterlimit="10" d="M65.476,103.31
	c0,0-8.563,0-11.637,0c-9.881,0-8.563-26.348-6.88-39.961s2.05-25.47,0-25.47c-2.928,1.757-2.781,39.961-2.781,39.961
	s-4.172,0.22-7.026,0c-0.878-13.833,2.415-60.601,3.294-63.894c13.833-2.415,16.468-9.881,16.468-9.881s-3.074,14.931,6.148,32.276
	c1.098,2.196,1.052,12.602-7.246,17.346s-8.298,4.744-8.298,4.744s10.809,5.403,33.816,0"/>
<path fill="none" stroke="#5C515F" stroke-linecap="round" stroke-linejoin="round" stroke-miterlimit="10" d="M40.445,13.946
	c0,0,6.659,10.32,6.513,23.933"/>
<path fill="none" stroke="#5C515F" stroke-linecap="round" stroke-linejoin="round" stroke-miterlimit="10" d="M63.061,36.342
	c0,0-9.369-0.27-11.821-26.263"/>
<path fill="none" stroke="#5C515F" stroke-linecap="round" stroke-linejoin="round" stroke-miterlimit="10" d="M91.826,74.331
	C92.11,57.438,89.219,17,88.404,13.946c-13.833-2.415-16.468-9.881-16.468-9.881s3.074,14.931-6.148,32.276
	c-1.098,2.196-1.052,12.602,7.246,17.346s8.298,4.744,8.298,4.744"/>
<path fill="none" stroke="#5C515F" stroke-linecap="round" stroke-linejoin="round" stroke-miterlimit="10" d="M82.839,73.863
	c-0.219-3.847-0.574-7.494-0.948-10.515c-1.683-13.613-2.05-25.47,0-25.47c2.363,1.418,2.723,26.572,2.774,36.229"/>
<path fill="none" stroke="#5C515F" stroke-linecap="round" stroke-linejoin="round" stroke-miterlimit="10" d="M63.373,103.31
	c0,0,4.649,0,8.326,0"/>
<path fill="none" stroke="#5C515F" stroke-linecap="round" stroke-linejoin="round" stroke-miterlimit="10" d="M88.404,13.946
	c0,0-6.659,10.32-6.513,23.933"/>
<path fill="none" stroke="#5C515F" stroke-linecap="round" stroke-linejoin="round" stroke-miterlimit="10" d="M65.789,36.342
	c0,0,9.369-0.27,11.821-26.263"/>
<polygon fill="none" stroke="#5C515F" stroke-linecap="round" stroke-linejoin="round" stroke-miterlimit="10" points="73.6,74.331 
	101.705,74.331 105.218,118.899 97.313,120.875 97.313,137.782 77.609,139.1 77.609,123.071 70.746,123.73 "/>
<line fill="none" stroke="#5C515F" stroke-linecap="round" stroke-linejoin="round" stroke-miterlimit="10" x1="77.609" y1="123.071" x2="98.501" y2="120.578"/>
<line fill="none" stroke="#5C515F" stroke-linecap="round" stroke-linejoin="round" stroke-miterlimit="10" x1="70.746" y1="120.578" x2="104.99" y2="116.011"/>
<path fill="none" stroke="#5C515F" stroke-linecap="round" stroke-linejoin="round" stroke-miterlimit="10" d="M71.937,4.066
	c0,0-3.826,3.733-7.778,3.733s-7.246-3.733-7.246-3.733S63.558-3.401,71.937,4.066z"/>
<path fill="none" stroke="#5C515F" stroke-linecap="round" stroke-linejoin="round" stroke-miterlimit="10" d="M57.15,12.848
	c0,0,4.466-2.905,7.274-2.77"/>
<path fill="none" stroke="#5C515F" stroke-linecap="round" stroke-linejoin="round" stroke-miterlimit="10" d="M72.335,12.848
	c0,0-4.466-2.905-7.274-2.77"/>
<line fill="none" stroke="#5C515F" stroke-linecap="round" stroke-linejoin="round" stroke-miterlimit="10" x1="45.808" y1="83.108" x2="73.093" y2="83.108"/>
</svg>
