<?xml version="1.0" encoding="utf-8"?>
<!-- Generator: Adobe Illustrator 17.0.0, SVG Export Plug-In . SVG Version: 6.00 Build 0)  -->
<!DOCTYPE svg PUBLIC "-//W3C//DTD SVG 1.1//EN" "http://www.w3.org/Graphics/SVG/1.1/DTD/svg11.dtd">
<svg version="1.1" id="Layer_1" xmlns="http://www.w3.org/2000/svg" xmlns:xlink="http://www.w3.org/1999/xlink" x="0px" y="0px"
	 width="140px" height="140px" viewBox="0 0 140 140" enable-background="new 0 0 140 140" xml:space="preserve">
<path fill="none" stroke="#5C515F" stroke-linecap="round" stroke-linejoin="round" stroke-miterlimit="10" d="M6.6,119.126
	c8.989-9.22,20.283-30.425,26.967-43.332s23.51-30.886,26.276-33.191C39.56,26.239,44.401,19.093,44.401,17.48
	c0-1.192,8.425-9.425,12.829-13.648c1.86-1.783,4.341-2.747,6.917-2.692c4.993,0.106,14.021,1.26,25.43,6.89
	c9.681,5.532,14.521,21.205-6.684,28.581c2.535,2.074,16.595,16.826,22.127,22.358c5.071,5.071,20.213,28.347,22.701,41.601
	c0.723,3.853,2.165,7.551,4.214,10.892c0.525,0.857,1.08,1.662,1.665,2.364"/>
<path fill="none" stroke="#5C515F" stroke-linecap="round" stroke-linejoin="round" stroke-miterlimit="10" d="M30.571,138.948
	c0,0,10.142-4.379,16.595-17.287s9.911-16.365,13.138-32.499s3.946-31.577,9.694-35.265c2.291,4.84,8.745,21.205,11.972,24.893
	c3.227,3.688,19.131,20.283,20.975,25.354c1.844,5.071,3.918,18.439,5.532,21.205"/>
<path fill="none" stroke="#5C515F" stroke-linecap="round" stroke-linejoin="round" stroke-miterlimit="10" d="M81.97,78.79
	c0,0,21.436,14.521,35.956,27.889c5.071,4.84,12.216,14.29,12.216,14.29"/>
<path fill="none" stroke="#5C515F" stroke-linecap="round" stroke-linejoin="round" stroke-miterlimit="10" d="M62.379,20.015
	c0,0,2.535-3.457,9.681-3.227c7.145,0.23,8.528,1.608,8.528,1.608l-8.067,9.456L62.379,20.015z"/>
<path fill="none" stroke="#5C515F" stroke-linecap="round" stroke-linejoin="round" stroke-miterlimit="10" d="M69.999,53.897
	c0,0,2.983-17.517,12.894-17.287"/>
<path fill="none" stroke="#5C515F" stroke-linecap="round" stroke-linejoin="round" stroke-miterlimit="10" d="M62.379,76.485
	c1.844-18.439-2.535-33.882-2.535-33.882s17.517,0.208,29.733-25.826c1.844-3.677,2.034-7.373,2.034-7.373"/>
<path fill="none" stroke="#5C515F" stroke-linecap="round" stroke-linejoin="round" stroke-miterlimit="10" d="M62.379,20.015
	c0,0-6.223-4.379-17.978-2.535"/>
<polyline fill="none" stroke="#5C515F" stroke-linecap="round" stroke-linejoin="round" stroke-miterlimit="10" points="
	117.466,124.197 113.548,117.282 109.86,117.282 "/>
<polyline fill="none" stroke="#5C515F" stroke-linecap="round" stroke-linejoin="round" stroke-miterlimit="10" points="
	121.845,124.197 117.466,117.282 113.548,117.282 "/>
<polyline fill="none" stroke="#5C515F" stroke-linecap="round" stroke-linejoin="round" stroke-miterlimit="10" points="
	133.6,116.13 128.99,111.059 126.916,112.442 "/>
<path fill="none" stroke="#5C515F" stroke-linecap="round" stroke-linejoin="round" stroke-miterlimit="10" d="M102.945,104.144
	c0,0,16.365,7.376,18.9,13.138l3.918,5.301"/>
<polyline fill="none" stroke="#5C515F" stroke-linecap="round" stroke-linejoin="round" stroke-miterlimit="10" points="
	106.168,117.282 109.86,117.282 112.626,125.58 "/>
<polyline fill="none" stroke="#5C515F" stroke-linecap="round" stroke-linejoin="round" stroke-miterlimit="10" points="
	117.466,117.282 121.845,117.282 125.298,114.862 126.916,112.442 131.065,117.282 "/>
<line fill="none" stroke="#5C515F" stroke-linecap="round" stroke-linejoin="round" stroke-miterlimit="10" x1="128.99" y1="111.059" x2="130.258" y2="108.362"/>
<polyline fill="none" stroke="#5C515F" stroke-linecap="round" stroke-linejoin="round" stroke-miterlimit="10" points="
	25.961,132.725 32.646,125.58 30.571,122.583 20.43,130.19 "/>
<polyline fill="none" stroke="#5C515F" stroke-linecap="round" stroke-linejoin="round" stroke-miterlimit="10" points="
	11.671,121.431 20.43,112.442 17.433,111.059 24.348,114.862 15.82,122.583 "/>
<polyline fill="none" stroke="#5C515F" stroke-linecap="round" stroke-linejoin="round" stroke-miterlimit="10" points="
	14.059,109.711 17.433,111.059 8.675,120.74 "/>
<polyline fill="none" stroke="#5C515F" stroke-linecap="round" stroke-linejoin="round" stroke-miterlimit="10" points="
	36.304,135.26 34.951,131.803 27.114,136.643 "/>
<polyline fill="none" stroke="#5C515F" stroke-linecap="round" stroke-linejoin="round" stroke-miterlimit="10" points="
	34.951,131.803 34.029,129.152 24.348,135.26 "/>
<polyline fill="none" stroke="#5C515F" stroke-linecap="round" stroke-linejoin="round" stroke-miterlimit="10" points="
	30.571,122.583 27.805,119.126 20.43,125.58 "/>
<path fill="none" stroke="#5C515F" stroke-linecap="round" stroke-linejoin="round" stroke-miterlimit="10" d="M60.793,46.699
	c0,0-19.85,25.638-26.764,39.467S20.43,112.442,20.43,112.442"/>
<path fill="none" stroke="#5C515F" stroke-linecap="round" stroke-linejoin="round" stroke-miterlimit="10" d="M61.972,53.897
	c0,0-5.817,14.06-7.2,28.35c-1.383,14.29-20.744,46.905-20.744,46.905l-1.383-3.573"/>
<path fill="none" stroke="#5C515F" stroke-linecap="round" stroke-linejoin="round" stroke-miterlimit="10" d="M55.728,75.528
	c0,0-23.109,39.386-27.923,43.599l-3.457-4.264"/>
<path fill="none" stroke="#5C515F" stroke-linecap="round" stroke-linejoin="round" stroke-miterlimit="10" d="M105.019,58.968
	c0,0-29.061-14.624-28.574-19.495"/>
<path fill="none" stroke="#5C515F" stroke-linecap="round" stroke-linejoin="round" stroke-miterlimit="10" d="M72.52,27.852
	c0,0-7.683,9.698-12.677,14.751"/>
</svg>
