<?xml version="1.0" encoding="utf-8"?>
<!-- Generator: Adobe Illustrator 17.0.0, SVG Export Plug-In . SVG Version: 6.00 Build 0)  -->
<!DOCTYPE svg PUBLIC "-//W3C//DTD SVG 1.1//EN" "http://www.w3.org/Graphics/SVG/1.1/DTD/svg11.dtd">
<svg version="1.1" id="Layer_1" xmlns="http://www.w3.org/2000/svg" xmlns:xlink="http://www.w3.org/1999/xlink" x="0px" y="0px"
	 width="140px" height="140px" viewBox="0 0 140 140" enable-background="new 0 0 140 140" xml:space="preserve">
<path fill="none" stroke="#5C515F" stroke-linecap="round" stroke-linejoin="round" stroke-miterlimit="10" d="M72.135,139.519
	c11.873,0.59,20.512-2.648,23.634-3.094c2.084-5.594-2.547-70.614-2.547-70.614c2.084,4.167,8.335,0.154,8.335,0.154
	s-0.463,2.624,0,4.907c4.63,2.283,8.103,0,8.103,0s0.463-3.903,0.232-5.524c3.473-0.232,6.946-2.547,5.557-7.177
	c-4.862-17.827-17.133-45.378-21.532-49.314c-5.557-1.852-15.975-7.64-15.975-7.64l-6.406,11.553L63.581,1.216
	c0,0-10.418,5.788-15.975,7.64c-4.399,3.936-16.67,31.487-21.532,49.314c-1.389,4.63,2.084,6.946,5.557,7.177
	c-0.232,1.621,0.232,5.524,0.232,5.524s3.473,2.283,8.103,0c0.463-2.283,0-4.907,0-4.907s6.251,4.013,8.335-0.154
	c0,0-4.63,65.021-2.547,70.614c3.122,0.446,11.761,3.685,23.634,3.094C70.302,139.473,71.221,139.473,72.135,139.519z"/>
<path fill="none" stroke="#5C515F" stroke-linecap="round" stroke-linejoin="round" stroke-miterlimit="10" d="M31.631,65.347
	c0,0,5.557,1.389,9.492,0s4.167-3.936,5.557-3.936s1.621,4.399,1.621,4.399"/>
<path fill="none" stroke="#5C515F" stroke-linecap="round" stroke-linejoin="round" stroke-miterlimit="10" d="M47.606,8.856
	c0,0,5.611,5.352,5.611,16.532s-1.43,36.466-4.971,39.767"/>
<path fill="none" stroke="#5C515F" stroke-linecap="round" stroke-linejoin="round" stroke-miterlimit="10" d="M45.535,11.502
	c0,0-1.211,24.813,1.33,34.722c2.541,9.91-0.185,15.187-0.185,15.187"/>
<path fill="none" stroke="#5C515F" stroke-linecap="round" stroke-linejoin="round" stroke-miterlimit="10" d="M58.045,58.929
	c0,0-2.795,56.409,0,65.811"/>
<path fill="none" stroke="#5C515F" stroke-linecap="round" stroke-linejoin="round" stroke-miterlimit="10" d="M109.891,65.347
	c0,0-5.557,1.389-9.492,0s-4.167-3.936-5.557-3.936s-1.621,4.399-1.621,4.399"/>
<path fill="none" stroke="#5C515F" stroke-linecap="round" stroke-linejoin="round" stroke-miterlimit="10" d="M93.916,8.856
	c0,0-5.611,5.352-5.611,16.532s1.43,36.466,4.971,39.767"/>
<path fill="none" stroke="#5C515F" stroke-linecap="round" stroke-linejoin="round" stroke-miterlimit="10" d="M95.988,11.502
	c0,0,1.211,24.813-1.33,34.722s0.185,15.187,0.185,15.187"/>
<path fill="none" stroke="#5C515F" stroke-linecap="round" stroke-linejoin="round" stroke-miterlimit="10" d="M83.477,58.929
	c0,0,2.795,56.409,0,65.811"/>
<path fill="none" stroke="#5C515F" stroke-linecap="round" stroke-linejoin="round" stroke-miterlimit="10" d="M63.581,1.216
	c0,0,7.576-1.728,14.36,0"/>
<path fill="none" stroke="#5C515F" stroke-linecap="round" stroke-linejoin="round" stroke-miterlimit="10" d="M71.535,12.768"/>
<line fill="none" stroke="#5C515F" stroke-linecap="round" stroke-linejoin="round" stroke-miterlimit="10" x1="71.535" y1="12.768" x2="72.135" y2="139.519"/>
</svg>
