<?xml version="1.0" encoding="utf-8"?>
<!-- Generator: Adobe Illustrator 17.0.0, SVG Export Plug-In . SVG Version: 6.00 Build 0)  -->
<!DOCTYPE svg PUBLIC "-//W3C//DTD SVG 1.1//EN" "http://www.w3.org/Graphics/SVG/1.1/DTD/svg11.dtd">
<svg version="1.1" id="Layer_1" xmlns="http://www.w3.org/2000/svg" xmlns:xlink="http://www.w3.org/1999/xlink" x="0px" y="0px"
	 width="140px" height="140px" viewBox="0 0 140 140" enable-background="new 0 0 140 140" xml:space="preserve">
<g>
	<path fill="none" stroke="#59515F" stroke-linecap="round" stroke-linejoin="round" stroke-miterlimit="10" d="M71,0.913
		c0,0-14,0.683-23.667,0C46.667,3.644,45,18.664,43.667,26.174S41,50.411,41,59.628c-1,10.241-2.333,32.771-2,38.916
		c0.333,3.072,1.062,4.096-0.052,7.51c-0.948,2.39-1.614,12.46-0.948,14.337c0.667,1.878,0.5,1.365,0.5,5.121
		c0.167,3.755,0.5,13.655,0.5,13.655h17c0,0,0.667-17.239,0.333-24.92c0.333-2.048,1.5-6.315,0.667-7.851
		c-0.833-1.536,0-4.779,1-6.145c0.333-4.438,0.667-17.068,0.167-20.823c1.5-3.926,2.5-5.974,1.833-9.388
		c0.833-3.072,1.833-5.291,1-9.046c1.167-4.096,2.833-18.946,10-22.53V0.913z"/>
	<path fill="none" stroke="#59515F" stroke-linecap="round" stroke-linejoin="round" stroke-miterlimit="10" d="M39,139.167
		c0,0,3.333-7.681,8.833-7.681S56,139.167,56,139.167"/>
	<path fill="none" stroke="#59515F" stroke-linecap="round" stroke-linejoin="round" stroke-miterlimit="10" d="M48.333,16.957h16
		v10.924c0,0-1.167,13.825-11,14.337C50,40.682,44,37.098,45,31.977S48.333,16.957,48.333,16.957z"/>
	<path fill="none" stroke="#59515F" stroke-linecap="round" stroke-linejoin="round" stroke-miterlimit="10" d="M45.975,27.325
		c0,0,5.311,1.395,8.391,0c4.603-2.085,9.968-3.028,9.968-3.028"/>
	
		<line fill="none" stroke="#59515F" stroke-linecap="round" stroke-linejoin="round" stroke-miterlimit="10" x1="46.937" y1="3.122" x2="71" y2="7.399"/>
</g>
<g>
	<path fill="none" stroke="#59515F" stroke-linecap="round" stroke-linejoin="round" stroke-miterlimit="10" d="M71,0.913
		c0,0,14,0.683,23.667,0C95.333,3.644,97,18.664,98.333,26.174C99.667,33.684,101,50.411,101,59.628c1,10.241,2.333,32.771,2,38.916
		c-0.333,3.072-1.062,4.096,0.052,7.51c0.948,2.39,1.614,12.46,0.948,14.337s-0.5,1.365-0.5,5.121
		c-0.167,3.755-0.5,13.655-0.5,13.655H86c0,0-0.667-17.239-0.333-24.92c-0.333-2.048-1.5-6.315-0.667-7.851
		c0.833-1.536,0-4.779-1-6.145c-0.333-4.438-0.667-17.068-0.167-20.823c-1.5-3.926-2.5-5.974-1.833-9.388
		c-0.833-3.072-1.833-5.291-1-9.046c-1.167-4.096-2.833-18.946-10-22.53V0.913z"/>
	<path fill="none" stroke="#59515F" stroke-linecap="round" stroke-linejoin="round" stroke-miterlimit="10" d="M103,139.167
		c0,0-3.333-7.681-8.833-7.681S86,139.167,86,139.167"/>
	<path fill="none" stroke="#59515F" stroke-linecap="round" stroke-linejoin="round" stroke-miterlimit="10" d="M93.667,16.957h-16
		v10.924c0,0,1.167,13.825,11,14.337C92,40.682,98,37.098,97,31.977S93.667,16.957,93.667,16.957z"/>
	<path fill="none" stroke="#59515F" stroke-linecap="round" stroke-linejoin="round" stroke-miterlimit="10" d="M96.026,27.325
		c0,0-5.311,1.394-8.391,0c-4.603-2.084-9.968-3.028-9.968-3.028"/>
	
		<line fill="none" stroke="#59515F" stroke-linecap="round" stroke-linejoin="round" stroke-miterlimit="10" x1="79.167" y1="5.947" x2="71" y2="7.399"/>
	
		<line fill="none" stroke="#59515F" stroke-linecap="round" stroke-linejoin="round" stroke-miterlimit="10" x1="95.063" y1="3.122" x2="88.833" y2="4.229"/>
</g>
<polyline fill="none" stroke="#59515F" stroke-linecap="round" stroke-linejoin="round" stroke-miterlimit="10" points="
	79.167,1.168 79.167,7.399 88.833,7.399 88.833,1.425 "/>
</svg>
