<?xml version="1.0" encoding="utf-8"?>
<!-- Generator: Adobe Illustrator 17.0.0, SVG Export Plug-In . SVG Version: 6.00 Build 0)  -->
<!DOCTYPE svg PUBLIC "-//W3C//DTD SVG 1.1//EN" "http://www.w3.org/Graphics/SVG/1.1/DTD/svg11.dtd">
<svg version="1.1" id="Layer_1" xmlns="http://www.w3.org/2000/svg" xmlns:xlink="http://www.w3.org/1999/xlink" x="0px" y="0px"
	 width="140px" height="140px" viewBox="0 0 140 140" enable-background="new 0 0 140 140" xml:space="preserve">
<path fill="none" stroke="#5C515F" stroke-linecap="round" stroke-linejoin="round" stroke-miterlimit="10" d="M70.781,117.474
	c0,0,12.205,0,14.755,0c0-1.39-2.317-3.708-2.549-4.866c4.171-1.854,3.476-4.635,1.159-7.416c5.793-5.33,2.781-9.501,1.854-10.892
	c5.098,0,2.549-4.403,3.013-5.793c9.038-0.463,5.793-6.72,5.562-8.049c4.171,1.684,3.708,0.865,5.33-1.22
	c7.416,3.476,8.342-1.39,9.501-3.244c7.879,1.39,7.184-2.086,9.733-4.171c8.111,0.927,5.562-0.927,9.038-4.635
	c3.476-3.708,11.355-2.781,11.355-2.781l-15.063-37.309c0,0-2.82,5.198-4.601,4.435s-7.121-1.017-10.682,3.561
	c-2.798-0.509-6.867-2.289-8.647,2.289c-2.543-0.254-10.173-1.017-10.682,4.069c-2.289,0.509-5.341-1.78-6.867,1.78
	c-1.78,0.254-4.832-3.306-8.902,1.78c-4.347-6.104-8.115,0-8.115,0c-4.069-5.087-7.121-1.526-8.902-1.78
	c-1.526-3.561-4.578-1.272-6.867-1.78c-0.509-5.087-8.139-4.324-10.682-4.069c-1.78-4.578-5.85-2.798-8.647-2.289
	c-3.561-4.578-8.902-4.324-10.682-3.561s-4.601-4.435-4.601-4.435L0.53,64.406c0,0,7.879-0.927,11.355,2.781
	c3.476,3.708,0.927,5.562,9.038,4.635c2.549,2.086,1.854,5.562,9.733,4.171c1.159,1.854,2.086,6.72,9.501,3.244
	c1.622,2.086,1.159,2.904,5.33,1.22c-0.232,1.329-3.476,7.586,5.562,8.049c0.463,1.39-2.086,5.793,3.013,5.793
	c-0.927,1.39-3.939,5.562,1.854,10.892c-2.317,2.781-3.013,5.562,1.159,7.416c-0.232,1.159-2.549,3.476-2.549,4.866
	c2.549,0,14.755,0,14.755,0H70.781z"/>
<path fill="none" stroke="#5C515F" stroke-linecap="round" stroke-linejoin="round" stroke-miterlimit="10" d="M51.048,88.507
	c0,0,15.478-14.492,37.963,0"/>
<line fill="none" stroke="#5C515F" stroke-linecap="round" stroke-linejoin="round" stroke-miterlimit="10" x1="70.03" y1="42.302" x2="69.278" y2="117.474"/>
<path fill="none" stroke="#5C515F" stroke-linecap="round" stroke-linejoin="round" stroke-miterlimit="10" d="M10.182,40.499
	c0,0,11.283-8.713,18.913,6.801c3.561,0.254,12.624-9.919,21.953,7.884c3.988,1.526,7.294-9.41,18.231,2.035"/>
<path fill="none" stroke="#5C515F" stroke-linecap="round" stroke-linejoin="round" stroke-miterlimit="10" d="M3.431,57.219
	c0,0,12.947-7.63,18.033,7.376c3.052,0,16.439-12.462,18.266,6.358c3.861-0.254,20.387-9.128,17.564,13.662"/>
<path fill="none" stroke="#5C515F" stroke-linecap="round" stroke-linejoin="round" stroke-miterlimit="10" d="M129.725,40.499
	c0,0-11.283-8.713-18.913,6.801c-3.561,0.254-12.624-9.919-21.953,7.884c-3.988,1.526-7.294-9.41-18.231,2.035"/>
<path fill="none" stroke="#5C515F" stroke-linecap="round" stroke-linejoin="round" stroke-miterlimit="10" d="M136.475,57.219
	c0,0-12.947-7.63-18.033,7.376c-3.052,0-16.439-12.462-18.266,6.358c-3.861-0.254-20.387-9.128-17.564,13.662"/>
</svg>
