<?xml version="1.0" encoding="utf-8"?>
<!-- Generator: Adobe Illustrator 17.0.0, SVG Export Plug-In . SVG Version: 6.00 Build 0)  -->
<!DOCTYPE svg PUBLIC "-//W3C//DTD SVG 1.1//EN" "http://www.w3.org/Graphics/SVG/1.1/DTD/svg11.dtd">
<svg version="1.1" id="Layer_1" xmlns="http://www.w3.org/2000/svg" xmlns:xlink="http://www.w3.org/1999/xlink" x="0px" y="0px"
	 width="140px" height="140px" viewBox="0 0 140 140" enable-background="new 0 0 140 140" xml:space="preserve">
<rect x="70.892" y="96.844" fill="none" stroke="#5C515F" stroke-linecap="round" stroke-linejoin="round" stroke-miterlimit="10" width="3.29" height="9.178"/>
<path fill="none" stroke="#5C515F" stroke-linecap="round" stroke-linejoin="round" stroke-miterlimit="10" d="M72.863,127.054
	c-11.067,0.462-25.363-2.08-25.363-2.08l1.153-21.726H38.278c0,0,0.692-20.339,0.922-29.816s2.536-15.023,4.611-32.589
	s10.376-18.028,10.376-18.028s0.818-3.698-3.741-1.618s-8.94-6.703-1.15-12.019c6.942-4.738,11.347-8.321,23.568-8.321"/>
<polyline fill="none" stroke="#5C515F" stroke-linecap="round" stroke-linejoin="round" stroke-miterlimit="10" points="
	40.123,103.248 40.123,106.021 46.578,106.021 46.578,103.248 "/>
<path fill="none" stroke="#5C515F" stroke-linecap="round" stroke-linejoin="round" stroke-miterlimit="10" d="M48.059,27.344
	c0,0,5.206,7.027,4.744,18.584c-0.461,11.556-3.228,31.434-3.459,39.292s-0.692,18.028-0.692,18.028"/>
<line fill="none" stroke="#5C515F" stroke-linecap="round" stroke-linejoin="round" stroke-miterlimit="10" x1="49.296" y1="86.836" x2="38.813" y2="86.836"/>
<path fill="none" stroke="#5C515F" stroke-linecap="round" stroke-linejoin="round" stroke-miterlimit="10" d="M49.296,125.269
	c0,0-2.522,8.025-1.236,12.648"/>
<line fill="none" stroke="#5C515F" stroke-linecap="round" stroke-linejoin="round" stroke-miterlimit="10" x1="51.464" y1="125.594" x2="51.464" y2="137.917"/>
<g>
	<g>
		<path fill="#5C515F" d="M51.42,139.879c1.935,0,1.935-3,0-3S49.486,139.879,51.42,139.879L51.42,139.879z"/>
	</g>
</g>
<g>
	<g>
		<path fill="#5C515F" d="M48.192,139.417c1.935,0,1.935-3,0-3S46.258,139.417,48.192,139.417L48.192,139.417z"/>
	</g>
</g>
<path fill="none" stroke="#5C515F" stroke-linecap="round" stroke-linejoin="round" stroke-miterlimit="10" d="M54.187,22.815
	c0,0,15.909,5.547,18.676,13.405"/>
<path fill="none" stroke="#5C515F" stroke-linecap="round" stroke-linejoin="round" stroke-miterlimit="10" d="M54.187,21.668
	c0,0,5.534-7.636,18.676-7.636"/>
<polyline fill="none" stroke="#5C515F" stroke-linecap="round" stroke-linejoin="round" stroke-miterlimit="10" points="
	49.345,85.22 62.603,59.102 59.721,55.635 50.446,72.124 "/>
<path fill="none" stroke="#5C515F" stroke-linecap="round" stroke-linejoin="round" stroke-miterlimit="10" d="M39.352,70.427
	c0,0,5.97-4.623,11.094-3.929"/>
<polyline fill="none" stroke="#5C515F" stroke-linecap="round" stroke-linejoin="round" stroke-miterlimit="10" points="
	105.433,103.248 105.433,106.021 98.978,106.021 98.978,103.248 "/>
<path fill="none" stroke="#5C515F" stroke-linecap="round" stroke-linejoin="round" stroke-miterlimit="10" d="M97.497,27.344
	c0,0-5.206,7.027-4.744,18.584c0.461,11.556,3.228,31.434,3.459,39.292s0.692,18.028,0.692,18.028"/>
<line fill="none" stroke="#5C515F" stroke-linecap="round" stroke-linejoin="round" stroke-miterlimit="10" x1="96.26" y1="86.836" x2="106.743" y2="86.836"/>
<path fill="none" stroke="#5C515F" stroke-linecap="round" stroke-linejoin="round" stroke-miterlimit="10" d="M96.26,125.269
	c0,0,2.522,8.025,1.236,12.648"/>
<line fill="none" stroke="#5C515F" stroke-linecap="round" stroke-linejoin="round" stroke-miterlimit="10" x1="94.092" y1="125.594" x2="94.092" y2="137.917"/>
<g>
	<g>
		<path fill="#5C515F" d="M94.136,139.879c1.935,0,1.935-3,0-3S92.201,139.879,94.136,139.879L94.136,139.879z"/>
	</g>
</g>
<g>
	<g>
		<path fill="#5C515F" d="M97.364,139.417c1.935,0,1.935-3,0-3C95.429,136.417,95.429,139.417,97.364,139.417L97.364,139.417z"/>
	</g>
</g>
<path fill="none" stroke="#5C515F" stroke-linecap="round" stroke-linejoin="round" stroke-miterlimit="10" d="M91.369,21.668
	c0,0-5.534-7.636-18.676-7.636"/>
<polyline fill="none" stroke="#5C515F" stroke-linecap="round" stroke-linejoin="round" stroke-miterlimit="10" points="
	96.211,85.22 82.953,59.102 85.835,55.635 95.11,72.124 "/>
<path fill="none" stroke="#5C515F" stroke-linecap="round" stroke-linejoin="round" stroke-miterlimit="10" d="M106.204,70.427
	c0,0-5.97-4.623-11.094-3.929"/>
<path fill="none" stroke="#5C515F" stroke-linecap="round" stroke-linejoin="round" stroke-miterlimit="10" d="M72.686,96.844
	c0.005-24.966,0.039-57.119,0.177-62.242c0.231-8.552,15.276-15.95,15.276-15.95"/>
<path fill="none" stroke="#5C515F" stroke-linecap="round" stroke-linejoin="round" stroke-miterlimit="10" d="M72.693,0.858
	c12.22,0,16.625,3.583,23.568,8.321c7.79,5.316,3.409,14.099-1.15,12.019c-4.559-2.08-3.741,1.618-3.741,1.618
	s8.3,0.462,10.376,18.028c2.075,17.566,4.381,23.113,4.611,32.589c0.231,9.476,0.922,29.816,0.922,29.816H96.902l1.153,21.726
	c0,0-14.295,2.542-25.363,2.08c0,0-0.006-8.82-0.007-21.033"/>
<rect x="86.697" y="27.344" fill="none" stroke="#5C515F" stroke-linecap="round" stroke-linejoin="round" stroke-miterlimit="10" width="2.884" height="19.508"/>
<line fill="none" stroke="#5C515F" stroke-linecap="round" stroke-linejoin="round" stroke-miterlimit="10" x1="88.14" y1="27.344" x2="88.14" y2="18.652"/>
<line fill="none" stroke="#5C515F" stroke-linecap="round" stroke-linejoin="round" stroke-miterlimit="10" x1="48.785" y1="100.249" x2="69.88" y2="100.936"/>
<line fill="none" stroke="#5C515F" stroke-linecap="round" stroke-linejoin="round" stroke-miterlimit="10" x1="49.345" y1="87.762" x2="72.537" y2="88.806"/>
<path fill="none" stroke="#5C515F" stroke-linecap="round" stroke-linejoin="round" stroke-miterlimit="10" d="M52.804,45.928
	c0,0,11.528-3.467,18.215-2.08"/>
<line fill="none" stroke="#5C515F" stroke-linecap="round" stroke-linejoin="round" stroke-miterlimit="10" x1="96.324" y1="100.249" x2="75.229" y2="100.936"/>
<line fill="none" stroke="#5C515F" stroke-linecap="round" stroke-linejoin="round" stroke-miterlimit="10" x1="95.763" y1="87.762" x2="72.537" y2="88.806"/>
<path fill="none" stroke="#5C515F" stroke-linecap="round" stroke-linejoin="round" stroke-miterlimit="10" d="M86.697,44.56
	c-3.872-0.782-8.96-1.469-12.608-0.713"/>
<path fill="none" stroke="#5C515F" stroke-linecap="round" stroke-linejoin="round" stroke-miterlimit="10" d="M92.305,45.928
	c0,0-0.924-0.278-2.402-0.645"/>
</svg>
