<?xml version="1.0" encoding="utf-8"?>
<!-- Generator: Adobe Illustrator 17.0.0, SVG Export Plug-In . SVG Version: 6.00 Build 0)  -->
<!DOCTYPE svg PUBLIC "-//W3C//DTD SVG 1.1//EN" "http://www.w3.org/Graphics/SVG/1.1/DTD/svg11.dtd">
<svg version="1.1" id="Layer_1" xmlns="http://www.w3.org/2000/svg" xmlns:xlink="http://www.w3.org/1999/xlink" x="0px" y="0px"
	 width="140px" height="140px" viewBox="0 0 140 140" enable-background="new 0 0 140 140" xml:space="preserve">
<path fill="none" stroke="#5C515F" stroke-linecap="round" stroke-linejoin="round" stroke-miterlimit="10" d="M67.899,115.214
	c1.711,0.755,3.685,0.755,5.396,0c21.627-9.535,19.73-31.967,21.885-34.786c-1.552,4.138-0.862,10,0.69,21.552
	c1.552,11.552,6.035,38.621,10.345,37.414c4.31-1.207,7.069-12.069,3.966-19.828s-1.379-17.586,1.379-34.31
	s-0.517-35.69-3.621-47.759S88.456,15.945,86.215,14.393C82.767-0.262,70.597,0.773,70.597,0.773s-12.17-1.034-15.618,13.621
	c-2.241,1.552-18.621,11.035-21.724,23.104s-6.379,31.035-3.621,47.759s4.483,26.552,1.379,34.31s-0.345,18.621,3.966,19.828
	c4.31,1.207,8.793-25.862,10.345-37.414s2.241-17.414,0.69-21.552C48.169,83.247,46.272,105.679,67.899,115.214z"/>
<path fill="none" stroke="#5C515F" stroke-linecap="round" stroke-linejoin="round" stroke-miterlimit="10" d="M60.669,17.842
	h21.035c0,0-4.483,33.448-7.931,33.448C70.324,51.29,64.462,40.255,60.669,17.842z"/>
<path fill="none" stroke="#5C515F" stroke-linecap="round" stroke-linejoin="round" stroke-miterlimit="10" d="M86.215,14.393
	c0,0,1.006,38.966-12.787,39.655c-13.793,0.69-18.448-39.655-18.448-39.655s-1.207,49.31,18.448,49.31S88.767,20.808,86.215,14.393z
	"/>
<path fill="none" stroke="#5C515F" stroke-linecap="round" stroke-linejoin="round" stroke-miterlimit="10" d="M51.977,16.354
	c0,0-8.167,55.625,19.745,57.005c27.913,1.379,19.663-55.517,19.663-55.517"/>
<path fill="none" stroke="#5C515F" stroke-linecap="round" stroke-linejoin="round" stroke-miterlimit="10" d="M50.863,36.118
	c0,0-9.85,31.035-4.85,44.31"/>
<path fill="none" stroke="#5C515F" stroke-linecap="round" stroke-linejoin="round" stroke-miterlimit="10" d="M92.523,39.049
	c0,0,7.779,22.865,2.657,41.379"/>
<path fill="none" stroke="#5C515F" stroke-linecap="round" stroke-linejoin="round" stroke-miterlimit="10" d="M54.306,58.273
	c0,0-1.297,30.061,19.122,28.879c20.419-1.182,17.725-31.623,18.345-38.915"/>
</svg>
