<?xml version="1.0" encoding="utf-8"?>
<!-- Generator: Adobe Illustrator 17.0.0, SVG Export Plug-In . SVG Version: 6.00 Build 0)  -->
<!DOCTYPE svg PUBLIC "-//W3C//DTD SVG 1.1//EN" "http://www.w3.org/Graphics/SVG/1.1/DTD/svg11.dtd">
<svg version="1.1" id="Layer_1" xmlns="http://www.w3.org/2000/svg" xmlns:xlink="http://www.w3.org/1999/xlink" x="0px" y="0px"
	 width="140px" height="140px" viewBox="0 0 140 140" enable-background="new 0 0 140 140" xml:space="preserve">
<path fill="none" stroke="#5C515F" stroke-linecap="round" stroke-linejoin="round" stroke-miterlimit="10" d="M28.983,38.349
	c-0.397,1.359-1.159,2.578-2.173,3.567C10.165,58.15-2.893,75.554,2.857,99.733c2.596,10.914,7.951,20.032,17.994,25.623
	c13.831,7.701,31.168,8.286,46.581,7.848c35.505-1.009,62.647-23.631,71.032-57.817c5.503-22.436-12.188-45.303-33.399-50.807
	c-2.33-0.605-4.221-2.278-5.225-4.466c-2.534-5.52-8.045-13.819-23.378-12.968c-3.973,0.722-7.585,1.323-12.281-0.061
	C59.587,5.732,37.708,8.468,28.983,38.349z"/>
<path fill="none" stroke="#5C515F" stroke-linecap="round" stroke-linejoin="round" stroke-miterlimit="10" d="M101.527,22.529
	c0,0,13.943,20.376,11.054,50.355c-0.977,10.991-13.769,18.626-22.639,22.759c-16.416,7.65-36.68,9.702-53.325,1.37
	c-12.79-6.402-12.759-20.241-11.084-32.798c1.806-13.725,3.45-25.867,3.45-25.867"/>
<path fill="none" stroke="#5C515F" stroke-linecap="round" stroke-linejoin="round" stroke-miterlimit="10" d="M25.155,67.428
	c0,0,1.823,23.877,39.748,19.543c37.926-4.334,48.704-18.944,45.482-43.063"/>
</svg>
