<?xml version="1.0" encoding="utf-8"?>
<!-- Generator: Adobe Illustrator 17.0.0, SVG Export Plug-In . SVG Version: 6.00 Build 0)  -->
<!DOCTYPE svg PUBLIC "-//W3C//DTD SVG 1.1//EN" "http://www.w3.org/Graphics/SVG/1.1/DTD/svg11.dtd">
<svg version="1.1" id="Layer_1" xmlns="http://www.w3.org/2000/svg" xmlns:xlink="http://www.w3.org/1999/xlink" x="0px" y="0px"
	 width="140px" height="140px" viewBox="0 0 140 140" enable-background="new 0 0 140 140" xml:space="preserve">
<path fill="none" stroke="#5C515F" stroke-linecap="round" stroke-linejoin="round" stroke-miterlimit="10" d="M95.513,12.302
	c21.205,2.781,32.503,15.817,39.108,27.984c6.605,12.167,4.693,28.332,4.519,31.982s-1.391,4.519-1.391,7.474
	c-0.348,4.693-0.348,10.255-3.824,9.907c-3.476-0.348-14.948,0.695-14.948,0.695s-6.084,8.517-11.472,17.555
	c-5.388,9.038-11.472,14.6-20.858,20.163c-9.386,5.562-16.512,2.607-20.336,1.043c0,0-6.779-2.955-23.64-13.384
	s-26.419-8.865-29.2-8.517c-2.781,0.348-4.867,7.126-8.865,7.648c-6.605-0.869-3.65-6.431-1.738-7.822
	c0,0,20.163-21.032,23.639-25.377c2.607-5.388,1.391-11.646,2.433-23.986c0.701-8.292,3.247-16.565,7.561-23.685
	c6.551-10.812,13.296-17.98,25.956-20.59c1.437-0.296,22.398-2.479,22.357-2.028c0,0,0.269-3.02,4.788-3.06
	C97.425,8.234,95.513,12.302,95.513,12.302z"/>
<path fill="none" stroke="#5C515F" stroke-linecap="round" stroke-linejoin="round" stroke-miterlimit="10" d="M84.815,11.365
	c0,0,2.354,3.067,10.697,0.938"/>
<path fill="none" stroke="#5C515F" stroke-linecap="round" stroke-linejoin="round" stroke-miterlimit="10" d="M13.472,107.205
	c0,0-6.605-1.738-10.603-0.174"/>
<path fill="none" stroke="#5C515F" stroke-linecap="round" stroke-linejoin="round" stroke-miterlimit="10" d="M118.978,90.345
	c0,0-15.122,1.564-31.461-1.912c-16.339-3.476-29.722-11.472-46.235-10.255c-5.91,0-11.167,0.098-13.579-0.125"/>
<path fill="none" stroke="#5C515F" stroke-linecap="round" stroke-linejoin="round" stroke-miterlimit="10" d="M108.805,90.686
	c0,0,6.001-20.416,6.783-34.495s3.389-36.357-22.161-43.136"/>
<path fill="none" stroke="#5C515F" stroke-linecap="round" stroke-linejoin="round" stroke-miterlimit="10" d="M45.975,78.053
	c0,0,3.65-15.381,4.172-26.183c0.521-10.802,5.464-29.411,23.194-39.661"/>
<circle fill="none" stroke="#5C515F" stroke-linecap="round" stroke-linejoin="round" stroke-miterlimit="10" cx="89.399" cy="26.207" r="2.579"/>
<circle fill="none" stroke="#5C515F" stroke-linecap="round" stroke-linejoin="round" stroke-miterlimit="10" cx="48.554" cy="24.671" r="2.579"/>
</svg>
