<?xml version="1.0" encoding="utf-8"?>
<!-- Generator: Adobe Illustrator 17.0.0, SVG Export Plug-In . SVG Version: 6.00 Build 0)  -->
<!DOCTYPE svg PUBLIC "-//W3C//DTD SVG 1.1//EN" "http://www.w3.org/Graphics/SVG/1.1/DTD/svg11.dtd">
<svg version="1.1" id="Layer_1" xmlns="http://www.w3.org/2000/svg" xmlns:xlink="http://www.w3.org/1999/xlink" x="0px" y="0px"
	 width="140px" height="140px" viewBox="0 0 140 140" enable-background="new 0 0 140 140" xml:space="preserve">
<path fill="none" stroke="#5C515F" stroke-linecap="round" stroke-linejoin="round" stroke-miterlimit="10" d="M87.056,78.585
	c0,0-4.21-7.916-12.294-10.779c-8.084-2.863-18.863-9.431-22.231-12.631c-3.368-3.2-15.174-14.9-19.873-18.189
	c-5.052-3.537-11.452,2.695-5.726,8.758s6.905,8.252,6.905,8.252s-11.452-5.389-16.673-8.421c-5.221-3.031-10.442,4.884-6.231,8.758
	s11.116,7.916,11.116,7.916s-8.421-1.684-14.652-4.21c-6.231-2.526-8.084,7.074-4.042,9.431s16.673,8.758,16.673,8.758
	s-9.095-1.853-14.989-2.526s-5.558,8.252-1.684,9.768c3.874,1.516,9.768,3.537,15.494,4.547c5.726,1.01,14.988,2.694,20.209,6.399
	c0.748,0.531,4.922,1.387,4.352,2.787c-0.651,1.599-8.853,0.88-10.265,1.131c-3.681,0.656-7.386,2.767-7.916,6.77
	c-0.467,3.529,2.021,5.846,5.409,6.154c7.41,0.674,18.357-1.01,27.452,1.179s11.452-0.337,15.326,0
	c3.874,0.337,11.452,0,21.389,5.389c0,0,11.284-20.547,11.789-29.978C105.582,84.479,92.614,79.595,87.056,78.585z"/>
<path fill="none" stroke="#5C515F" stroke-linecap="round" stroke-linejoin="round" stroke-miterlimit="10" d="M87.056,78.585
	c0,0-15.053,22.283-15.358,33.878"/>
<line fill="none" stroke="#5C515F" stroke-linecap="round" stroke-linejoin="round" stroke-miterlimit="10" x1="33.836" y1="53.996" x2="37.373" y2="56.354"/>
<line fill="none" stroke="#5C515F" stroke-linecap="round" stroke-linejoin="round" stroke-miterlimit="10" x1="22.047" y1="62.248" x2="29.626" y2="66.29"/>
<line fill="none" stroke="#5C515F" stroke-linecap="round" stroke-linejoin="round" stroke-miterlimit="10" x1="20.026" y1="76.227" x2="27.1" y2="78.585"/>
<path fill="none" stroke="#5C515F" stroke-linecap="round" stroke-linejoin="round" stroke-miterlimit="10" d="M75.59,99.032
	c0,0-7.902-2.764-12.618-1.753"/>
<path fill="none" stroke="#5C515F" stroke-linecap="round" stroke-linejoin="round" stroke-miterlimit="10" d="M79.377,89.195
	c-0.91,0-6.869-3.032-7.679-7.074"/>
<path fill="none" stroke="#5C515F" stroke-linecap="round" stroke-linejoin="round" stroke-miterlimit="10" d="M78.166,93.684
	c0,0-14.689-5.331-16.205-8.026"/>
<path fill="none" stroke="#5C515F" stroke-linecap="round" stroke-linejoin="round" stroke-miterlimit="10" d="M81.76,72.079
	c-3.015-4.348-4.955-7.671-6.861-9.327c-3.413-2.965-15.832-13.32-19.466-17.556c-3.576-4.168,2.824-10.736,7.95-6.361
	c6.172,5.268,8.635,5.92,8.635,5.92s-5.81-10.971-9.708-15.366c-3.718-4.192,3.759-10.568,7.903-6.85
	c4.144,3.718,8.701,10.03,8.701,10.03s-2.037-8.213-5.441-13.8c-2.753-4.519,4.694-9.908,8.759-4.792
	C85.064,17.54,92.265,29.31,92.265,29.31s-2.641-8.636-3.842-14.283c-1.201-5.647,7.476-6.151,9.304-2.54s4.334,9.132,5.846,14.584
	c1.511,5.452,4.004,14.266,8.078,18.978c0.584,0.675,1.801,4.638,3.105,3.956c1.489-0.779,0.028-8.657,0.14-10.047
	c0.293-3.626,1.993-7.412,5.82-8.298c3.375-0.781,5.851,1.414,6.464,4.666c1.342,7.115,0.729,17.874,3.696,26.479
	c2.967,8.605,0.739,11.124,1.426,14.844c0.687,3.72,1.066,11.092,7.21,20.215c0,0-15.513,10.567-25.178,13.55
	c-1.988,0.614-4.146-0.267-5.073-2.13c-1.612-3.239-3.254-8.586-4.92-12.229"/>
<path fill="none" stroke="#5C515F" stroke-linecap="round" stroke-linejoin="round" stroke-miterlimit="10" d="M107.045,89.194
	c6.867-5.032,17.876-12.319,25.124-13.208"/>
<line fill="none" stroke="#5C515F" stroke-linecap="round" stroke-linejoin="round" stroke-miterlimit="10" x1="72.018" y1="44.755" x2="74.631" y2="47.961"/>
<line fill="none" stroke="#5C515F" stroke-linecap="round" stroke-linejoin="round" stroke-miterlimit="10" x1="78.914" y1="32.568" x2="83.534" y2="39.533"/>
<line fill="none" stroke="#5C515F" stroke-linecap="round" stroke-linejoin="round" stroke-miterlimit="10" x1="92.265" y1="29.31" x2="95.207" y2="35.942"/>
<path fill="none" stroke="#5C515F" stroke-linecap="round" stroke-linejoin="round" stroke-miterlimit="10" d="M119.524,81.005
	c0,0-3.412-7.396-2.872-12.058"/>
<path fill="none" stroke="#5C515F" stroke-linecap="round" stroke-linejoin="round" stroke-miterlimit="10" d="M110.348,85.588
	c-0.085-0.882-3.575-6.371-7.566-6.779"/>
<path fill="none" stroke="#5C515F" stroke-linecap="round" stroke-linejoin="round" stroke-miterlimit="10" d="M114.583,83.998
	c0,0-6.53-13.731-9.281-14.948"/>
</svg>
