<?xml version="1.0" encoding="utf-8"?>
<!-- Generator: Adobe Illustrator 17.0.0, SVG Export Plug-In . SVG Version: 6.00 Build 0)  -->
<!DOCTYPE svg PUBLIC "-//W3C//DTD SVG 1.1//EN" "http://www.w3.org/Graphics/SVG/1.1/DTD/svg11.dtd">
<svg version="1.1" id="Layer_1" xmlns="http://www.w3.org/2000/svg" xmlns:xlink="http://www.w3.org/1999/xlink" x="0px" y="0px"
	 width="140px" height="140px" viewBox="0 0 140 140" enable-background="new 0 0 140 140" xml:space="preserve">
<path fill="none" stroke="#5C515F" stroke-linecap="round" stroke-linejoin="round" stroke-miterlimit="10" d="M38.965,109.821
	c1.626,0.729,88.908-26.906,94.991-29.012s4.913-8.891,4.445-13.336c-0.468-4.445-0.702-16.144-0.702-16.144
	s-21.057-7.721-28.544-14.038c-7.487-6.317-17.314-9.359-34.861-7.721c-17.548,1.638-61.299,1.404-70.892,13.804
	c-1.872,3.042,1.404,9.359,3.042,10.762c1.404,2.106-1.356,3.51-3.603,2.808c-2.247,0.468-3.135,3.51,0,9.827
	C5.975,73.088,25.395,103.738,38.965,109.821z"/>
<path fill="none" stroke="#5C515F" stroke-linecap="round" stroke-linejoin="round" stroke-miterlimit="10" d="M4.622,42.039
	c0,0,15.625-2.642,41.83,19.351s37.631,35.207,37.631,35.207s36.303-40.121,53.616-45.268"/>
<path fill="none" stroke="#5C515F" stroke-linecap="round" stroke-linejoin="round" stroke-miterlimit="10" d="M38.965,109.821
	c0,0-1.237-35.603-37.468-46.229"/>
<path fill="none" stroke="#5C515F" stroke-linecap="round" stroke-linejoin="round" stroke-miterlimit="10" d="M6.443,54.137
	c0,0,18.068,10.893,17.191,22.116l27.771-10.66"/>
</svg>
