<?xml version="1.0" encoding="utf-8"?>
<!-- Generator: Adobe Illustrator 17.0.0, SVG Export Plug-In . SVG Version: 6.00 Build 0)  -->
<!DOCTYPE svg PUBLIC "-//W3C//DTD SVG 1.1//EN" "http://www.w3.org/Graphics/SVG/1.1/DTD/svg11.dtd">
<svg version="1.1" id="Layer_1" xmlns="http://www.w3.org/2000/svg" xmlns:xlink="http://www.w3.org/1999/xlink" x="0px" y="0px"
	 width="140px" height="140px" viewBox="0 0 140 140" enable-background="new 0 0 140 140" xml:space="preserve">
<path fill="none" stroke="#5C515F" stroke-linecap="round" stroke-linejoin="round" stroke-miterlimit="10" d="M3.934,53.591
	c-1.25,0.899-2.094,2.245-2.378,3.759C1.002,60.304,0.7,65.386,3.613,70.009c4.446,7.053,6.084,4.479,8.658,11.265
	c2.574,6.786,5.148,3.276,7.956,11.7s16.615,19.891,29.251,18.019c12.239-1.813,51.257-10.87,79.638-15.478
	c2.358-0.383,4.5-1.657,5.886-3.604c5.454-7.66,10.386-27.36-18.13-55.1c-1.872,0.702-18.721,11.7-35.569,14.509
	S55.797,61.383,29.588,40.79C19.058,32.6,13.208,26.984,10.4,32.132c-1.404,0.936-9.36-0.936-6.318,11.466
	c0.702,3.51,5.616,5.85,5.616,5.85L3.934,53.591z"/>
<path fill="none" stroke="#5C515F" stroke-linecap="round" stroke-linejoin="round" stroke-miterlimit="10" d="M13.208,30.154
	c0,0,7.722-3.171,20.593,3.616c3.677,2.023,11.977,2.311,17.068,1.207c2.683-0.582,5.402-0.949,8.147-0.957
	c4.786-0.014,12.125-0.758,17.374-4.605c5.352-2.182,15.211-1.666,21.997,3.1c6.786,4.766,8.19,8.276,18.487,4.298"/>
<path fill="none" stroke="#5C515F" stroke-linecap="round" stroke-linejoin="round" stroke-miterlimit="10" d="M10.4,32.132
	c0,0,9.208,11.208,39.471,20.815"/>
<path fill="none" stroke="#5C515F" stroke-linecap="round" stroke-linejoin="round" stroke-miterlimit="10" d="M18.19,38.539
	c0,0-12.214,0.989-12.75,7.672"/>
<path fill="none" stroke="#5C515F" stroke-linecap="round" stroke-linejoin="round" stroke-miterlimit="10" d="M14.172,35.606
	c0,0-10.869,0.865-10.363,6.769"/>
<path fill="none" stroke="#5C515F" stroke-linecap="round" stroke-linejoin="round" stroke-miterlimit="10" d="M9.698,49.448
	c0,0,23.635,13.105,28.315,38.378c2.574,15.445-2.164,20.715-2.164,20.715"/>
<path fill="none" stroke="#5C515F" stroke-linecap="round" stroke-linejoin="round" stroke-miterlimit="10" d="M1.519,57.558
	c0,0,23.949,6.765,36.891,33.025"/>
<path fill="none" stroke="#5C515F" stroke-linecap="round" stroke-linejoin="round" stroke-miterlimit="10" d="M2.905,68.751
	c0,0,1.645,1.693,7.495,1.257c2.808,0,0.291,3.075,3.772,6.117s15.509,20.081,24.238,25.368"/>
<path fill="none" stroke="#5C515F" stroke-linecap="round" stroke-linejoin="round" stroke-miterlimit="10" d="M1.519,64.667
	c0,0,4.407,3.268,7.462,1.864c3.056-1.404,3.758,4.446,7.268,6.084c3.51,1.638,3.51-1.404,5.616,0
	c2.106,1.404-0.404,6.786,2.372,9.36s9.69,9.594,14.541,10.53"/>
</svg>
