<?xml version="1.0" encoding="utf-8"?>
<!-- Generator: Adobe Illustrator 17.0.0, SVG Export Plug-In . SVG Version: 6.00 Build 0)  -->
<!DOCTYPE svg PUBLIC "-//W3C//DTD SVG 1.1//EN" "http://www.w3.org/Graphics/SVG/1.1/DTD/svg11.dtd">
<svg version="1.1" id="Layer_1" xmlns="http://www.w3.org/2000/svg" xmlns:xlink="http://www.w3.org/1999/xlink" x="0px" y="0px"
	 width="140px" height="140px" viewBox="0 0 140 140" enable-background="new 0 0 140 140" xml:space="preserve">
<path fill="none" stroke="#5C515F" stroke-linecap="round" stroke-linejoin="round" stroke-miterlimit="10" d="M117.802,1
	L57.827,41.597c0,0-2.62,9.025-10.19,11.937L12.118,9.862L29.004,1"/>
<line fill="none" stroke="#5C515F" stroke-linecap="round" stroke-linejoin="round" stroke-miterlimit="10" x1="24.449" y1="3.391" x2="57.827" y2="41.597"/>
<path fill="none" stroke="#5C515F" stroke-linecap="round" stroke-linejoin="round" stroke-miterlimit="10" d="M19.839,5.81
	c0,0,25.178,30.255,34.631,42.294"/>
<path fill="none" stroke="#5C515F" stroke-linecap="round" stroke-linejoin="round" stroke-miterlimit="10" d="M139.34,77.09
	l-39.63,39.592L45.017,60.521c0,0,3.054-5.093,7.411-7.97c3.057-2.019,7.452-1.841,8.893-2.802C64.815,47.419,132.359,1,132.359,1"
	/>
<line fill="none" stroke="#5C515F" stroke-linecap="round" stroke-linejoin="round" stroke-miterlimit="10" x1="57.827" y1="51.062" x2="110.79" y2="105.635"/>
<line fill="none" stroke="#5C515F" stroke-linecap="round" stroke-linejoin="round" stroke-miterlimit="10" x1="51.006" y1="53.731" x2="106.766" y2="109.441"/>
<g>
	<g>
		<path fill="#5C515F" d="M28.422,13.109c1.935,0,1.935-3,0-3S26.487,13.109,28.422,13.109L28.422,13.109z"/>
	</g>
</g>
<g>
	<g>
		<path fill="#5C515F" d="M38.321,25.046c1.935,0,1.935-3,0-3S36.386,25.046,38.321,25.046L38.321,25.046z"/>
	</g>
</g>
<g>
	<g>
		<path fill="#5C515F" d="M49.384,38.438c1.935,0,1.935-3,0-3S47.45,38.438,49.384,38.438L49.384,38.438z"/>
	</g>
</g>
<g>
	<g>
		<path fill="#5C515F" d="M59.865,59.692c1.935,0,1.935-3,0-3S57.931,59.692,59.865,59.692L59.865,59.692z"/>
	</g>
</g>
<g>
	<g>
		<path fill="#5C515F" d="M75.296,75.122c1.935,0,1.935-3,0-3C73.361,72.122,73.361,75.122,75.296,75.122L75.296,75.122z"/>
	</g>
</g>
<g>
	<g>
		<path fill="#5C515F" d="M86.65,86.476c1.935,0,1.935-3,0-3C84.715,83.476,84.715,86.476,86.65,86.476L86.65,86.476z"/>
	</g>
</g>
<g>
	<g>
		<path fill="#5C515F" d="M102.663,103.071c1.935,0,1.935-3,0-3C100.728,100.071,100.728,103.071,102.663,103.071L102.663,103.071z"
			/>
	</g>
</g>
<path fill="none" stroke="#5C515F" stroke-linecap="round" stroke-linejoin="round" stroke-miterlimit="10" d="M47.401,84.556
	c-0.804,3.368-2.444,7.139-5.192,9.346c-3.751,3.012-18.481,5.991-18.479-7.198c0-2.023,2.051-5.291,3.701-6.461
	c0,0,4.953-4.393,8.404-5.646C38.62,73.585,49.363,76.335,47.401,84.556z"/>
<path fill="none" stroke="#5C515F" stroke-linecap="round" stroke-linejoin="round" stroke-miterlimit="10" d="M20.661,79.061
	c-4.016-16.607-13.52-25.528-13.52-25.528L4.904,55c10.544,9.905,15.976,38.024,17.893,40.899s20.13,11.183,28.011-7.669
	c6.424-15.366-7.955-18.42-13.492-19.024c-1.267-0.138-2.536,0.18-3.587,0.9L0.75,92.704l4.047,2.663l16.988-12.461L20.661,79.061z"
	/>
</svg>
