<?xml version="1.0" encoding="utf-8"?>
<!-- Generator: Adobe Illustrator 17.0.0, SVG Export Plug-In . SVG Version: 6.00 Build 0)  -->
<!DOCTYPE svg PUBLIC "-//W3C//DTD SVG 1.1//EN" "http://www.w3.org/Graphics/SVG/1.1/DTD/svg11.dtd">
<svg version="1.1" id="Layer_1" xmlns="http://www.w3.org/2000/svg" xmlns:xlink="http://www.w3.org/1999/xlink" x="0px" y="0px"
	 width="140px" height="140px" viewBox="0 0 140 140" enable-background="new 0 0 140 140" xml:space="preserve">
<path fill="none" stroke="#59515F" stroke-linecap="round" stroke-linejoin="round" stroke-miterlimit="10" d="M85.965,48.196
	l-4.11,0.457c0,0-0.761-7.155-0.761-8.981c6.698,0.761,8.981-1.827,9.895-2.588l-3.349-7.611c0,0-3.806,5.328-3.197,9.59"/>
<path fill="none" stroke="#59515F" stroke-linecap="round" stroke-linejoin="round" stroke-miterlimit="10" d="M76.312,3.768
	c0,0,3.152,8.767-5.677,19.423c-8.829-10.656-5.677-19.952-5.677-19.952"/>
<path fill="none" stroke="#59515F" stroke-linecap="round" stroke-linejoin="round" stroke-miterlimit="10" d="M69.88,10.081
	c0,0-1.319,1.794,0,3.134c0.418,0.548,0.508,1.113,0.179,1.49c-0.394,0.451-0.507,1.084-0.534,1.682l-0.231,5.068"/>
<path fill="none" stroke="#59515F" stroke-linecap="round" stroke-linejoin="round" stroke-miterlimit="10" d="M72.108,10.081
	c0,0,1.319,1.794,0,3.134c-0.418,0.548-0.508,1.113-0.179,1.49c0.26,0.298,0.474,0.633,0.476,1.029l0.031,5.075"/>
<path fill="none" stroke="#59515F" stroke-linecap="round" stroke-linejoin="round" stroke-miterlimit="10" d="M76.851,8.316
	c0,0,2.476,18.506-6.555,30.652C61.4,26.688,64.43,8.316,64.43,8.316"/>
<line fill="none" stroke="#59515F" stroke-linecap="round" stroke-linejoin="round" stroke-miterlimit="10" x1="81.094" y1="20.809" x2="86.041" y2="20.809"/>
<path fill="none" stroke="#59515F" stroke-linecap="round" stroke-linejoin="round" stroke-miterlimit="10" d="M53.29,65.204
	l3.347,40.532c0,0,2.233,24.762,2.639,33.083c3.247,0.406,9.133,0,9.133,0V82.395c-0.609-9.945,2.373-11.366,3.856-3.044
	c1.218,4.871,3.856,28.009,0,37.954c-0.338,1.522-0.888,2.974-1.414,4.15c-0.981,2.191-1.469,4.572-1.32,6.968
	c0.146,2.356,0.483,4.902,1.251,5.322c1.483,0.812,6.557,0.406,6.557,0.406s6.089-16.44,6.901-30.648s1.801-37.773,1.801-37.773"/>
<path fill="none" stroke="#59515F" stroke-linecap="round" stroke-linejoin="round" stroke-miterlimit="10" d="M65.451,4.094
	c0,0-0.416,5.495,4.43,9.121"/>
<path fill="none" stroke="#59515F" stroke-linecap="round" stroke-linejoin="round" stroke-miterlimit="10" d="M76.642,4.094
	c0,0,0.416,5.495-4.43,9.121"/>
<path fill="none" stroke="#59515F" stroke-linecap="round" stroke-linejoin="round" stroke-miterlimit="10" d="M55.216,48.906
	l7.713-0.254l-0.114,0.279c-0.545,1.335-3.061,2.207-4.503,2.207h-3.544"/>
<path fill="none" stroke="#59515F" stroke-linecap="round" stroke-linejoin="round" stroke-miterlimit="10" d="M85.618,48.906
	l-7.713-0.254l0.114,0.279c0.545,1.335,3.061,2.207,4.503,2.207h3.544"/>
<circle fill="none" stroke="#59515F" stroke-miterlimit="10" cx="70.259" cy="52.094" r="0.952"/>
<circle fill="none" stroke="#59515F" stroke-miterlimit="10" cx="70.259" cy="46.023" r="0.952"/>
<path fill="none" stroke="#59515F" stroke-linecap="round" stroke-linejoin="round" stroke-miterlimit="10" d="M64.958,3.239
	c0,0-5.683,6.901-15.425,7.307c-1.218,6.089-9.336,37.346-6.495,54.395c2.03,0.406,7.307,0,7.307,0s0.213-27.423,3.354-30.76
	c1.923,0.316,2.735,8.434,1.517,14.726c-1.096,5.663-2.842,12.476-1.926,16.298c0.171,0.713,0.827,1.199,1.558,1.251
	c3.847,0.272,14.49,0.725,15.032-9.024c0,0,1.069,14.206,17.198,7.926c0.602-0.234,0.965-0.844,0.926-1.489
	c-0.175-2.907-0.173-8.472-2.04-15.672c2.436-0.913,13.091-4.567,13.091-4.567s1.522-13.091-9.742-33.489
	c-2.74-0.609-9.742-1.674-12.787-6.901c-1.218,2.842-3.456,6.619-5.745,7.51C68.79,9.561,66.77,6.437,64.958,3.239z"/>
<path fill="none" stroke="#59515F" stroke-linecap="round" stroke-linejoin="round" stroke-miterlimit="10" d="M64.958,3.239
	c0,0,5.785-4.871,11.569,0"/>
<path fill="none" stroke="#59515F" stroke-miterlimit="10" d="M49.533,10.546c0,0,4.239,5.439,4.166,23.634"/>
<path fill="none" stroke="#59515F" stroke-miterlimit="10" d="M89.314,10.14c0,0-1.794,9.679-1.674,19.332"/>
</svg>
