<?xml version="1.0" encoding="utf-8"?>
<!-- Generator: Adobe Illustrator 17.0.0, SVG Export Plug-In . SVG Version: 6.00 Build 0)  -->
<!DOCTYPE svg PUBLIC "-//W3C//DTD SVG 1.1//EN" "http://www.w3.org/Graphics/SVG/1.1/DTD/svg11.dtd">
<svg version="1.1" id="Layer_1" xmlns="http://www.w3.org/2000/svg" xmlns:xlink="http://www.w3.org/1999/xlink" x="0px" y="0px"
	 width="140px" height="140px" viewBox="0 0 140 140" enable-background="new 0 0 140 140" xml:space="preserve">
<circle fill="none" stroke="#5C515F" stroke-width="1.5" stroke-miterlimit="10" cx="70" cy="70" r="68.583"/>
<circle fill="none" stroke="#5C515F" stroke-width="1.5" stroke-miterlimit="10" cx="70" cy="70" r="61.56"/>
<path fill="none" stroke="#5C515F" stroke-miterlimit="10" d="M70,16.703c-29.435,0-53.297,22.844-53.297,51.024
	S40.565,118.752,70,118.752s53.297-22.844,53.297-51.024S99.435,16.703,70,16.703z M60.497,55.746c3.537,0,6.404,2.867,6.404,6.404
	c0,3.537-2.867,6.404-6.404,6.404c-3.537,0-6.404-2.867-6.404-6.404C54.094,58.613,56.961,55.746,60.497,55.746z M60.807,86.319
	c-3.537,0-6.404-2.867-6.404-6.404c0-3.537,2.867-6.404,6.404-6.404c3.537,0,6.404,2.867,6.404,6.404
	C67.211,83.452,64.344,86.319,60.807,86.319z M78.883,55.746c3.537,0,6.404,2.867,6.404,6.404c0,3.537-2.867,6.404-6.404,6.404
	c-3.537,0-6.404-2.867-6.404-6.404C72.479,58.613,75.346,55.746,78.883,55.746z M79.193,86.319c-3.537,0-6.404-2.867-6.404-6.404
	c0-3.537,2.867-6.404,6.404-6.404c3.537,0,6.404,2.867,6.404,6.404C85.596,83.452,82.729,86.319,79.193,86.319z"/>
</svg>
