<?xml version="1.0" encoding="utf-8"?>
<!-- Generator: Adobe Illustrator 17.0.0, SVG Export Plug-In . SVG Version: 6.00 Build 0)  -->
<!DOCTYPE svg PUBLIC "-//W3C//DTD SVG 1.1//EN" "http://www.w3.org/Graphics/SVG/1.1/DTD/svg11.dtd">
<svg version="1.1" id="Layer_1" xmlns="http://www.w3.org/2000/svg" xmlns:xlink="http://www.w3.org/1999/xlink" x="0px" y="0px"
	 width="140px" height="140px" viewBox="0 0 140 140" enable-background="new 0 0 140 140" xml:space="preserve">
<path fill="none" stroke="#59515F" stroke-linecap="round" stroke-linejoin="round" stroke-miterlimit="10" d="M56.935,6.742
	c-3.197,5.422-1.973,12.694,1.909,17.444c1.487,1.817,7.25,5.877,10.788,5.631c1.975-0.137,2.754-2.652,1.346-4.042
	c-6.69-6.604-8.231-21.755-8.231-21.755"/>
<path fill="none" stroke="#59515F" stroke-linecap="round" stroke-linejoin="round" stroke-miterlimit="10" d="M86.371,6.742
	c3.197,5.422,1.973,12.694-1.909,17.444c-1.268,1.551-5.651,4.735-9.108,5.482c-2.499,0.541-4.341-2.46-2.6-4.333
	c6.33-6.811,7.805-21.315,7.805-21.315"/>
<path fill="none" stroke="#59515F" stroke-linecap="round" stroke-linejoin="round" stroke-miterlimit="10" d="M80.192,4.021
	c0,0,11.702,5.851,19.016,7.606c1.17,2.926,4.096,68.458,2.633,76.064c-2.926-0.293-7.899,0-7.899,0l-2.725-53.83
	c0,0-6.051,7.314-4.004,16.383c1.446,6.402,3.383,14.554,4.018,20.235c0.348,3.111-1.845,5.912-4.929,6.448
	c-4.3,0.748-9.168,1.294-14.832-0.793c-5.664,2.087-10.532,1.541-14.832,0.793c-3.085-0.537-5.277-3.337-4.929-6.448
	c0.635-5.682,2.572-13.833,4.018-20.235c2.048-9.069-4.004-16.383-4.004-16.383l-2.725,53.83c0,0-4.973-0.293-7.899,0
	c-1.463-7.606,1.463-73.138,2.633-76.064c7.314-1.755,19.016-7.606,19.016-7.606S72.477-2.774,80.192,4.021z"/>
<circle fill="#59515F" cx="71.469" cy="64.287" r="2.633"/>
<circle fill="#59515F" cx="71.469" cy="51.561" r="2.633"/>
<path fill="none" stroke="#59515F" stroke-miterlimit="10" d="M91.723,70.479c0,0,5.773,56.999,0,68.409c-5.334,0-20.007,0-20.007,0
	s-14.673,0-20.007,0c-5.773-11.41,0-68.409,0-68.409"/>
<path fill="none" stroke="#59515F" stroke-miterlimit="10" d="M43.731,11.627c0,0,8.972,2.854,7.991,22.234"/>
<path fill="none" stroke="#59515F" stroke-miterlimit="10" d="M99.191,11.627c0,0-8.972,2.854-7.991,22.234"/>
</svg>
