<?xml version="1.0" encoding="utf-8"?>
<!-- Generator: Adobe Illustrator 17.0.0, SVG Export Plug-In . SVG Version: 6.00 Build 0)  -->
<!DOCTYPE svg PUBLIC "-//W3C//DTD SVG 1.1//EN" "http://www.w3.org/Graphics/SVG/1.1/DTD/svg11.dtd">
<svg version="1.1" id="Layer_1" xmlns="http://www.w3.org/2000/svg" xmlns:xlink="http://www.w3.org/1999/xlink" x="0px" y="0px"
	 width="140px" height="140px" viewBox="0 0 140 140" enable-background="new 0 0 140 140" xml:space="preserve">
<g>
	<path d="M26.426,67.841c0.279-0.433,0.419-0.904,0.419-1.413c0-0.745-0.271-1.357-0.811-1.837c-0.541-0.479-1.395-0.72-2.562-0.72
		h-4.984v5.21h4.479c0.952,0,1.697-0.098,2.234-0.295C25.738,68.589,26.146,68.274,26.426,67.841z"/>
	<path d="M9.754,64.129c-0.351-0.093-0.999-0.14-1.944-0.14H3.781v5.629h4.071c1.346,0,2.302-0.25,2.868-0.752
		c0.565-0.501,0.849-1.207,0.849-2.116c0-0.659-0.167-1.223-0.5-1.692C10.737,64.59,10.298,64.28,9.754,64.129z"/>
	<path d="M92.12,64.435c-0.834-0.526-1.771-0.79-2.809-0.79c-1.476,0-2.744,0.507-3.809,1.52c-1.063,1.014-1.595,2.706-1.595,5.076
		c0,1.898,0.511,3.393,1.53,4.485c1.021,1.093,2.301,1.639,3.841,1.639c1.568,0,2.859-0.552,3.872-1.654
		c1.014-1.103,1.521-2.668,1.521-4.695c0-1.282-0.217-2.401-0.649-3.357C93.589,65.703,92.955,64.962,92.12,64.435z"/>
	<path d="M0,39.186v61.628h140V39.186H0z M12.439,70.086c-0.853,0.928-2.392,1.391-4.619,1.391H3.781v6.403H1.697V62.131h5.94
		c1.045,0,1.844,0.05,2.396,0.15c0.773,0.129,1.421,0.375,1.944,0.736c0.522,0.362,0.943,0.869,1.262,1.52
		c0.318,0.652,0.478,1.368,0.478,2.148C13.718,68.025,13.292,69.158,12.439,70.086z M27.661,77.88l-2.084-3.276
		c-0.609-0.945-1.11-1.669-1.504-2.17c-0.394-0.501-0.747-0.852-1.058-1.053c-0.312-0.2-0.628-0.34-0.951-0.419
		c-0.236-0.05-0.623-0.075-1.16-0.075h-2.417v6.994h-2.084V62.131h6.982c1.403,0,2.471,0.142,3.201,0.424
		c0.73,0.283,1.314,0.783,1.751,1.499c0.437,0.716,0.655,1.508,0.655,2.374c0,1.117-0.362,2.059-1.085,2.825
		c-0.724,0.767-1.841,1.253-3.352,1.461c0.551,0.265,0.97,0.526,1.257,0.784c0.608,0.559,1.185,1.257,1.729,2.095l2.739,4.286
		H27.661z M44.053,77.88H32.302V62.131h11.386v1.858h-9.302v4.823h8.712v1.848h-8.712v5.361h9.667V77.88z M58.04,75.801
		c-0.479,0.741-1.169,1.318-2.068,1.729c-0.898,0.412-1.91,0.618-3.034,0.618c-1.425,0-2.619-0.208-3.583-0.623
		c-0.963-0.415-1.719-1.04-2.266-1.875c-0.549-0.834-0.837-1.777-0.865-2.83l1.966-0.172c0.093,0.789,0.31,1.434,0.649,1.939
		c0.341,0.505,0.869,0.913,1.585,1.225s1.521,0.468,2.417,0.468c0.795,0,1.497-0.118,2.105-0.354s1.062-0.561,1.359-0.973
		c0.297-0.411,0.445-0.86,0.445-1.348c0-0.494-0.144-0.926-0.43-1.295c-0.286-0.369-0.759-0.678-1.418-0.929
		c-0.423-0.165-1.357-0.42-2.804-0.768c-1.446-0.347-2.46-0.675-3.04-0.983c-0.752-0.394-1.313-0.882-1.682-1.466
		c-0.368-0.583-0.553-1.237-0.553-1.96c0-0.795,0.226-1.538,0.677-2.229c0.451-0.691,1.11-1.215,1.977-1.574
		c0.866-0.358,1.83-0.537,2.89-0.537c1.167,0,2.197,0.188,3.088,0.564c0.893,0.376,1.578,0.929,2.058,1.66s0.737,1.558,0.773,2.481
		l-1.998,0.15c-0.107-0.995-0.471-1.747-1.091-2.256c-0.619-0.508-1.534-0.763-2.744-0.763c-1.261,0-2.179,0.231-2.756,0.693
		c-0.576,0.462-0.864,1.019-0.864,1.67c0,0.566,0.204,1.031,0.612,1.396c0.401,0.365,1.448,0.74,3.143,1.123
		c1.693,0.383,2.855,0.718,3.485,1.004c0.917,0.423,1.594,0.958,2.03,1.606c0.437,0.648,0.655,1.395,0.655,2.24
		C58.759,74.27,58.519,75.059,58.04,75.801z M72.714,75.801c-0.479,0.741-1.169,1.318-2.069,1.729
		c-0.898,0.412-1.91,0.618-3.034,0.618c-1.425,0-2.619-0.208-3.583-0.623c-0.963-0.415-1.719-1.04-2.266-1.875
		c-0.549-0.834-0.837-1.777-0.865-2.83l1.966-0.172c0.093,0.789,0.31,1.434,0.649,1.939c0.341,0.505,0.869,0.913,1.585,1.225
		s1.521,0.468,2.417,0.468c0.795,0,1.497-0.118,2.105-0.354s1.062-0.561,1.359-0.973c0.297-0.411,0.446-0.86,0.446-1.348
		c0-0.494-0.144-0.926-0.43-1.295c-0.286-0.369-0.759-0.678-1.418-0.929c-0.423-0.165-1.357-0.42-2.804-0.768
		c-1.446-0.347-2.46-0.675-3.04-0.983c-0.752-0.394-1.313-0.882-1.682-1.466c-0.368-0.583-0.553-1.237-0.553-1.96
		c0-0.795,0.226-1.538,0.677-2.229c0.451-0.691,1.11-1.215,1.977-1.574c0.866-0.358,1.83-0.537,2.89-0.537
		c1.167,0,2.197,0.188,3.088,0.564c0.893,0.376,1.579,0.929,2.058,1.66s0.737,1.558,0.773,2.481l-1.999,0.15
		c-0.107-0.995-0.471-1.747-1.091-2.256c-0.619-0.508-1.534-0.763-2.744-0.763c-1.261,0-2.179,0.231-2.756,0.693
		c-0.576,0.462-0.864,1.019-0.864,1.67c0,0.566,0.204,1.031,0.612,1.396c0.401,0.365,1.448,0.74,3.143,1.123
		c1.693,0.383,2.855,0.718,3.485,1.004c0.917,0.423,1.594,0.958,2.031,1.606c0.437,0.648,0.655,1.395,0.655,2.24
		C73.434,74.27,73.193,75.059,72.714,75.801z M95.854,74.313c-0.645,1.261-1.558,2.215-2.739,2.862
		c-1.182,0.648-2.456,0.973-3.824,0.973c-1.482,0-2.808-0.358-3.975-1.074s-2.052-1.693-2.653-2.933s-0.902-2.55-0.902-3.932
		c0-2.614,0.702-4.66,2.105-6.139c1.403-1.479,3.216-2.218,5.436-2.218c1.454,0,2.765,0.348,3.932,1.042
		c1.167,0.695,2.058,1.664,2.669,2.906c0.613,1.243,0.919,2.652,0.919,4.227C96.82,71.624,96.498,73.053,95.854,74.313z
		 M111.891,77.88h-2.138l-8.271-12.375V77.88h-1.998V62.131h2.138l8.271,12.365V62.131h1.998V77.88z M125.147,77.88h-9.84V62.131
		h2.084v13.89h7.756V77.88z M132.516,71.208v6.671h-2.084v-6.671l-6.069-9.077h2.535l3.104,4.748
		c0.573,0.888,1.106,1.776,1.601,2.664c0.473-0.823,1.046-1.751,1.719-2.782l3.051-4.63h2.428L132.516,71.208z"/>
</g>
</svg>
