<?xml version="1.0" encoding="utf-8"?>
<!-- Generator: Adobe Illustrator 17.0.0, SVG Export Plug-In . SVG Version: 6.00 Build 0)  -->
<!DOCTYPE svg PUBLIC "-//W3C//DTD SVG 1.1//EN" "http://www.w3.org/Graphics/SVG/1.1/DTD/svg11.dtd">
<svg version="1.1" id="Layer_1" xmlns="http://www.w3.org/2000/svg" xmlns:xlink="http://www.w3.org/1999/xlink" x="0px" y="0px"
	 width="140px" height="140px" viewBox="0 0 140 140" enable-background="new 0 0 140 140" xml:space="preserve">
<path fill="none" stroke="#5C515F" stroke-linecap="round" stroke-linejoin="round" stroke-miterlimit="10" d="M12.928,133.523
	c0,0,2.818-70.241,4.831-81.168s2.013-38.243,0-46.047c-1.208-4.293,1.61-4.683,4.831-4.683s94.604,0,97.019,0
	c3.623,0.39,5.636,0.39,6.441,6.244c0.77,5.599,1.54,31.552,1.958,43.7c0.03,0.866-0.256,1.719-0.855,2.362
	c-0.722,0.776-1.431,2-0.246,3.125c0.799,0.759,1.156,1.852,1.156,2.936c0,2.049,0,5.027,0,6.569c0,0.578-0.232,1.114-0.594,1.573
	c-0.426,0.54-0.803,1.442-0.042,2.59c0.379,0.571,0.636,1.21,0.636,1.889l0,7.093c0,0.654-0.127,1.306-0.404,1.903
	c-0.448,0.965-1.028,2.64-0.382,3.854c0.55,1.034,0.674,2.226,0.612,3.388c-0.261,4.876-0.469,15.494,2.201,20.588
	c0.306,0.583,0.448,1.236,0.479,1.89c0.152,3.26-0.45,5.622-0.091,7.363c-2.818,1.171-9.259,0.78-9.259,0.78
	c0.403,3.122,1.208,16.78,0,18.731c-2.013,0.78-3.221,0.78-7.649,0C113.57,138.205,38.29,142.888,12.928,133.523z"/>
<path fill="none" stroke="#5C515F" stroke-linecap="round" stroke-linejoin="round" stroke-miterlimit="10" d="M19.196,22.321
	c0,0,6.614,43.302,4.198,65.545c-0.805,8.975-5.278,30.048-1.834,33.56c3.042,1.951,35.363,3.902,50.2,3.122
	s49.458-5.073,49.458-5.073"/>
<path fill="none" stroke="#5C515F" stroke-linecap="round" stroke-linejoin="round" stroke-miterlimit="10" d="M41.523,123.965
	v4.742c0,0.955,0.571,1.823,1.469,2.217c2.908,1.275,8.198,1.751,10.192,1.428c2.415-0.39,47.795-7.131,58.72-11.761"/>
<path fill="none" stroke="#5C515F" stroke-linejoin="round" stroke-miterlimit="10" d="M23.326,60.164
	c0,0,45.559-0.004,59.247-3.516c13.687-3.512,43.795-1.468,43.795-1.468"/>
<path fill="none" stroke="#5C515F" stroke-linejoin="round" stroke-miterlimit="10" d="M24.088,74.326
	c0,0,45.559-0.004,59.247-3.516s43.795-1.468,43.795-1.468"/>
<path fill="none" stroke="#5C515F" stroke-linejoin="round" stroke-miterlimit="10" d="M23.326,89.166
	c0,0,46.321-0.004,60.009-3.516c13.687-3.512,43.795-1.468,43.795-1.468"/>
</svg>
