<?xml version="1.0" encoding="utf-8"?>
<!-- Generator: Adobe Illustrator 17.0.0, SVG Export Plug-In . SVG Version: 6.00 Build 0)  -->
<!DOCTYPE svg PUBLIC "-//W3C//DTD SVG 1.1//EN" "http://www.w3.org/Graphics/SVG/1.1/DTD/svg11.dtd">
<svg version="1.1" id="Layer_1" xmlns="http://www.w3.org/2000/svg" xmlns:xlink="http://www.w3.org/1999/xlink" x="0px" y="0px"
	 width="140px" height="140px" viewBox="0 0 140 140" enable-background="new 0 0 140 140" xml:space="preserve">
<path fill="none" stroke="#59515F" stroke-linecap="round" stroke-linejoin="round" stroke-miterlimit="10" d="M38.316,4.455
	c0,0,4.044,9.605,3.37,17.693s-3.164,9.946-1.685,17.861"/>
<path fill="none" stroke="#59515F" stroke-linecap="round" stroke-linejoin="round" stroke-miterlimit="10" d="M41.666,44.39"/>
<path fill="none" stroke="#59515F" stroke-linecap="round" stroke-linejoin="round" stroke-miterlimit="10" d="M41.666,18.082
	c0,0,5.398,17.834,22.192,17.883c0.031,0,0.055,0.027,0.038,0.054"/>
<path fill="none" stroke="#59515F" stroke-linecap="round" stroke-linejoin="round" stroke-miterlimit="10" d="M41.666,44.39
	c5.363,1.587,9.809,1.024,13.19-0.578c2.637-1.25,5.592-3.468,5.931-4.024c0,0,8.105,7.106,19.66,0.221
	c0,0,6.929,8.678,18.889,4.381"/>
<path fill="none" stroke="#59515F" stroke-linecap="round" stroke-linejoin="round" stroke-miterlimit="10" d="M40.039,9.5
	c0,0-7.789,16.586-1.723,30.287"/>
<path fill="none" stroke="#59515F" stroke-linecap="round" stroke-linejoin="round" stroke-miterlimit="10" d="M68.492,138.598
	c1.338-0.035,2.677-0.035,4.015,0c3.205,0.085,10.135-0.005,19.982-1.616c13.901-2.275,9.857-13.901,9.857-13.901l4.044-2.191
	l-0.337-7.751c-14.828-33.363-5.055-73.13-5.055-73.13c10.784-0.337,19.546-20.22,19.546-20.22S104.706,5.635,102.684,4.455
	s-10.11-3.539-10.11-3.539C89.51,5.395,79.935,7.071,74.455,7.674c-2.634,0.29-5.275,0.29-7.909,0
	c-5.48-0.603-15.055-2.279-18.119-6.757c0,0-8.088,2.359-10.11,3.539c-2.022,1.18-17.861,15.334-17.861,15.334
	s8.762,19.883,19.546,20.22c0,0,9.773,39.767-5.055,73.13l-0.337,7.751l4.044,2.191c0,0-4.044,11.627,9.857,13.901
	C58.357,138.593,65.287,138.683,68.492,138.598z"/>
<path fill="none" stroke="#59515F" stroke-linecap="round" stroke-linejoin="round" stroke-miterlimit="10" d="M102.684,4.455
	c0,0-4.044,9.605-3.37,17.693c0.674,8.088,3.164,9.946,1.685,17.861"/>
<path fill="none" stroke="#59515F" stroke-linecap="round" stroke-linejoin="round" stroke-miterlimit="10" d="M99.334,44.39"/>
<path fill="none" stroke="#59515F" stroke-linecap="round" stroke-linejoin="round" stroke-miterlimit="10" d="M99.334,18.082
	c0,0-5.367,17.732-22.049,17.883c-0.094,0.001-0.157,0.096-0.106,0.175"/>
<path fill="none" stroke="#59515F" stroke-linecap="round" stroke-linejoin="round" stroke-miterlimit="10" d="M100.961,9.5
	c0,0,7.789,16.586,1.723,30.287"/>
<path fill="none" stroke="#59515F" stroke-linecap="round" stroke-linejoin="round" stroke-miterlimit="10" d="M63.928,35.965
	c0,0,6.74,5.392,13.143,0"/>
<path fill="none" stroke="#59515F" stroke-linecap="round" stroke-linejoin="round" stroke-miterlimit="10" d="M48.426,0.917
	c0,0,1.348,8.088,0,11.458c0,0,10.784,2.359,12.132,11.795c0,0,7.33-2.106,19.883,0c1.348-9.436,12.132-11.795,12.132-11.795
	c-1.348-3.37,0-11.458,0-11.458"/>
<path fill="none" stroke="#59515F" stroke-linecap="round" stroke-linejoin="round" stroke-miterlimit="10" d="M86.676,5.017
	c0,0-1.701,10.77-16.108,10.39c-14.407,0.379-16.108-10.39-16.108-10.39"/>
<path fill="none" stroke="#59515F" stroke-linecap="round" stroke-linejoin="round" stroke-miterlimit="10" d="M38.014,122.735
	c0,0,2.661,2.368,5.568,1.104c1.39,0.885,7.077,4.929,12.006,2.78c1.769-1.011,4.929-1.769,6.572-0.126
	c1.896,1.517,6.445,2.001,8.341,0.748c2.022,0.769,2.907,1.799,4.044,0.715c1.896,0.307,5.687,2.076,10.11-0.704
	c2.78,0,6.066-0.253,7.077-2.022c2.022-0.253,6.066,0.758,10.616-2.148"/>
</svg>
