<?xml version="1.0" encoding="utf-8"?>
<!-- Generator: Adobe Illustrator 17.0.0, SVG Export Plug-In . SVG Version: 6.00 Build 0)  -->
<!DOCTYPE svg PUBLIC "-//W3C//DTD SVG 1.1//EN" "http://www.w3.org/Graphics/SVG/1.1/DTD/svg11.dtd">
<svg version="1.1" id="Layer_1" xmlns="http://www.w3.org/2000/svg" xmlns:xlink="http://www.w3.org/1999/xlink" x="0px" y="0px"
	 width="140px" height="140px" viewBox="0 0 140 140" enable-background="new 0 0 140 140" xml:space="preserve">
<path fill="none" stroke="#5C515F" stroke-linecap="round" stroke-linejoin="round" stroke-miterlimit="10" d="M16.063,77.415
	c0,0,1.79,31.578,24.389,31.797c28.703,0.279,27.31-26.474,27.31-26.474C62.189,65.46,36.829,59.051,36.829,59.051
	s-4.18-15.048-6.131-30.097c-1.672-10.868-2.947-14.843-3.344-15.884c-1.115-2.926-7.246-2.135-6.967,1.951
	c0.836,5.573,4.459,18.393,4.459,18.393s3.271,14.091,2.401,21.471c-0.078,0.664-0.244,1.305-0.491,1.926
	c-1.591,3.997-5.046,14.821-5.046,14.821c-0.124,1.498-0.908,2.87-2.132,3.742c-2.687,1.916-7.241,4.224-13.125,4.021
	c-3.065,0.279-5.016,0.012-5.016,0.012c0.557,3.61,2.508,28.97,1.672,33.15c3.493,0.499,24.972,2.808,40.931,3.265
	c3.802,0.109,9.022-1.072,13.251-2.992c5.366-2.437,8.548-4.508,11.248-6.705c0.558-0.454,1.179-0.814,1.898-0.814l0,0
	c0.719,0,1.301,0.414,1.898,0.814c2.519,1.688,6.621,4.61,11.989,7.043c4.133,1.874,8.708,2.763,12.51,2.654
	c15.959-0.458,37.438-2.766,40.931-3.265c-0.836-4.18,1.115-29.539,1.672-33.15c0,0-1.951,0.266-5.016-0.012
	c-5.884,0.203-10.438-2.105-13.125-4.021c-1.224-0.872-2.008-2.245-2.132-3.742c0,0-3.454-10.824-5.046-14.821
	c-0.247-0.622-0.413-1.262-0.491-1.926c-0.87-7.38,2.401-21.471,2.401-21.471s3.623-12.819,4.459-18.393
	c0.279-4.085-5.852-4.877-6.967-1.951c-0.397,1.042-1.672,5.016-3.344,15.884c-1.951,15.048-6.131,30.097-6.131,30.097
	s-25.359,6.41-30.933,23.687c0,0-1.393,26.753,27.31,26.474c22.599-0.219,24.389-31.797,24.389-31.797"/>
<line fill="none" stroke="#5C515F" stroke-linecap="round" stroke-linejoin="round" stroke-miterlimit="10" x1="67.762" y1="82.738" x2="73.113" y2="82.738"/>
</svg>
