<?xml version="1.0" encoding="utf-8"?>
<!-- Generator: Adobe Illustrator 17.0.0, SVG Export Plug-In . SVG Version: 6.00 Build 0)  -->
<!DOCTYPE svg PUBLIC "-//W3C//DTD SVG 1.1//EN" "http://www.w3.org/Graphics/SVG/1.1/DTD/svg11.dtd">
<svg version="1.1" id="Layer_1" xmlns="http://www.w3.org/2000/svg" xmlns:xlink="http://www.w3.org/1999/xlink" x="0px" y="0px"
	 width="140px" height="140px" viewBox="0 0 140 140" enable-background="new 0 0 140 140" xml:space="preserve">
<path fill="none" stroke="#5C515F" stroke-linecap="round" stroke-linejoin="round" stroke-miterlimit="10" d="M0.657,60.311
	c0,0,1.593,18.942,2.158,21.505c3.81,7.433,12.867,13.209,19.914,14.352"/>
<path fill="none" stroke="#5C515F" stroke-linecap="round" stroke-linejoin="round" stroke-miterlimit="10" d="M64.901,76.443
	l-2.285,6.898v25.33c-13.712-4.19-39.232-5.713-39.232-5.713l-2.285-23.703l5.142-6.769C26.24,72.485,56.903,76.592,64.901,76.443z"
	/>
<path fill="none" stroke="#5C515F" stroke-linecap="round" stroke-linejoin="round" stroke-miterlimit="10" d="M21.098,79.253
	c0,0,36.566,2.373,41.518,4.087"/>
<polyline fill="none" stroke="#5C515F" stroke-linecap="round" stroke-linejoin="round" stroke-miterlimit="10" points="
	47.154,75.039 46.867,76.797 46.867,81.297 "/>
<path fill="none" stroke="#5C515F" stroke-linecap="round" stroke-linejoin="round" stroke-miterlimit="10" d="M96.375,80.201
	c16.217-0.719,33.75-1.824,40.802-3.404c0,0,5.142,0.354,0,6.543c-6.285,4.761-16.569,13.808-19.14,14.855
	c-2.571,1.047-19.733,3.257-21.733,3.257"/>
<path fill="none" stroke="#5C515F" stroke-linecap="round" stroke-linejoin="round" stroke-miterlimit="10" d="M63.293,81.297
	c0,0,10.124,0.122,22.33-0.318"/>
<path fill="none" stroke="#5C515F" stroke-linecap="round" stroke-linejoin="round" stroke-miterlimit="10" d="M62.616,103.718
	c12.57-1.047,20.283-1.619,20.283-1.619l0.762,2.762c1.809,5.047,2.655-4.611,3.027-11.986c0.068-12.625-2.563-15.833-2.563-15.833
	C83.542,75.917,83,76.859,83,76.859"/>
<path fill="none" stroke="#5C515F" stroke-linecap="round" stroke-linejoin="round" stroke-miterlimit="10" d="M84.613,106.421
	c0,0,10.497,1.176,11.332-2.988c2.868-14.308-0.427-26.636-0.427-26.636c-0.455-1.422-1.21-0.286-1.21-0.286"/>
<path fill="#FFFFFF" stroke="#5C515F" stroke-miterlimit="10" d="M7.829,70.3c0,0,17.14-23.616,61.324-22.092
	s55.976,19.519,55.976,19.519"/>
<path fill="none" stroke="#5C515F" stroke-linecap="round" stroke-linejoin="round" stroke-miterlimit="10" d="M131.339,77.333
	c4.161-7.333,1.453-21.945,1.453-21.945"/>
<line fill="none" stroke="#5C515F" stroke-linecap="round" stroke-linejoin="round" stroke-miterlimit="10" x1="82.899" y1="102.099" x2="85.321" y2="101.873"/>
<path fill="none" stroke="#5C515F" stroke-linecap="round" stroke-linejoin="round" stroke-miterlimit="10" d="M64.901,76.443
	c0,0,29.661,1.87,48.057-2.231c13.225-2.948,20.108-11.4,19.901-18.026c-0.396-12.695-30.312-22.062-66.818-20.923
	S0.261,47.617,0.657,60.311c0.207,6.622,9.289,12.693,22.307,16.486"/>
<path fill="none" stroke="#5C515F" stroke-linecap="round" stroke-linejoin="round" stroke-miterlimit="10" d="M95.43,76.445"/>
</svg>
