<?xml version="1.0" encoding="utf-8"?>
<!-- Generator: Adobe Illustrator 17.0.0, SVG Export Plug-In . SVG Version: 6.00 Build 0)  -->
<!DOCTYPE svg PUBLIC "-//W3C//DTD SVG 1.1//EN" "http://www.w3.org/Graphics/SVG/1.1/DTD/svg11.dtd">
<svg version="1.1" id="Layer_1" xmlns="http://www.w3.org/2000/svg" xmlns:xlink="http://www.w3.org/1999/xlink" x="0px" y="0px"
	 width="140px" height="140px" viewBox="0 0 140 140" enable-background="new 0 0 140 140" xml:space="preserve">
<polygon fill="none" stroke="#5C515F" stroke-linecap="round" stroke-linejoin="round" stroke-miterlimit="10" points="5.73,42.043 
	101.19,60.766 132.834,48.9 37.902,30.44 "/>
<path fill="none" stroke="#5C515F" stroke-linecap="round" stroke-linejoin="round" stroke-miterlimit="10" d="M5.73,42.043
	c0,0-3.692,19.514-4.219,22.942c-0.527,3.428-2.637,9.757,2.11,11.339c0,0,4.747-10.812,9.757-9.757S85.895,90.564,91.96,92.147
	c0,0,0.183,6.959-0.977,11.11c-0.436,1.56-0.302,3.241,0.537,4.628c0.991,1.638,2.06,2.347,5.187,0.876
	c1.582-1.319,1.846-3.428,5.01-2.637c3.164,0.791,8.966-2.11,8.702-5.538c-0.264-3.428-2.901-7.911-1.582-9.23
	c1.319-1.319,14.767-12.13,19.25-10.548c1.582,2.637,0.527,9.493,3.428,8.966c2.901-0.527,3.164-6.329,7.647-5.538
	c2.11-2.637-4.219-19.25-6.329-35.336"/>
<path fill="none" stroke="#5C515F" stroke-linecap="round" stroke-linejoin="round" stroke-miterlimit="10" d="M139.163,84.236
	c0,0-5.01-5.274-6.329-3.692c-1.319,1.582-1.319,9.23-1.319,9.23"/>
<path fill="none" stroke="#5C515F" stroke-linecap="round" stroke-linejoin="round" stroke-miterlimit="10" d="M11.687,66.641
	c0,0-6.478-5.017-10.7,1.147"/>
<path fill="none" stroke="#5C515F" stroke-linecap="round" stroke-linejoin="round" stroke-miterlimit="10" d="M5.73,42.043
	c0,0,2.637,19.25,7.647,24.524"/>
<path fill="none" stroke="#5C515F" stroke-linecap="round" stroke-linejoin="round" stroke-miterlimit="10" d="M90.772,105.588
	c0,0,8.836,0.007,5.936-3.421c-2.901-3.428-5.801-9.23-4.219-12.394c1.582-3.164,7.647-26.37,6.329-29.007"/>
<path fill="none" stroke="#5C515F" stroke-linecap="round" stroke-linejoin="round" stroke-miterlimit="10" d="M105.409,59.184
	c0,0,4.219,22.678,3.428,32.172"/>
<path fill="none" stroke="#5C515F" stroke-linecap="round" stroke-linejoin="round" stroke-miterlimit="10" d="M99.003,106.361
	c0,0,5.848-32.943,2.187-45.595"/>
<g>
	<polyline fill="none" stroke="#5C515F" stroke-linecap="round" stroke-linejoin="round" stroke-miterlimit="10" points="
		16.278,67.788 16.278,83.177 17.813,83.177 17.845,67.874 	"/>
	<polyline fill="none" stroke="#5C515F" stroke-linecap="round" stroke-linejoin="round" stroke-miterlimit="10" points="
		101.717,106.123 101.717,115.88 103.188,115.406 103.188,106.231 	"/>
	<polyline fill="none" stroke="#5C515F" stroke-linecap="round" stroke-linejoin="round" stroke-miterlimit="10" points="
		126.489,80.688 126.489,106.361 125,106.854 125,81.25 	"/>
</g>
</svg>
