<?xml version="1.0" encoding="utf-8"?>
<!-- Generator: Adobe Illustrator 17.0.0, SVG Export Plug-In . SVG Version: 6.00 Build 0)  -->
<!DOCTYPE svg PUBLIC "-//W3C//DTD SVG 1.1//EN" "http://www.w3.org/Graphics/SVG/1.1/DTD/svg11.dtd">
<svg version="1.1" id="Layer_1" xmlns="http://www.w3.org/2000/svg" xmlns:xlink="http://www.w3.org/1999/xlink" x="0px" y="0px"
	 width="140px" height="140px" viewBox="0 0 140 140" enable-background="new 0 0 140 140" xml:space="preserve">
<image display="none" overflow="visible" width="140" height="140" xlink:href="83.jpg" >
</image>
<path fill="none" stroke="#5C515F" stroke-linecap="round" stroke-linejoin="round" stroke-miterlimit="10" d="M44.942,2.675
	c0.238-0.781,0.936-1.32,1.751-1.372c0.684-0.044,1.569-0.072,2.53-0.03c1.082,0.047,2.138,0.427,2.98,1.108
	C69.047,16.005,73.88,37.078,73.88,37.078l-7.899,0.203c0,0-6.364-19.467-14.774-27.629c-0.623-0.605-1.67-0.376-1.947,0.447
	c-0.972,2.885-1.822,9.845-1.305,16.448c0.81,10.329,18.025,10.734,18.025,10.734"/>
<path fill="none" stroke="#5C515F" stroke-linecap="round" stroke-linejoin="round" stroke-miterlimit="10" d="M74.018,37.281
	c0,0,17.215-0.405,18.025-10.734c0.518-6.603-0.333-13.563-1.305-16.448c-0.277-0.823-1.324-1.052-1.947-0.447
	C80.382,17.814,74.018,37.281,74.018,37.281l-7.899-0.203c0,0,4.833-21.073,21.677-34.697c0.842-0.681,1.898-1.061,2.98-1.108
	c0.961-0.041,1.847-0.013,2.53,0.03c0.815,0.052,1.512,0.59,1.751,1.372C96.689,8.022,108.333,40,97.916,71.71
	c-1.625,5.165-1.215,7.494,0.405,11.342c1.62,3.848,6.616,14.792,7.088,17.822c0.382,2.126,0.073,4.917-1.645,6.472
	c-5.315,4.809-22.593,20.189-27.519,31.401c-4.861,0-6.011,0-6.011,0s-1.621,0-6.481,0"/>
<path fill="none" stroke="#5C515F" stroke-linecap="round" stroke-linejoin="round" stroke-miterlimit="10" d="M46.693,1.278
	c-0.815,0.052-1.512,0.59-1.751,1.372c-1.632,5.347-13.276,37.325-2.859,69.035c1.625,5.165,1.215,7.494-0.405,11.342
	c-1.62,3.848-6.616,14.792-7.088,17.822c-0.382,2.126-0.073,4.917,1.645,6.472c5.315,4.809,22.593,20.189,27.519,31.401"/>
</svg>
