<?xml version="1.0" encoding="utf-8"?>
<!-- Generator: Adobe Illustrator 17.0.0, SVG Export Plug-In . SVG Version: 6.00 Build 0)  -->
<!DOCTYPE svg PUBLIC "-//W3C//DTD SVG 1.1//EN" "http://www.w3.org/Graphics/SVG/1.1/DTD/svg11.dtd">
<svg version="1.1" id="Layer_1" xmlns="http://www.w3.org/2000/svg" xmlns:xlink="http://www.w3.org/1999/xlink" x="0px" y="0px"
	 width="140px" height="140px" viewBox="0 0 140 140" enable-background="new 0 0 140 140" xml:space="preserve">
<path fill="none" stroke="#5C515F" stroke-linecap="round" stroke-linejoin="round" stroke-miterlimit="10" d="M60.033,112.292
	c2.738,3.263,62.429-15.792,71.558-17.273c9.13-1.481,12.091-13.571-1.234-15.545c3.208-2.221,15.052-6.662,0.247-16.779
	c-8.883-3.948-33.805-8.883-41.701-14.558s-12.007-13.571-19.328-9.87c-7.321,3.701-28.295,11.351-39.152,12.831
	s-18.26,7.156-21.221,9.13s-9.87-1.234-8.39,4.442c2.221,2.468,7.403,2.892,7.156,4.407c-0.247,1.515-9.377,0.035-4.442,4.476
	S48.435,98.474,60.033,112.292z"/>
<path fill="none" stroke="#5C515F" stroke-linecap="round" stroke-linejoin="round" stroke-miterlimit="10" d="M9.202,60.227
	c0,0,40.468,26.649,45.649,26.896c5.182,0.247,0.74-3.208-5.675-6.662S35.111,73.058,34.37,70.344
	c-0.74-2.714-2.961-6.662,6.169-6.416s29.117-0.74,37.753-2.221s18.676-4.232,11.929-12.727"/>
<path fill="none" stroke="#5C515F" stroke-linecap="round" stroke-linejoin="round" stroke-miterlimit="10" d="M34.236,65.277
	c0,0,10.939-14.2,27.128-23.443"/>
<path fill="none" stroke="#5C515F" stroke-linecap="round" stroke-linejoin="round" stroke-miterlimit="10" d="M7.968,69.076
	c0,0,42.688,23.97,47.623,30.138c0,0,67.364-16.779,74.766-19.74"/>
<path fill="none" stroke="#5C515F" stroke-linecap="round" stroke-linejoin="round" stroke-miterlimit="10" d="M54.851,87.123
	c0,0-2.521,3.455,6.512,1.727s62.578-16.286,62.578-16.286s9.185-2.484,10.021-7.287"/>
<path fill="none" stroke="#5C515F" stroke-linecap="round" stroke-linejoin="round" stroke-miterlimit="10" d="M55.591,99.214
	c0,0-0.793,7.156,5.772,6.416c6.565-0.74,59.617-14.085,65.539-16.296c5.922-2.211,8.367,4.355,8.367,4.355"/>
</svg>
