<?xml version="1.0" encoding="utf-8"?>
<!-- Generator: Adobe Illustrator 17.0.0, SVG Export Plug-In . SVG Version: 6.00 Build 0)  -->
<!DOCTYPE svg PUBLIC "-//W3C//DTD SVG 1.1//EN" "http://www.w3.org/Graphics/SVG/1.1/DTD/svg11.dtd">
<svg version="1.1" id="Layer_1" xmlns="http://www.w3.org/2000/svg" xmlns:xlink="http://www.w3.org/1999/xlink" x="0px" y="0px"
	 width="140px" height="140px" viewBox="0 0 140 140" enable-background="new 0 0 140 140" xml:space="preserve">
<g>
	
		<ellipse fill="none" stroke="#5C515F" stroke-linecap="round" stroke-linejoin="round" stroke-miterlimit="10" cx="31.661" cy="56.909" rx="4.568" ry="4.537"/>
	<polyline fill="none" stroke="#5C515F" stroke-linecap="round" stroke-linejoin="round" stroke-miterlimit="10" points="
		30.2,52.372 22.495,1.719 19.733,1.719 18.458,139.104 21.433,139.104 31.419,129.819 38.218,139.104 40.98,139.104 46.716,0.875 
		42.892,0.875 33.137,52.373 	"/>
	<path fill="none" stroke="#5C515F" stroke-linecap="round" stroke-linejoin="round" stroke-miterlimit="10" d="M27.093,56.909
		c0,0-3.051,7.066,4.568,8.121"/>
	
		<line fill="none" stroke="#5C515F" stroke-linecap="round" stroke-linejoin="round" stroke-miterlimit="10" x1="30.684" y1="68.468" x2="31.098" y2="103.015"/>
	<g>
		<g>
			<path fill="#5C515F" d="M21.433,93.332c1.935,0,1.935-3,0-3S19.498,93.332,21.433,93.332L21.433,93.332z"/>
		</g>
	</g>
	<g>
		<g>
			<path fill="#5C515F" d="M30.994,83.835c1.935,0,1.935-3,0-3S29.059,83.835,30.994,83.835L30.994,83.835z"/>
		</g>
	</g>
	<g>
		<g>
			<path fill="#5C515F" d="M40.342,92.277c1.935,0,1.935-3,0-3S38.408,92.277,40.342,92.277L40.342,92.277z"/>
		</g>
	</g>
	<path fill="none" stroke="#5C515F" stroke-linecap="round" stroke-linejoin="round" stroke-miterlimit="10" d="M30.994,117.156
		c-10.039-8.23,0-14.139,0-14.139S41.033,108.926,30.994,117.156z"/>
	
		<line fill="none" stroke="#5C515F" stroke-linecap="round" stroke-linejoin="round" stroke-miterlimit="10" x1="34.706" y1="60.285" x2="18.891" y2="92.463"/>
	
		<line fill="none" stroke="#5C515F" stroke-linecap="round" stroke-linejoin="round" stroke-miterlimit="10" x1="30.994" y1="117.156" x2="31.419" y2="129.819"/>
</g>
<g>
	
		<ellipse fill="none" stroke="#5C515F" stroke-linecap="round" stroke-linejoin="round" stroke-miterlimit="10" cx="71.074" cy="56.909" rx="4.568" ry="4.537"/>
	<polyline fill="none" stroke="#5C515F" stroke-linecap="round" stroke-linejoin="round" stroke-miterlimit="10" points="
		69.612,52.372 61.908,1.719 59.146,1.719 57.871,139.104 60.846,139.104 70.832,129.819 77.631,139.104 80.393,139.104 
		86.129,0.875 82.305,0.875 72.55,52.373 	"/>
	<path fill="none" stroke="#5C515F" stroke-linecap="round" stroke-linejoin="round" stroke-miterlimit="10" d="M66.506,56.909
		c0,0-3.051,7.066,4.568,8.121"/>
	
		<line fill="none" stroke="#5C515F" stroke-linecap="round" stroke-linejoin="round" stroke-miterlimit="10" x1="70.097" y1="68.468" x2="70.511" y2="103.015"/>
	<g>
		<g>
			<path fill="#5C515F" d="M60.846,93.332c1.935,0,1.935-3,0-3S58.911,93.332,60.846,93.332L60.846,93.332z"/>
		</g>
	</g>
	<g>
		<g>
			<path fill="#5C515F" d="M70.407,83.835c1.935,0,1.935-3,0-3C68.472,80.835,68.472,83.835,70.407,83.835L70.407,83.835z"/>
		</g>
	</g>
	<g>
		<g>
			<path fill="#5C515F" d="M79.755,92.277c1.935,0,1.935-3,0-3C77.821,89.277,77.821,92.277,79.755,92.277L79.755,92.277z"/>
		</g>
	</g>
	<path fill="none" stroke="#5C515F" stroke-linecap="round" stroke-linejoin="round" stroke-miterlimit="10" d="M70.407,117.156
		c-10.039-8.23,0-14.139,0-14.139S80.446,108.926,70.407,117.156z"/>
	
		<line fill="none" stroke="#5C515F" stroke-linecap="round" stroke-linejoin="round" stroke-miterlimit="10" x1="74.118" y1="60.285" x2="58.304" y2="92.463"/>
	
		<line fill="none" stroke="#5C515F" stroke-linecap="round" stroke-linejoin="round" stroke-miterlimit="10" x1="70.407" y1="117.156" x2="70.832" y2="129.819"/>
</g>
<g>
	
		<ellipse fill="none" stroke="#5C515F" stroke-linecap="round" stroke-linejoin="round" stroke-miterlimit="10" cx="110.487" cy="56.909" rx="4.568" ry="4.537"/>
	<polyline fill="none" stroke="#5C515F" stroke-linecap="round" stroke-linejoin="round" stroke-miterlimit="10" points="
		109.025,52.372 101.321,1.719 98.559,1.719 97.284,139.104 100.258,139.104 110.244,129.819 117.043,139.104 119.806,139.104 
		125.542,0.875 121.718,0.875 111.963,52.373 	"/>
	<path fill="none" stroke="#5C515F" stroke-linecap="round" stroke-linejoin="round" stroke-miterlimit="10" d="M105.919,56.909
		c0,0-3.051,7.066,4.568,8.121"/>
	
		<line fill="none" stroke="#5C515F" stroke-linecap="round" stroke-linejoin="round" stroke-miterlimit="10" x1="109.51" y1="68.468" x2="109.924" y2="103.015"/>
	<g>
		<g>
			<path fill="#5C515F" d="M100.258,93.332c1.935,0,1.935-3,0-3C98.324,90.332,98.324,93.332,100.258,93.332L100.258,93.332z"/>
		</g>
	</g>
	<g>
		<g>
			<path fill="#5C515F" d="M109.82,83.835c1.935,0,1.935-3,0-3C107.885,80.835,107.885,83.835,109.82,83.835L109.82,83.835z"/>
		</g>
	</g>
	<g>
		<g>
			<path fill="#5C515F" d="M119.168,92.277c1.935,0,1.935-3,0-3C117.234,89.277,117.234,92.277,119.168,92.277L119.168,92.277z"/>
		</g>
	</g>
	<path fill="none" stroke="#5C515F" stroke-linecap="round" stroke-linejoin="round" stroke-miterlimit="10" d="M109.82,117.156
		c-10.039-8.23,0-14.139,0-14.139S119.859,108.926,109.82,117.156z"/>
	
		<line fill="none" stroke="#5C515F" stroke-linecap="round" stroke-linejoin="round" stroke-miterlimit="10" x1="113.531" y1="60.285" x2="97.717" y2="92.463"/>
	
		<line fill="none" stroke="#5C515F" stroke-linecap="round" stroke-linejoin="round" stroke-miterlimit="10" x1="109.82" y1="117.156" x2="110.244" y2="129.819"/>
</g>
</svg>
