<?xml version="1.0" encoding="utf-8"?>
<!-- Generator: Adobe Illustrator 17.0.0, SVG Export Plug-In . SVG Version: 6.00 Build 0)  -->
<!DOCTYPE svg PUBLIC "-//W3C//DTD SVG 1.1//EN" "http://www.w3.org/Graphics/SVG/1.1/DTD/svg11.dtd">
<svg version="1.1" id="Layer_1" xmlns="http://www.w3.org/2000/svg" xmlns:xlink="http://www.w3.org/1999/xlink" x="0px" y="0px"
	 width="140px" height="140px" viewBox="0 0 140 140" enable-background="new 0 0 140 140" xml:space="preserve">
<path fill="none" stroke="#5C515F" stroke-linecap="round" stroke-linejoin="round" stroke-miterlimit="10" d="M6.464,32.448
	c0,0-0.517,85.646,0,88.948c0.867,5.54,2.812,8.946,12.269,11.246c9.457,2.3,3.578,3.067,7.924,3.834
	c4.345,0.767,30.672-1.022,30.927-12.269c0.256-11.246,0-93.804,0-93.804s-14.569-7.924-29.138-4.345S25.123,30.915,6.464,32.448z"
	/>
<path fill="none" stroke="#5C515F" stroke-linecap="round" stroke-linejoin="round" stroke-miterlimit="10" d="M16.126,31.211
	C11.475,30.229,6.209,1.265,2.119,4.333s4.345,28.116,4.345,28.116s25.56,14.313,51.119-2.045c0,0,25.304-24.026,13.035-26.838
	s-14.63,25.504-19.62,24.101"/>
<path fill="none" stroke="#5C515F" stroke-linecap="round" stroke-linejoin="round" stroke-miterlimit="10" d="M81.865,19.668
	c0,0,0.137,97.894,1.602,103.006c1.465,5.112,9.644,13.802,20.635,12.269c4.856-1.022,2.045-1.789,10.735-2.556
	c8.69-0.767,18.659-7.157,22.237-9.713c2.3-4.601,1.022-23.004,1.022-25.815c0-2.812-1.592-20.192,0.354-25.815
	s-1.888-6.646-2.143-11.246c-0.256-4.601,1.534-30.672-3.323-42.94C132.985,16.857,112.537,24.78,81.865,19.668z"/>
<path fill="none" stroke="#5C515F" stroke-linecap="round" stroke-linejoin="round" stroke-miterlimit="10" d="M82.483,27.584
	c0,0,28.142,4.797,52.613-2.454"/>
<path fill="none" stroke="#5C515F" stroke-linecap="round" stroke-linejoin="round" stroke-miterlimit="10" d="M82.994,102.958
	c0,0,23.065,18.176,55.186-3.547"/>
<path fill="none" stroke="#5C515F" stroke-linecap="round" stroke-linejoin="round" stroke-miterlimit="10" d="M136.483,61.038
	c-6.726,6.609-33.659,3.615-33.659,3.615s-1.908,9.713,7.608,9.713s24.027-0.256,28.018-3.323"/>
<g>
	<g>
		<path fill="#5C515F" d="M124.039,72.288c1.935,0,1.935-3,0-3C122.104,69.288,122.104,72.288,124.039,72.288L124.039,72.288z"/>
	</g>
</g>
<path fill="none" stroke="#5C515F" stroke-linecap="round" stroke-linejoin="round" stroke-miterlimit="10" d="M81.865,22.224
	c0,0-6.901-2.367-6.134,2.906s6.241,4.425,6.134,13.453"/>
<path fill="none" stroke="#5C515F" stroke-linecap="round" stroke-linejoin="round" stroke-miterlimit="10" d="M85.875,20.268
	c0,0,4.425-7.756,7.493-8.012c3.067-0.256,2.556,4.689,4.601,4.006c2.045-0.683-0.511-5.795,1.534-6.051
	c2.045-0.256,4.345,0,7.668-2.3c3.323-2.3,3.578-0.511,6.646,0s5.565,2.045,6.744,0.767c0.884-0.958,3.262,1.821,3.749,4.241
	c0.355,1.763,1.768,3.139,3.489,3.66c1.759,0.532,3.772,0.868,5.187,0.278"/>
</svg>
