<?xml version="1.0" encoding="utf-8"?>
<!-- Generator: Adobe Illustrator 17.0.0, SVG Export Plug-In . SVG Version: 6.00 Build 0)  -->
<!DOCTYPE svg PUBLIC "-//W3C//DTD SVG 1.1//EN" "http://www.w3.org/Graphics/SVG/1.1/DTD/svg11.dtd">
<svg version="1.1" id="Layer_1" xmlns="http://www.w3.org/2000/svg" xmlns:xlink="http://www.w3.org/1999/xlink" x="0px" y="0px"
	 width="140px" height="140px" viewBox="0 0 140 140" enable-background="new 0 0 140 140" xml:space="preserve">
<g>
	<path fill="none" stroke="#5C515F" stroke-linecap="round" stroke-linejoin="round" stroke-miterlimit="10" d="M9.782,2.078
		c0,0,0.267,89.906-2.935,136.86h53.357L61.538,3.678c0,0-9.604-3.201-10.938,0.534c-2.401,0.534-5.602,0.267-5.602,0.267
		s0-2.668-5.602-2.401c-4.002,0-1.867,2.935-3.201,2.935s-3.201,0.267-4.269-0.534s-4.002-4.039-7.47-2.42
		c-0.8,1.619-1.334,2.687-4.002,1.353S12.717,0.21,9.782,2.078z"/>
	
		<circle fill="none" stroke="#5C515F" stroke-linecap="round" stroke-linejoin="round" stroke-miterlimit="10" cx="17.652" cy="7.947" r="2.268"/>
	
		<circle fill="none" stroke="#5C515F" stroke-linecap="round" stroke-linejoin="round" stroke-miterlimit="10" cx="29.769" cy="7.947" r="2.268"/>
	
		<circle fill="none" stroke="#5C515F" stroke-linecap="round" stroke-linejoin="round" stroke-miterlimit="10" cx="44.197" cy="7.947" r="2.268"/>
	<path fill="none" stroke="#5C515F" stroke-linecap="round" stroke-linejoin="round" stroke-miterlimit="10" d="M17.652,10.215
		c0,0-6.055,120.163-5.762,128.723"/>
	<path fill="none" stroke="#5C515F" stroke-linecap="round" stroke-linejoin="round" stroke-miterlimit="10" d="M24.455,2.059
		c0,0-1.776,130.368-4.535,136.879"/>
	<path fill="none" stroke="#5C515F" stroke-linecap="round" stroke-linejoin="round" stroke-miterlimit="10" d="M29.769,10.215
		c0,0-3.203,124.847,0,128.723"/>
	<path fill="none" stroke="#5C515F" stroke-linecap="round" stroke-linejoin="round" stroke-miterlimit="10" d="M36.194,5.012
		c0,0-1.755,125.072,0,133.925"/>
	<path fill="none" stroke="#5C515F" stroke-linecap="round" stroke-linejoin="round" stroke-miterlimit="10" d="M44.197,10.215
		c0,0-5.955,124.554-3.32,128.723"/>
	<path fill="none" stroke="#5C515F" stroke-linecap="round" stroke-linejoin="round" stroke-miterlimit="10" d="M51.88,2.878
		c0,0-6.318,128.671-3.097,136.06"/>
	
		<line fill="none" stroke="#5C515F" stroke-linecap="round" stroke-linejoin="round" stroke-miterlimit="10" x1="9.788" y1="7.947" x2="61.496" y2="7.947"/>
</g>
<g>
	<path fill="none" stroke="#5C515F" stroke-linecap="round" stroke-linejoin="round" stroke-miterlimit="10" d="M130.103,2.078
		c0,0-0.267,89.906,2.935,136.86H79.681L78.347,3.678c0,0,9.604-3.201,10.938,0.534c2.401,0.534,5.602,0.267,5.602,0.267
		s0-2.668,5.602-2.401c4.002,0,1.867,2.935,3.201,2.935s3.201,0.267,4.269-0.534s4.002-4.039,7.47-2.42
		c0.8,1.619,1.334,2.687,4.002,1.353C122.099,2.078,127.168,0.21,130.103,2.078z"/>
	
		<circle fill="none" stroke="#5C515F" stroke-linecap="round" stroke-linejoin="round" stroke-miterlimit="10" cx="122.232" cy="7.947" r="2.268"/>
	
		<circle fill="none" stroke="#5C515F" stroke-linecap="round" stroke-linejoin="round" stroke-miterlimit="10" cx="110.116" cy="7.947" r="2.268"/>
	
		<circle fill="none" stroke="#5C515F" stroke-linecap="round" stroke-linejoin="round" stroke-miterlimit="10" cx="95.688" cy="7.947" r="2.268"/>
	<path fill="none" stroke="#5C515F" stroke-linecap="round" stroke-linejoin="round" stroke-miterlimit="10" d="M122.232,10.215
		c0,0,6.055,120.163,5.762,128.723"/>
	<path fill="none" stroke="#5C515F" stroke-linecap="round" stroke-linejoin="round" stroke-miterlimit="10" d="M115.43,2.059
		c0,0,1.776,130.368,4.535,136.879"/>
	<path fill="none" stroke="#5C515F" stroke-linecap="round" stroke-linejoin="round" stroke-miterlimit="10" d="M110.116,10.215
		c0,0,3.203,124.847,0,128.723"/>
	<path fill="none" stroke="#5C515F" stroke-linecap="round" stroke-linejoin="round" stroke-miterlimit="10" d="M103.691,5.012
		c0,0,1.755,125.072,0,133.925"/>
	<path fill="none" stroke="#5C515F" stroke-linecap="round" stroke-linejoin="round" stroke-miterlimit="10" d="M95.688,10.215
		c0,0,5.955,124.554,3.32,128.723"/>
	<path fill="none" stroke="#5C515F" stroke-linecap="round" stroke-linejoin="round" stroke-miterlimit="10" d="M88.005,2.878
		c0,0,6.318,128.671,3.097,136.06"/>
	
		<line fill="none" stroke="#5C515F" stroke-linecap="round" stroke-linejoin="round" stroke-miterlimit="10" x1="130.097" y1="7.947" x2="78.389" y2="7.947"/>
</g>
</svg>
