<?xml version="1.0" encoding="utf-8"?>
<!-- Generator: Adobe Illustrator 17.0.0, SVG Export Plug-In . SVG Version: 6.00 Build 0)  -->
<!DOCTYPE svg PUBLIC "-//W3C//DTD SVG 1.1//EN" "http://www.w3.org/Graphics/SVG/1.1/DTD/svg11.dtd">
<svg version="1.1" id="Layer_1" xmlns="http://www.w3.org/2000/svg" xmlns:xlink="http://www.w3.org/1999/xlink" x="0px" y="0px"
	 width="140px" height="140px" viewBox="0 0 140 140" enable-background="new 0 0 140 140" xml:space="preserve">
<polygon fill="none" stroke="#5C515F" stroke-linecap="round" stroke-linejoin="round" stroke-miterlimit="10" points="
	5.968,62.244 95.216,31.535 132.403,67.728 35.957,108.068 "/>
<polygon fill="none" stroke="#5C515F" stroke-linecap="round" stroke-linejoin="round" stroke-miterlimit="10" points="
	9.212,63.355 94.676,33.949 128.649,67.015 36.76,105.448 "/>
<polygon fill="none" stroke="#5C515F" stroke-linecap="round" stroke-linejoin="round" stroke-miterlimit="10" points="
	22.042,65.603 91.377,40.892 116.568,65.603 43.154,94.632 "/>
<polygon fill="none" stroke="#5C515F" stroke-linecap="round" stroke-linejoin="round" stroke-miterlimit="10" points="
	27.082,67.161 90.576,44.532 110.883,64.453 44.269,90.793 "/>
<polyline fill="none" stroke="#5C515F" stroke-linecap="round" stroke-linejoin="round" stroke-miterlimit="10" points="
	43.154,94.632 22.042,65.603 91.377,40.892 "/>
<g>
	<path fill="none" stroke="#5C515F" stroke-linecap="round" stroke-linejoin="round" stroke-miterlimit="10" d="M132.403,67.728
		c3.754,0.713,6.718-1.166,6.718-1.166l-41.165-39.06c-0.366-0.348-0.972-0.157-1.066,0.34c-0.335,1.759-1.674,3.692-1.674,3.692"/>
	<g>
		
			<line fill="none" stroke="#5C515F" stroke-linecap="round" stroke-linejoin="round" stroke-miterlimit="10" x1="95.99" y1="33.156" x2="98.416" y2="28.915"/>
		
			<line fill="none" stroke="#5C515F" stroke-linecap="round" stroke-linejoin="round" stroke-miterlimit="10" x1="96.893" y1="34.018" x2="99.318" y2="29.777"/>
		
			<line fill="none" stroke="#5C515F" stroke-linecap="round" stroke-linejoin="round" stroke-miterlimit="10" x1="97.795" y1="34.88" x2="100.22" y2="30.638"/>
		
			<line fill="none" stroke="#5C515F" stroke-linecap="round" stroke-linejoin="round" stroke-miterlimit="10" x1="98.697" y1="35.742" x2="101.122" y2="31.5"/>
		
			<line fill="none" stroke="#5C515F" stroke-linecap="round" stroke-linejoin="round" stroke-miterlimit="10" x1="99.599" y1="36.603" x2="102.025" y2="32.362"/>
		
			<line fill="none" stroke="#5C515F" stroke-linecap="round" stroke-linejoin="round" stroke-miterlimit="10" x1="100.501" y1="37.465" x2="102.927" y2="33.224"/>
		
			<line fill="none" stroke="#5C515F" stroke-linecap="round" stroke-linejoin="round" stroke-miterlimit="10" x1="101.404" y1="38.327" x2="103.829" y2="34.086"/>
		
			<line fill="none" stroke="#5C515F" stroke-linecap="round" stroke-linejoin="round" stroke-miterlimit="10" x1="102.306" y1="39.189" x2="104.731" y2="34.948"/>
		
			<line fill="none" stroke="#5C515F" stroke-linecap="round" stroke-linejoin="round" stroke-miterlimit="10" x1="103.208" y1="40.051" x2="105.633" y2="35.809"/>
		
			<line fill="none" stroke="#5C515F" stroke-linecap="round" stroke-linejoin="round" stroke-miterlimit="10" x1="104.11" y1="40.913" x2="106.536" y2="36.671"/>
		
			<line fill="none" stroke="#5C515F" stroke-linecap="round" stroke-linejoin="round" stroke-miterlimit="10" x1="105.013" y1="41.774" x2="107.438" y2="37.533"/>
		
			<line fill="none" stroke="#5C515F" stroke-linecap="round" stroke-linejoin="round" stroke-miterlimit="10" x1="105.915" y1="42.636" x2="108.34" y2="38.395"/>
		
			<line fill="none" stroke="#5C515F" stroke-linecap="round" stroke-linejoin="round" stroke-miterlimit="10" x1="106.817" y1="43.498" x2="109.242" y2="39.257"/>
		
			<line fill="none" stroke="#5C515F" stroke-linecap="round" stroke-linejoin="round" stroke-miterlimit="10" x1="107.719" y1="44.36" x2="110.145" y2="40.119"/>
		
			<line fill="none" stroke="#5C515F" stroke-linecap="round" stroke-linejoin="round" stroke-miterlimit="10" x1="108.621" y1="45.222" x2="111.047" y2="40.981"/>
		
			<line fill="none" stroke="#5C515F" stroke-linecap="round" stroke-linejoin="round" stroke-miterlimit="10" x1="109.524" y1="46.084" x2="111.949" y2="41.842"/>
		
			<line fill="none" stroke="#5C515F" stroke-linecap="round" stroke-linejoin="round" stroke-miterlimit="10" x1="110.426" y1="46.945" x2="112.851" y2="42.704"/>
		
			<line fill="none" stroke="#5C515F" stroke-linecap="round" stroke-linejoin="round" stroke-miterlimit="10" x1="111.328" y1="47.807" x2="113.753" y2="43.566"/>
		
			<line fill="none" stroke="#5C515F" stroke-linecap="round" stroke-linejoin="round" stroke-miterlimit="10" x1="112.23" y1="48.669" x2="114.656" y2="44.428"/>
		
			<line fill="none" stroke="#5C515F" stroke-linecap="round" stroke-linejoin="round" stroke-miterlimit="10" x1="113.133" y1="49.531" x2="115.558" y2="45.29"/>
		
			<line fill="none" stroke="#5C515F" stroke-linecap="round" stroke-linejoin="round" stroke-miterlimit="10" x1="114.035" y1="50.393" x2="116.46" y2="46.152"/>
		
			<line fill="none" stroke="#5C515F" stroke-linecap="round" stroke-linejoin="round" stroke-miterlimit="10" x1="114.937" y1="51.255" x2="117.362" y2="47.013"/>
		
			<line fill="none" stroke="#5C515F" stroke-linecap="round" stroke-linejoin="round" stroke-miterlimit="10" x1="115.839" y1="52.116" x2="118.265" y2="47.875"/>
		
			<line fill="none" stroke="#5C515F" stroke-linecap="round" stroke-linejoin="round" stroke-miterlimit="10" x1="116.741" y1="52.978" x2="119.167" y2="48.737"/>
		
			<line fill="none" stroke="#5C515F" stroke-linecap="round" stroke-linejoin="round" stroke-miterlimit="10" x1="117.644" y1="53.84" x2="120.069" y2="49.599"/>
		
			<line fill="none" stroke="#5C515F" stroke-linecap="round" stroke-linejoin="round" stroke-miterlimit="10" x1="118.546" y1="54.702" x2="120.971" y2="50.461"/>
		
			<line fill="none" stroke="#5C515F" stroke-linecap="round" stroke-linejoin="round" stroke-miterlimit="10" x1="119.448" y1="55.564" x2="121.873" y2="51.323"/>
		
			<line fill="none" stroke="#5C515F" stroke-linecap="round" stroke-linejoin="round" stroke-miterlimit="10" x1="120.35" y1="56.426" x2="122.776" y2="52.184"/>
		
			<line fill="none" stroke="#5C515F" stroke-linecap="round" stroke-linejoin="round" stroke-miterlimit="10" x1="121.253" y1="57.287" x2="123.678" y2="53.046"/>
		
			<line fill="none" stroke="#5C515F" stroke-linecap="round" stroke-linejoin="round" stroke-miterlimit="10" x1="122.155" y1="58.149" x2="124.58" y2="53.908"/>
		
			<line fill="none" stroke="#5C515F" stroke-linecap="round" stroke-linejoin="round" stroke-miterlimit="10" x1="123.057" y1="59.011" x2="125.482" y2="54.77"/>
		
			<line fill="none" stroke="#5C515F" stroke-linecap="round" stroke-linejoin="round" stroke-miterlimit="10" x1="123.959" y1="59.873" x2="126.385" y2="55.632"/>
		
			<line fill="none" stroke="#5C515F" stroke-linecap="round" stroke-linejoin="round" stroke-miterlimit="10" x1="124.861" y1="60.735" x2="127.287" y2="56.494"/>
		
			<line fill="none" stroke="#5C515F" stroke-linecap="round" stroke-linejoin="round" stroke-miterlimit="10" x1="125.764" y1="61.597" x2="128.189" y2="57.355"/>
		
			<line fill="none" stroke="#5C515F" stroke-linecap="round" stroke-linejoin="round" stroke-miterlimit="10" x1="126.666" y1="62.458" x2="129.091" y2="58.217"/>
		
			<line fill="none" stroke="#5C515F" stroke-linecap="round" stroke-linejoin="round" stroke-miterlimit="10" x1="127.568" y1="63.32" x2="129.993" y2="59.079"/>
		
			<line fill="none" stroke="#5C515F" stroke-linecap="round" stroke-linejoin="round" stroke-miterlimit="10" x1="128.47" y1="64.182" x2="130.896" y2="59.941"/>
		
			<line fill="none" stroke="#5C515F" stroke-linecap="round" stroke-linejoin="round" stroke-miterlimit="10" x1="129.373" y1="65.044" x2="131.798" y2="60.803"/>
		
			<line fill="none" stroke="#5C515F" stroke-linecap="round" stroke-linejoin="round" stroke-miterlimit="10" x1="130.275" y1="65.906" x2="132.7" y2="61.665"/>
		
			<line fill="none" stroke="#5C515F" stroke-linecap="round" stroke-linejoin="round" stroke-miterlimit="10" x1="131.177" y1="66.768" x2="133.602" y2="62.526"/>
		<path fill="none" stroke="#5C515F" stroke-linecap="round" stroke-linejoin="round" stroke-miterlimit="10" d="M135.285,62.923"/>
		
			<line fill="none" stroke="#5C515F" stroke-linecap="round" stroke-linejoin="round" stroke-miterlimit="10" x1="135.285" y1="62.923" x2="132.403" y2="67.29"/>
		
			<line fill="none" stroke="#5C515F" stroke-linecap="round" stroke-linejoin="round" stroke-miterlimit="10" x1="136.193" y1="63.785" x2="134.108" y2="67.89"/>
		
			<line fill="none" stroke="#5C515F" stroke-linecap="round" stroke-linejoin="round" stroke-miterlimit="10" x1="137.102" y1="64.647" x2="136.221" y2="67.663"/>
	</g>
</g>
<g>
	<path fill="none" stroke="#5C515F" stroke-linecap="round" stroke-linejoin="round" stroke-miterlimit="10" d="M35.957,108.068
		c0.026,3.821-4.231,4.606-4.231,4.606L0.709,65.155c-0.276-0.423,0.021-0.984,0.526-0.988c1.791-0.013,5.087-1.382,5.087-1.382"/>
	<g>
		
			<line fill="none" stroke="#5C515F" stroke-linecap="round" stroke-linejoin="round" stroke-miterlimit="10" x1="6.623" y1="64.238" x2="2.015" y2="65.861"/>
		
			<line fill="none" stroke="#5C515F" stroke-linecap="round" stroke-linejoin="round" stroke-miterlimit="10" x1="7.309" y1="65.281" x2="2.701" y2="66.904"/>
		
			<line fill="none" stroke="#5C515F" stroke-linecap="round" stroke-linejoin="round" stroke-miterlimit="10" x1="7.994" y1="66.323" x2="3.386" y2="67.946"/>
		
			<line fill="none" stroke="#5C515F" stroke-linecap="round" stroke-linejoin="round" stroke-miterlimit="10" x1="8.68" y1="67.366" x2="4.071" y2="68.989"/>
		
			<line fill="none" stroke="#5C515F" stroke-linecap="round" stroke-linejoin="round" stroke-miterlimit="10" x1="9.365" y1="68.409" x2="4.757" y2="70.031"/>
		
			<line fill="none" stroke="#5C515F" stroke-linecap="round" stroke-linejoin="round" stroke-miterlimit="10" x1="10.051" y1="69.451" x2="5.442" y2="71.074"/>
		
			<line fill="none" stroke="#5C515F" stroke-linecap="round" stroke-linejoin="round" stroke-miterlimit="10" x1="10.736" y1="70.494" x2="6.128" y2="72.116"/>
		
			<line fill="none" stroke="#5C515F" stroke-linecap="round" stroke-linejoin="round" stroke-miterlimit="10" x1="11.422" y1="71.536" x2="6.813" y2="73.159"/>
		
			<line fill="none" stroke="#5C515F" stroke-linecap="round" stroke-linejoin="round" stroke-miterlimit="10" x1="12.107" y1="72.579" x2="7.499" y2="74.201"/>
		
			<line fill="none" stroke="#5C515F" stroke-linecap="round" stroke-linejoin="round" stroke-miterlimit="10" x1="12.793" y1="73.621" x2="8.184" y2="75.244"/>
		
			<line fill="none" stroke="#5C515F" stroke-linecap="round" stroke-linejoin="round" stroke-miterlimit="10" x1="13.478" y1="74.664" x2="8.87" y2="76.287"/>
		
			<line fill="none" stroke="#5C515F" stroke-linecap="round" stroke-linejoin="round" stroke-miterlimit="10" x1="14.164" y1="75.706" x2="9.555" y2="77.329"/>
		
			<line fill="none" stroke="#5C515F" stroke-linecap="round" stroke-linejoin="round" stroke-miterlimit="10" x1="14.849" y1="76.749" x2="10.241" y2="78.372"/>
		
			<line fill="none" stroke="#5C515F" stroke-linecap="round" stroke-linejoin="round" stroke-miterlimit="10" x1="15.535" y1="77.791" x2="10.926" y2="79.414"/>
		
			<line fill="none" stroke="#5C515F" stroke-linecap="round" stroke-linejoin="round" stroke-miterlimit="10" x1="16.22" y1="78.834" x2="11.612" y2="80.457"/>
		
			<line fill="none" stroke="#5C515F" stroke-linecap="round" stroke-linejoin="round" stroke-miterlimit="10" x1="16.906" y1="79.876" x2="12.297" y2="81.499"/>
		
			<line fill="none" stroke="#5C515F" stroke-linecap="round" stroke-linejoin="round" stroke-miterlimit="10" x1="17.591" y1="80.919" x2="12.983" y2="82.542"/>
		
			<line fill="none" stroke="#5C515F" stroke-linecap="round" stroke-linejoin="round" stroke-miterlimit="10" x1="18.277" y1="81.962" x2="13.668" y2="83.584"/>
		
			<line fill="none" stroke="#5C515F" stroke-linecap="round" stroke-linejoin="round" stroke-miterlimit="10" x1="18.962" y1="83.004" x2="14.354" y2="84.627"/>
		
			<line fill="none" stroke="#5C515F" stroke-linecap="round" stroke-linejoin="round" stroke-miterlimit="10" x1="19.647" y1="84.047" x2="15.039" y2="85.669"/>
		
			<line fill="none" stroke="#5C515F" stroke-linecap="round" stroke-linejoin="round" stroke-miterlimit="10" x1="20.333" y1="85.089" x2="15.725" y2="86.712"/>
		
			<line fill="none" stroke="#5C515F" stroke-linecap="round" stroke-linejoin="round" stroke-miterlimit="10" x1="21.018" y1="86.132" x2="16.41" y2="87.754"/>
		
			<line fill="none" stroke="#5C515F" stroke-linecap="round" stroke-linejoin="round" stroke-miterlimit="10" x1="21.704" y1="87.174" x2="17.096" y2="88.797"/>
		
			<line fill="none" stroke="#5C515F" stroke-linecap="round" stroke-linejoin="round" stroke-miterlimit="10" x1="22.389" y1="88.217" x2="17.781" y2="89.84"/>
		
			<line fill="none" stroke="#5C515F" stroke-linecap="round" stroke-linejoin="round" stroke-miterlimit="10" x1="23.075" y1="89.259" x2="18.467" y2="90.882"/>
		
			<line fill="none" stroke="#5C515F" stroke-linecap="round" stroke-linejoin="round" stroke-miterlimit="10" x1="23.76" y1="90.302" x2="19.152" y2="91.925"/>
		
			<line fill="none" stroke="#5C515F" stroke-linecap="round" stroke-linejoin="round" stroke-miterlimit="10" x1="24.446" y1="91.344" x2="19.838" y2="92.967"/>
		
			<line fill="none" stroke="#5C515F" stroke-linecap="round" stroke-linejoin="round" stroke-miterlimit="10" x1="25.131" y1="92.387" x2="20.523" y2="94.01"/>
		
			<line fill="none" stroke="#5C515F" stroke-linecap="round" stroke-linejoin="round" stroke-miterlimit="10" x1="25.817" y1="93.429" x2="21.208" y2="95.052"/>
		
			<line fill="none" stroke="#5C515F" stroke-linecap="round" stroke-linejoin="round" stroke-miterlimit="10" x1="26.502" y1="94.472" x2="21.894" y2="96.095"/>
		
			<line fill="none" stroke="#5C515F" stroke-linecap="round" stroke-linejoin="round" stroke-miterlimit="10" x1="27.188" y1="95.514" x2="22.579" y2="97.137"/>
		
			<line fill="none" stroke="#5C515F" stroke-linecap="round" stroke-linejoin="round" stroke-miterlimit="10" x1="27.873" y1="96.557" x2="23.265" y2="98.18"/>
		
			<line fill="none" stroke="#5C515F" stroke-linecap="round" stroke-linejoin="round" stroke-miterlimit="10" x1="28.559" y1="97.6" x2="23.95" y2="99.222"/>
		
			<line fill="none" stroke="#5C515F" stroke-linecap="round" stroke-linejoin="round" stroke-miterlimit="10" x1="29.244" y1="98.642" x2="24.636" y2="100.265"/>
		
			<line fill="none" stroke="#5C515F" stroke-linecap="round" stroke-linejoin="round" stroke-miterlimit="10" x1="29.93" y1="99.685" x2="25.321" y2="101.307"/>
		
			<line fill="none" stroke="#5C515F" stroke-linecap="round" stroke-linejoin="round" stroke-miterlimit="10" x1="30.615" y1="100.727" x2="26.007" y2="102.35"/>
		
			<line fill="none" stroke="#5C515F" stroke-linecap="round" stroke-linejoin="round" stroke-miterlimit="10" x1="31.301" y1="101.77" x2="26.692" y2="103.393"/>
		
			<line fill="none" stroke="#5C515F" stroke-linecap="round" stroke-linejoin="round" stroke-miterlimit="10" x1="31.986" y1="102.812" x2="27.378" y2="104.435"/>
		
			<line fill="none" stroke="#5C515F" stroke-linecap="round" stroke-linejoin="round" stroke-miterlimit="10" x1="32.672" y1="103.855" x2="28.063" y2="105.478"/>
		
			<line fill="none" stroke="#5C515F" stroke-linecap="round" stroke-linejoin="round" stroke-miterlimit="10" x1="33.357" y1="104.897" x2="28.559" y2="106.75"/>
		<path fill="none" stroke="#5C515F" stroke-linecap="round" stroke-linejoin="round" stroke-miterlimit="10" d="M28.837,108.247"/>
		
			<line fill="none" stroke="#5C515F" stroke-linecap="round" stroke-linejoin="round" stroke-miterlimit="10" x1="28.935" y1="108.403" x2="34.609" y2="106.014"/>
		
			<line fill="none" stroke="#5C515F" stroke-linecap="round" stroke-linejoin="round" stroke-miterlimit="10" x1="29.937" y1="109.594" x2="35.226" y2="107.418"/>
		
			<line fill="none" stroke="#5C515F" stroke-linecap="round" stroke-linejoin="round" stroke-miterlimit="10" x1="30.958" y1="111.063" x2="35.701" y2="109.159"/>
	</g>
</g>
</svg>
