<?xml version="1.0" encoding="utf-8"?>
<!-- Generator: Adobe Illustrator 17.0.0, SVG Export Plug-In . SVG Version: 6.00 Build 0)  -->
<!DOCTYPE svg PUBLIC "-//W3C//DTD SVG 1.1//EN" "http://www.w3.org/Graphics/SVG/1.1/DTD/svg11.dtd">
<svg version="1.1" id="Layer_1" xmlns="http://www.w3.org/2000/svg" xmlns:xlink="http://www.w3.org/1999/xlink" x="0px" y="0px"
	 width="140px" height="140px" viewBox="0 0 140 140" enable-background="new 0 0 140 140" xml:space="preserve">
<g>
	<path fill="none" stroke="#5C515F" stroke-linecap="round" stroke-linejoin="round" stroke-miterlimit="10" d="M98.155,97.41
		c14.166-1.241,32.452-3.798,40.359-9.421c2.746-2.06-2.06-14.378-16.479-15.085c-5.264-0.478-11.672-4.662-12.817-6.69
		C108.24,64.48,91.7,49.336,86.926,44.982c-0.722-0.659-1.733-0.898-2.668-0.614c-1.812,0.551-4.974,0.903-6.852-2.383
		C74.659,37.179,60.698,53.2,60.698,53.2"/>
	<path fill="none" stroke="#5C515F" stroke-linecap="round" stroke-linejoin="round" stroke-miterlimit="10" d="M105.875,85.008
		c16.633-2.139,30.477-5.509,30.477-5.509"/>
	
		<circle fill="none" stroke="#5C515F" stroke-linecap="round" stroke-linejoin="round" stroke-miterlimit="10" cx="94.192" cy="72.095" r="1.627"/>
	
		<circle fill="none" stroke="#5C515F" stroke-linecap="round" stroke-linejoin="round" stroke-miterlimit="10" cx="89.488" cy="68.588" r="1.627"/>
	
		<circle fill="none" stroke="#5C515F" stroke-linecap="round" stroke-linejoin="round" stroke-miterlimit="10" cx="84.784" cy="65.08" r="1.627"/>
	
		<circle fill="none" stroke="#5C515F" stroke-linecap="round" stroke-linejoin="round" stroke-miterlimit="10" cx="80.08" cy="61.573" r="1.627"/>
	
		<circle fill="none" stroke="#5C515F" stroke-linecap="round" stroke-linejoin="round" stroke-miterlimit="10" cx="75.377" cy="58.066" r="1.627"/>
	
		<circle fill="none" stroke="#5C515F" stroke-linecap="round" stroke-linejoin="round" stroke-miterlimit="10" cx="70.673" cy="54.559" r="1.627"/>
	
		<circle fill="none" stroke="#5C515F" stroke-linecap="round" stroke-linejoin="round" stroke-miterlimit="10" cx="65.969" cy="51.052" r="1.627"/>
	<path fill="none" stroke="#5C515F" stroke-linecap="round" stroke-linejoin="round" stroke-miterlimit="10" d="M69.479,44.543
		c0.228-0.184,26.681,20.653,28.69,22.417s-0.126,5.352-0.879,6.761c-0.286,0.536-1.039,1.599-2.266,3.513"/>
	<path fill="none" stroke="#5C515F" stroke-linecap="round" stroke-linejoin="round" stroke-miterlimit="10" d="M109.219,66.214
		c0,0-3.138,0.754-7.408-3.768S83.592,44.542,83.592,44.542"/>
	<polyline fill="none" stroke="#5C515F" stroke-linecap="round" stroke-linejoin="round" stroke-miterlimit="10" points="
		65.969,51.052 86.927,44.983 75.377,58.066 94.192,51.65 84.784,65.08 102.326,59.946 94.192,72.095 98.234,55.401 89.488,68.588 
		89.488,47.324 80.08,61.573 80.564,44.542 70.673,54.559 75.377,41.086 	"/>
</g>
<g>
	<path fill="none" stroke="#5C515F" stroke-linecap="round" stroke-linejoin="round" stroke-miterlimit="10" d="M11.796,50.072
		c0,0,1.693,4.111-0.967,7.254c-1.544,1.698-2.594,3.783-3.028,6.036c-0.757,3.932-2.144,10.356-3.742,14.033
		c-2.418,5.561-4.111,13.057-1.934,15.958c11.126,8.973,55.812,10.387,70.559,8.633c11.093-1.319,25.213-2.426,34.622-9.117
		c2.902-2.176-2.176-15.19-17.409-15.937c-5.561-0.505-12.332-4.925-13.54-7.067c-1.034-1.832-18.508-17.83-23.552-22.43
		c-0.763-0.696-1.831-0.949-2.818-0.648c-1.914,0.582-5.255,0.954-7.239-2.518c-2.902-5.078-17.651,11.848-17.651,11.848
		s3.869-7.012-6.045-8.221C13.005,47.412,11.796,50.072,11.796,50.072z"/>
	<path fill="none" stroke="#5C515F" stroke-linecap="round" stroke-linejoin="round" stroke-miterlimit="10" d="M10.829,57.326
		c0,0-2.66,6.528,6.77,6.77c4.594,0,7.496-7.979,7.496-7.979"/>
	<path fill="none" stroke="#5C515F" stroke-linecap="round" stroke-linejoin="round" stroke-miterlimit="10" d="M2.705,80.958
		c0,0-5.174,5.866,29.16,9.735S105.02,83.9,105.02,83.9"/>
	
		<circle fill="none" stroke="#5C515F" stroke-linecap="round" stroke-linejoin="round" stroke-miterlimit="10" cx="60.48" cy="76.078" r="1.719"/>
	
		<circle fill="none" stroke="#5C515F" stroke-linecap="round" stroke-linejoin="round" stroke-miterlimit="10" cx="55.51" cy="72.373" r="1.719"/>
	
		<circle fill="none" stroke="#5C515F" stroke-linecap="round" stroke-linejoin="round" stroke-miterlimit="10" cx="50.541" cy="68.668" r="1.719"/>
	
		<circle fill="none" stroke="#5C515F" stroke-linecap="round" stroke-linejoin="round" stroke-miterlimit="10" cx="45.571" cy="64.963" r="1.719"/>
	
		<circle fill="none" stroke="#5C515F" stroke-linecap="round" stroke-linejoin="round" stroke-miterlimit="10" cx="40.602" cy="61.258" r="1.719"/>
	
		<circle fill="none" stroke="#5C515F" stroke-linecap="round" stroke-linejoin="round" stroke-miterlimit="10" cx="35.632" cy="57.552" r="1.719"/>
	
		<circle fill="none" stroke="#5C515F" stroke-linecap="round" stroke-linejoin="round" stroke-miterlimit="10" cx="30.663" cy="53.847" r="1.719"/>
	<path fill="none" stroke="#5C515F" stroke-linecap="round" stroke-linejoin="round" stroke-miterlimit="10" d="M34.371,46.971
		c0.241-0.195,28.187,21.819,30.31,23.683c2.123,1.864-0.133,5.654-0.929,7.142c-0.796,1.489-7.428,10.395-7.295,13.534"/>
	<path fill="none" stroke="#5C515F" stroke-linecap="round" stroke-linejoin="round" stroke-miterlimit="10" d="M76.355,69.865
		c0,0-3.315,0.796-7.826-3.981C64.018,61.108,49.282,46.97,49.282,46.97"/>
	<polyline fill="none" stroke="#5C515F" stroke-linecap="round" stroke-linejoin="round" stroke-miterlimit="10" points="
		30.663,53.847 52.804,47.436 40.602,61.258 60.48,54.48 50.541,68.668 69.479,63.125 60.48,76.078 64.75,58.442 55.51,72.373 
		55.51,49.909 45.571,64.963 46.082,46.97 35.632,57.552 40.602,43.318 	"/>
</g>
</svg>
