<?xml version="1.0" encoding="utf-8"?>
<!-- Generator: Adobe Illustrator 17.0.0, SVG Export Plug-In . SVG Version: 6.00 Build 0)  -->
<!DOCTYPE svg PUBLIC "-//W3C//DTD SVG 1.1//EN" "http://www.w3.org/Graphics/SVG/1.1/DTD/svg11.dtd">
<svg version="1.1" id="Layer_1" xmlns="http://www.w3.org/2000/svg" xmlns:xlink="http://www.w3.org/1999/xlink" x="0px" y="0px"
	 width="140px" height="140px" viewBox="0 0 140 140" enable-background="new 0 0 140 140" xml:space="preserve">
<path fill="none" stroke="#59515F" stroke-linecap="round" stroke-linejoin="round" stroke-miterlimit="10" d="M35.138,19.109
	c0,0,0,0,1.677,5.297c3.503,17.783,1.078,41.494,0.269,44.727c-1.886,11.047-4.581,58.738-4.581,58.738H17.414
	c0,0-0.269-48.23,0-55.505c0.808-7.006,3.233-19.669,3.772-24.789s9.969-24.25,12.933-27.753c5.389-4.042,18.861-9.43,18.861-9.43
	s4.581-8.083,11.047-9.52c3.952,0,7.006,0,7.006,0"/>
<path fill="none" stroke="#59515F" stroke-linecap="round" stroke-linejoin="round" stroke-miterlimit="10" d="M103.846,19.109
	c0,0,0,0-1.677,5.297C98.666,42.19,101.091,65.9,101.9,69.134c1.886,11.047,4.581,58.738,4.581,58.738h15.089
	c0,0,0.269-48.23,0-55.505c-0.808-7.006-3.233-19.669-3.772-24.789s-9.969-24.25-12.933-27.753
	c-5.389-4.042-18.861-9.43-18.861-9.43s-4.581-8.083-11.047-9.52c-3.952,0-7.006,0-7.006,0"/>
<path fill="none" stroke="#59515F" stroke-linecap="round" stroke-linejoin="round" stroke-miterlimit="10" d="M81.811,5.18
	c0,0,0.372,8.362-6.988,11.981c-3.387,1.665-7.431,1.665-10.818,0c-7.36-3.619-6.988-11.981-6.988-11.981"/>
<path fill="none" stroke="#59515F" stroke-linecap="round" stroke-linejoin="round" stroke-miterlimit="10" d="M57.804,9.962
	c0,0,11.115-6.002,23.219,0"/>
<path fill="none" stroke="#59515F" stroke-linecap="round" stroke-linejoin="round" stroke-miterlimit="10" d="M52.981,10.395
	c0,0,2.605,10.418,11.227,12.933l-0.203-6.168"/>
<path fill="none" stroke="#59515F" stroke-linecap="round" stroke-linejoin="round" stroke-miterlimit="10" d="M85.763,10.395
	c0,0-2.605,10.418-11.227,12.933l0.203-6.168"/>
<polyline fill="none" stroke="#59515F" stroke-linecap="round" stroke-linejoin="round" stroke-miterlimit="10" points="
	64.208,89.072 64.208,139.458 71.033,139.458 71.033,18.41 67.62,18.41 64.208,28.717 64.208,80.991 "/>
<path fill="none" stroke="#59515F" stroke-linecap="round" stroke-linejoin="round" stroke-miterlimit="10" d="M37.983,62.113
	c0,0,3.055,20.493,0,36.659c-0.361,8.892-4.489,35.566,0,40.686c6.375,0,29.637,0,29.637,0"/>
<path fill="none" stroke="#59515F" stroke-linecap="round" stroke-linejoin="round" stroke-miterlimit="10" d="M101.109,62.113
	c0,0-3.055,20.493,0,36.659c0.361,8.892,4.489,35.566,0,40.686c-6.375,0-29.637,0-29.637,0"/>
<line fill="none" stroke="#59515F" stroke-linecap="round" stroke-linejoin="round" stroke-miterlimit="10" x1="39.335" y1="80.991" x2="99.76" y2="80.991"/>
<line fill="none" stroke="#59515F" stroke-linecap="round" stroke-linejoin="round" stroke-miterlimit="10" x1="39.335" y1="89.073" x2="99.76" y2="89.073"/>
<rect x="78.039" y="44.345" fill="none" stroke="#59515F" stroke-linecap="round" stroke-linejoin="round" stroke-miterlimit="10" width="19.759" height="26.405"/>
<path fill="none" stroke="#59515F" stroke-linecap="round" stroke-linejoin="round" stroke-miterlimit="10" d="M81.632,52.608
	h12.574c1.984,0,3.593-1.608,3.593-3.593v-4.67H78.039v4.67C78.039,51,79.647,52.608,81.632,52.608z"/>
<path fill="none" stroke="#59515F" stroke-linecap="round" stroke-linejoin="round" stroke-miterlimit="10" d="M100.514,95H79.656
	v29.056c0,4.495,3.57,8.244,8.065,8.305c0.065,0.001,0.131,0.001,0.198,0.001c6.646,0,15.122,0,15.122,0"/>
<path fill="none" stroke="#59515F" stroke-linecap="round" stroke-linejoin="round" stroke-miterlimit="10" d="M101.647,105.598
	H84.775c-2.827,0-5.119-2.292-5.119-5.119V95"/>
<circle fill="none" stroke="#59515F" stroke-linecap="round" stroke-linejoin="round" stroke-miterlimit="10" cx="83.697" cy="100.786" r="1.886"/>
<circle fill="none" stroke="#59515F" stroke-linecap="round" stroke-linejoin="round" stroke-miterlimit="10" cx="67.62" cy="134.249" r="1.886"/>
<circle fill="none" stroke="#59515F" stroke-linecap="round" stroke-linejoin="round" stroke-miterlimit="10" cx="67.62" cy="107.484" r="1.886"/>
<circle fill="none" stroke="#59515F" stroke-linecap="round" stroke-linejoin="round" stroke-miterlimit="10" cx="67.62" cy="77.048" r="1.886"/>
<circle fill="none" stroke="#59515F" stroke-linecap="round" stroke-linejoin="round" stroke-miterlimit="10" cx="67.62" cy="52.608" r="1.886"/>
<circle fill="none" stroke="#59515F" stroke-linecap="round" stroke-linejoin="round" stroke-miterlimit="10" cx="67.62" cy="28.987" r="1.886"/>
<circle fill="none" stroke="#59515F" stroke-linecap="round" stroke-linejoin="round" stroke-miterlimit="10" cx="82.119" cy="48.74" r="1.886"/>
<circle fill="none" stroke="#59515F" stroke-linecap="round" stroke-linejoin="round" stroke-miterlimit="10" cx="93.305" cy="48.74" r="1.886"/>
<rect x="41.248" y="44.345" fill="none" stroke="#59515F" stroke-linecap="round" stroke-linejoin="round" stroke-miterlimit="10" width="19.759" height="26.405"/>
<path fill="none" stroke="#59515F" stroke-linecap="round" stroke-linejoin="round" stroke-miterlimit="10" d="M57.414,52.608H44.84
	c-1.984,0-3.593-1.608-3.593-3.593v-4.67h19.759v4.67C61.007,51,59.399,52.608,57.414,52.608z"/>
<path fill="none" stroke="#59515F" stroke-linecap="round" stroke-linejoin="round" stroke-miterlimit="10" d="M38.532,95H59.39
	v29.056c0,4.495-3.57,8.244-8.065,8.305c-0.065,0.001-0.131,0.001-0.198,0.001c-6.646,0-15.122,0-15.122,0"/>
<path fill="none" stroke="#59515F" stroke-linecap="round" stroke-linejoin="round" stroke-miterlimit="10" d="M37.398,105.598
	h16.872c2.827,0,5.119-2.292,5.119-5.119V95"/>
<circle fill="none" stroke="#59515F" stroke-linecap="round" stroke-linejoin="round" stroke-miterlimit="10" cx="55.349" cy="100.786" r="1.886"/>
<circle fill="none" stroke="#59515F" stroke-linecap="round" stroke-linejoin="round" stroke-miterlimit="10" cx="56.927" cy="48.74" r="1.886"/>
<circle fill="none" stroke="#59515F" stroke-linecap="round" stroke-linejoin="round" stroke-miterlimit="10" cx="45.741" cy="48.74" r="1.886"/>
<g>
	<g>
		<g>
			<path fill="#59515F" d="M67.98,86.8c1.935,0,1.935-3,0-3C66.045,83.8,66.045,86.8,67.98,86.8L67.98,86.8z"/>
		</g>
	</g>
	<g>
		<g>
			<path fill="#59515F" d="M59.39,86.8c1.935,0,1.935-3,0-3S57.456,86.8,59.39,86.8L59.39,86.8z"/>
		</g>
	</g>
	<g>
		<g>
			<path fill="#59515F" d="M75.524,86.8c1.935,0,1.935-3,0-3C73.59,83.8,73.59,86.8,75.524,86.8L75.524,86.8z"/>
		</g>
	</g>
	<g>
		<g>
			<path fill="#59515F" d="M82.17,86.8c1.935,0,1.935-3,0-3C80.236,83.8,80.236,86.8,82.17,86.8L82.17,86.8z"/>
		</g>
	</g>
	<g>
		<g>
			<path fill="#59515F" d="M88.996,86.8c1.935,0,1.935-3,0-3C87.062,83.8,87.062,86.8,88.996,86.8L88.996,86.8z"/>
		</g>
	</g>
	<g>
		<g>
			<path fill="#59515F" d="M95.283,86.8c1.935,0,1.935-3,0-3S93.349,86.8,95.283,86.8L95.283,86.8z"/>
		</g>
	</g>
</g>
<path fill="none" stroke="#59515F" stroke-linecap="round" stroke-linejoin="round" stroke-miterlimit="10" d="M67.485,89.073h3.548
	v-7.948c0-0.074-0.06-0.134-0.134-0.134h-3.415c-1.81,0-3.277,1.467-3.277,3.277v1.527C64.208,87.605,65.675,89.073,67.485,89.073z"
	/>
<line fill="none" stroke="#59515F" stroke-linecap="round" stroke-linejoin="round" stroke-miterlimit="10" x1="67.98" y1="85.3" x2="64.208" y2="85.3"/>
</svg>
