<svg class="nc-icon colored" xmlns="http://www.w3.org/2000/svg" xmlns:xlink="http://www.w3.org/1999/xlink" x="0px" y="0px" width="48px" height="48px" viewBox="0 0 48 48"><g>
<path fill="#C94F49" d="M43.771,17.363C43.581,17.133,43.298,17,43,17H5c-0.298,0-0.581,0.133-0.771,0.363s-0.268,0.533-0.211,0.826
	l5,26C9.108,44.66,9.521,45,10,45h28c0.479,0,0.892-0.34,0.982-0.811l5-26C44.039,17.896,43.961,17.593,43.771,17.363z"></path>
<path fill="#E86C60" d="M45,14H3c-1.105,0-2,0.895-2,2v4c0,1.105,0.895,2,2,2h42c1.105,0,2-0.895,2-2v-4C47,14.895,46.105,14,45,14z
	"></path>
<path fill="#AA3333" d="M24,40c-0.553,0-1-0.448-1-1V28c0-0.552,0.447-1,1-1s1,0.448,1,1v11C25,39.552,24.553,40,24,40z"></path>
<path fill="#AA3333" d="M16,40c-0.553,0-1-0.448-1-1V28c0-0.552,0.447-1,1-1s1,0.448,1,1v11C17,39.552,16.553,40,16,40z"></path>
<path fill="#AA3333" d="M32,40c-0.553,0-1-0.448-1-1V28c0-0.552,0.447-1,1-1s1,0.448,1,1v11C33,39.552,32.553,40,32,40z"></path>
<path fill="#BADEFC" d="M30.75879,19.65039l-6,7c-0.39885,0.46532-1.11873,0.46532-1.51758,0l-6-7
	c-0.25488-0.2959-0.3125-0.71387-0.14941-1.06836S17.60938,18,18,18h4V2c0-0.55228,0.44772-1,1-1h2c0.55228,0,1,0.44772,1,1v16h4
	c0.39062,0,0.74512,0.22754,0.9082,0.58203S31.01367,19.35449,30.75879,19.65039z"></path>

</g>
</svg>
